%TF.GenerationSoftware,KiCad,Pcbnew,7.0.8*%
%TF.CreationDate,2023-10-19T11:53:08-06:00*%
%TF.ProjectId,air_station_1v5,6169725f-7374-4617-9469-6f6e5f317635,rev?*%
%TF.SameCoordinates,Original*%
%TF.FileFunction,Soldermask,Top*%
%TF.FilePolarity,Negative*%
%FSLAX46Y46*%
G04 Gerber Fmt 4.6, Leading zero omitted, Abs format (unit mm)*
G04 Created by KiCad (PCBNEW 7.0.8) date 2023-10-19 11:53:08*
%MOMM*%
%LPD*%
G01*
G04 APERTURE LIST*
G04 Aperture macros list*
%AMRoundRect*
0 Rectangle with rounded corners*
0 $1 Rounding radius*
0 $2 $3 $4 $5 $6 $7 $8 $9 X,Y pos of 4 corners*
0 Add a 4 corners polygon primitive as box body*
4,1,4,$2,$3,$4,$5,$6,$7,$8,$9,$2,$3,0*
0 Add four circle primitives for the rounded corners*
1,1,$1+$1,$2,$3*
1,1,$1+$1,$4,$5*
1,1,$1+$1,$6,$7*
1,1,$1+$1,$8,$9*
0 Add four rect primitives between the rounded corners*
20,1,$1+$1,$2,$3,$4,$5,0*
20,1,$1+$1,$4,$5,$6,$7,0*
20,1,$1+$1,$6,$7,$8,$9,0*
20,1,$1+$1,$8,$9,$2,$3,0*%
G04 Aperture macros list end*
%ADD10C,0.025400*%
%ADD11RoundRect,0.050800X-0.400000X-0.375000X0.400000X-0.375000X0.400000X0.375000X-0.400000X0.375000X0*%
%ADD12RoundRect,0.050800X0.537500X0.500000X-0.537500X0.500000X-0.537500X-0.500000X0.537500X-0.500000X0*%
%ADD13RoundRect,0.304800X0.254000X0.254000X-0.254000X0.254000X-0.254000X-0.254000X0.254000X-0.254000X0*%
%ADD14RoundRect,0.241300X-0.952500X-0.190500X0.952500X-0.190500X0.952500X0.190500X-0.952500X0.190500X0*%
%ADD15RoundRect,0.050800X0.500000X-0.537500X0.500000X0.537500X-0.500000X0.537500X-0.500000X-0.537500X0*%
%ADD16RoundRect,0.050800X-0.500000X0.537500X-0.500000X-0.537500X0.500000X-0.537500X0.500000X0.537500X0*%
%ADD17RoundRect,0.200000X0.200000X0.800000X-0.200000X0.800000X-0.200000X-0.800000X0.200000X-0.800000X0*%
%ADD18RoundRect,0.050800X-0.620000X-0.750000X0.620000X-0.750000X0.620000X0.750000X-0.620000X0.750000X0*%
%ADD19RoundRect,0.050800X-0.537500X-0.500000X0.537500X-0.500000X0.537500X0.500000X-0.537500X0.500000X0*%
%ADD20RoundRect,0.050800X0.600000X-0.275000X0.600000X0.275000X-0.600000X0.275000X-0.600000X-0.275000X0*%
%ADD21RoundRect,0.161925X-0.333375X0.333375X-0.333375X-0.333375X0.333375X-0.333375X0.333375X0.333375X0*%
%ADD22RoundRect,0.050800X0.620000X0.750000X-0.620000X0.750000X-0.620000X-0.750000X0.620000X-0.750000X0*%
%ADD23RoundRect,0.050800X0.600000X-1.250000X0.600000X1.250000X-0.600000X1.250000X-0.600000X-1.250000X0*%
%ADD24R,0.254000X0.279400*%
%ADD25R,0.279400X0.254000*%
%ADD26RoundRect,0.304800X-0.254000X-0.254000X0.254000X-0.254000X0.254000X0.254000X-0.254000X0.254000X0*%
%ADD27RoundRect,0.241300X0.952500X0.190500X-0.952500X0.190500X-0.952500X-0.190500X0.952500X-0.190500X0*%
%ADD28RoundRect,0.050800X-0.800000X-0.400000X0.800000X-0.400000X0.800000X0.400000X-0.800000X0.400000X0*%
%ADD29RoundRect,0.050800X0.400000X-0.800000X0.400000X0.800000X-0.400000X0.800000X-0.400000X-0.800000X0*%
%ADD30RoundRect,0.050800X-1.500000X-1.500000X1.500000X-1.500000X1.500000X1.500000X-1.500000X1.500000X0*%
%ADD31RoundRect,0.050800X-0.750000X-0.750000X0.750000X-0.750000X0.750000X0.750000X-0.750000X0.750000X0*%
%ADD32RoundRect,0.161925X0.333375X-0.333375X0.333375X0.333375X-0.333375X0.333375X-0.333375X-0.333375X0*%
%ADD33RoundRect,0.146050X-0.349250X0.285750X-0.349250X-0.285750X0.349250X-0.285750X0.349250X0.285750X0*%
G04 APERTURE END LIST*
D10*
X99879988Y-56317118D02*
X99869102Y-56338890D01*
X99869102Y-56338890D02*
X99869102Y-56371547D01*
X99869102Y-56371547D02*
X99879988Y-56404204D01*
X99879988Y-56404204D02*
X99901759Y-56425975D01*
X99901759Y-56425975D02*
X99923531Y-56436861D01*
X99923531Y-56436861D02*
X99967074Y-56447747D01*
X99967074Y-56447747D02*
X99999731Y-56447747D01*
X99999731Y-56447747D02*
X100043274Y-56436861D01*
X100043274Y-56436861D02*
X100065045Y-56425975D01*
X100065045Y-56425975D02*
X100086817Y-56404204D01*
X100086817Y-56404204D02*
X100097702Y-56371547D01*
X100097702Y-56371547D02*
X100097702Y-56349775D01*
X100097702Y-56349775D02*
X100086817Y-56317118D01*
X100086817Y-56317118D02*
X100075931Y-56306232D01*
X100075931Y-56306232D02*
X99999731Y-56306232D01*
X99999731Y-56306232D02*
X99999731Y-56349775D01*
X100097702Y-56208261D02*
X99869102Y-56208261D01*
X99869102Y-56208261D02*
X99869102Y-56121175D01*
X99869102Y-56121175D02*
X99879988Y-56099404D01*
X99879988Y-56099404D02*
X99890874Y-56088518D01*
X99890874Y-56088518D02*
X99912645Y-56077632D01*
X99912645Y-56077632D02*
X99945302Y-56077632D01*
X99945302Y-56077632D02*
X99967074Y-56088518D01*
X99967074Y-56088518D02*
X99977959Y-56099404D01*
X99977959Y-56099404D02*
X99988845Y-56121175D01*
X99988845Y-56121175D02*
X99988845Y-56208261D01*
X100086817Y-55990547D02*
X100097702Y-55957890D01*
X100097702Y-55957890D02*
X100097702Y-55903461D01*
X100097702Y-55903461D02*
X100086817Y-55881690D01*
X100086817Y-55881690D02*
X100075931Y-55870804D01*
X100075931Y-55870804D02*
X100054159Y-55859918D01*
X100054159Y-55859918D02*
X100032388Y-55859918D01*
X100032388Y-55859918D02*
X100010617Y-55870804D01*
X100010617Y-55870804D02*
X99999731Y-55881690D01*
X99999731Y-55881690D02*
X99988845Y-55903461D01*
X99988845Y-55903461D02*
X99977959Y-55947004D01*
X99977959Y-55947004D02*
X99967074Y-55968775D01*
X99967074Y-55968775D02*
X99956188Y-55979661D01*
X99956188Y-55979661D02*
X99934417Y-55990547D01*
X99934417Y-55990547D02*
X99912645Y-55990547D01*
X99912645Y-55990547D02*
X99890874Y-55979661D01*
X99890874Y-55979661D02*
X99879988Y-55968775D01*
X99879988Y-55968775D02*
X99869102Y-55947004D01*
X99869102Y-55947004D02*
X99869102Y-55892575D01*
X99869102Y-55892575D02*
X99879988Y-55859918D01*
X100119474Y-55816376D02*
X100119474Y-55642204D01*
X100032388Y-55598662D02*
X100032388Y-55489805D01*
X100097702Y-55620433D02*
X99869102Y-55544233D01*
X99869102Y-55544233D02*
X100097702Y-55468033D01*
X100097702Y-55391833D02*
X99869102Y-55391833D01*
X99869102Y-55391833D02*
X100097702Y-55261204D01*
X100097702Y-55261204D02*
X99869102Y-55261204D01*
X99869102Y-55185004D02*
X99869102Y-55054376D01*
X100097702Y-55119690D02*
X99869102Y-55119690D01*
X99977959Y-54978176D02*
X99977959Y-54901976D01*
X100097702Y-54869319D02*
X100097702Y-54978176D01*
X100097702Y-54978176D02*
X99869102Y-54978176D01*
X99869102Y-54978176D02*
X99869102Y-54869319D01*
X100097702Y-54771347D02*
X99869102Y-54771347D01*
X99869102Y-54771347D02*
X100097702Y-54640718D01*
X100097702Y-54640718D02*
X99869102Y-54640718D01*
X100097702Y-54531861D02*
X99869102Y-54531861D01*
X99869102Y-54531861D02*
X100097702Y-54401232D01*
X100097702Y-54401232D02*
X99869102Y-54401232D01*
X100032388Y-54303261D02*
X100032388Y-54194404D01*
X100097702Y-54325032D02*
X99869102Y-54248832D01*
X99869102Y-54248832D02*
X100097702Y-54172632D01*
X78625988Y-57849266D02*
X78615102Y-57871038D01*
X78615102Y-57871038D02*
X78615102Y-57903695D01*
X78615102Y-57903695D02*
X78625988Y-57936352D01*
X78625988Y-57936352D02*
X78647759Y-57958123D01*
X78647759Y-57958123D02*
X78669531Y-57969009D01*
X78669531Y-57969009D02*
X78713074Y-57979895D01*
X78713074Y-57979895D02*
X78745731Y-57979895D01*
X78745731Y-57979895D02*
X78789274Y-57969009D01*
X78789274Y-57969009D02*
X78811045Y-57958123D01*
X78811045Y-57958123D02*
X78832817Y-57936352D01*
X78832817Y-57936352D02*
X78843702Y-57903695D01*
X78843702Y-57903695D02*
X78843702Y-57881923D01*
X78843702Y-57881923D02*
X78832817Y-57849266D01*
X78832817Y-57849266D02*
X78821931Y-57838380D01*
X78821931Y-57838380D02*
X78745731Y-57838380D01*
X78745731Y-57838380D02*
X78745731Y-57881923D01*
X78832817Y-57751295D02*
X78843702Y-57718638D01*
X78843702Y-57718638D02*
X78843702Y-57664209D01*
X78843702Y-57664209D02*
X78832817Y-57642438D01*
X78832817Y-57642438D02*
X78821931Y-57631552D01*
X78821931Y-57631552D02*
X78800159Y-57620666D01*
X78800159Y-57620666D02*
X78778388Y-57620666D01*
X78778388Y-57620666D02*
X78756617Y-57631552D01*
X78756617Y-57631552D02*
X78745731Y-57642438D01*
X78745731Y-57642438D02*
X78734845Y-57664209D01*
X78734845Y-57664209D02*
X78723959Y-57707752D01*
X78723959Y-57707752D02*
X78713074Y-57729523D01*
X78713074Y-57729523D02*
X78702188Y-57740409D01*
X78702188Y-57740409D02*
X78680417Y-57751295D01*
X78680417Y-57751295D02*
X78658645Y-57751295D01*
X78658645Y-57751295D02*
X78636874Y-57740409D01*
X78636874Y-57740409D02*
X78625988Y-57729523D01*
X78625988Y-57729523D02*
X78615102Y-57707752D01*
X78615102Y-57707752D02*
X78615102Y-57653323D01*
X78615102Y-57653323D02*
X78625988Y-57620666D01*
X78843702Y-57522695D02*
X78615102Y-57522695D01*
X78615102Y-57522695D02*
X78778388Y-57446495D01*
X78778388Y-57446495D02*
X78615102Y-57370295D01*
X78615102Y-57370295D02*
X78843702Y-57370295D01*
X78865474Y-57315867D02*
X78865474Y-57141695D01*
X78778388Y-57098153D02*
X78778388Y-56989296D01*
X78843702Y-57119924D02*
X78615102Y-57043724D01*
X78615102Y-57043724D02*
X78843702Y-56967524D01*
X78843702Y-56891324D02*
X78615102Y-56891324D01*
X78615102Y-56891324D02*
X78843702Y-56760695D01*
X78843702Y-56760695D02*
X78615102Y-56760695D01*
X78615102Y-56684495D02*
X78615102Y-56553867D01*
X78843702Y-56619181D02*
X78615102Y-56619181D01*
X78723959Y-56477667D02*
X78723959Y-56401467D01*
X78843702Y-56368810D02*
X78843702Y-56477667D01*
X78843702Y-56477667D02*
X78615102Y-56477667D01*
X78615102Y-56477667D02*
X78615102Y-56368810D01*
X78843702Y-56270838D02*
X78615102Y-56270838D01*
X78615102Y-56270838D02*
X78843702Y-56140209D01*
X78843702Y-56140209D02*
X78615102Y-56140209D01*
X78843702Y-56031352D02*
X78615102Y-56031352D01*
X78615102Y-56031352D02*
X78843702Y-55900723D01*
X78843702Y-55900723D02*
X78615102Y-55900723D01*
X78778388Y-55802752D02*
X78778388Y-55693895D01*
X78843702Y-55824523D02*
X78615102Y-55748323D01*
X78615102Y-55748323D02*
X78843702Y-55672123D01*
D11*
%TO.C,X1*%
X84641000Y-55304000D03*
X84641000Y-56354000D03*
X84641000Y-57404000D03*
X85691000Y-57404000D03*
X86741000Y-57404000D03*
X86741000Y-56354000D03*
X86741000Y-55304000D03*
X85691000Y-55304000D03*
X85691000Y-56354000D03*
%TD*%
D12*
%TO.C,R4*%
X78850000Y-93000000D03*
X77150000Y-93000000D03*
%TD*%
D13*
%TO.C,GPS_ANTENNA*%
X98476000Y-56000000D03*
D14*
X100000000Y-54603000D03*
X100000000Y-57397000D03*
D13*
X101524000Y-56000000D03*
%TD*%
D15*
%TO.C,R6*%
X77597000Y-80479000D03*
X77597000Y-78779000D03*
%TD*%
D16*
%TO.C,R10*%
X87000000Y-62300000D03*
X87000000Y-64000000D03*
%TD*%
D15*
%TO.C,C5*%
X89408000Y-98806000D03*
X89408000Y-97106000D03*
%TD*%
D17*
%TO.C,SW_RST1*%
X81100000Y-98000000D03*
X76900000Y-98000000D03*
%TD*%
D18*
%TO.C,C12*%
X99192000Y-60985392D03*
X101092000Y-60985392D03*
%TD*%
D19*
%TO.C,R3*%
X77150000Y-91000000D03*
X78850000Y-91000000D03*
%TD*%
D16*
%TO.C,R9*%
X91000000Y-62150000D03*
X91000000Y-63850000D03*
%TD*%
D20*
%TO.C,U7*%
X84300000Y-63950000D03*
X84300000Y-63000000D03*
X84300000Y-62050000D03*
X81700000Y-62050000D03*
X81700000Y-63000000D03*
X81700000Y-63950000D03*
%TD*%
D16*
%TO.C,R5*%
X77597000Y-82589000D03*
X77597000Y-84289000D03*
%TD*%
D21*
%TO.C,D2*%
X77597000Y-74930000D03*
X77597000Y-76454000D03*
%TD*%
D20*
%TO.C,U9*%
X96600200Y-62900000D03*
X96600200Y-61950000D03*
X96600200Y-61000000D03*
X94000000Y-61000000D03*
X94000000Y-62900000D03*
%TD*%
D22*
%TO.C,C9*%
X79000000Y-63130000D03*
X77100000Y-63130000D03*
%TD*%
D12*
%TO.C,C11*%
X78850000Y-68570000D03*
X77150000Y-68570000D03*
%TD*%
%TO.C,R1*%
X93850000Y-97000000D03*
X92150000Y-97000000D03*
%TD*%
D19*
%TO.C,C14*%
X99402000Y-65425392D03*
X101102000Y-65425392D03*
%TD*%
D22*
%TO.C,C10*%
X79000000Y-65630000D03*
X77100000Y-65630000D03*
%TD*%
D23*
%TO.C,C3*%
X92650000Y-92000000D03*
X89350000Y-92000000D03*
%TD*%
D22*
%TO.C,C2*%
X97900000Y-93000000D03*
X96000000Y-93000000D03*
%TD*%
D19*
%TO.C,R2*%
X92150000Y-99000000D03*
X93850000Y-99000000D03*
%TD*%
D22*
%TO.C,C8*%
X79000000Y-60630000D03*
X77100000Y-60630000D03*
%TD*%
D21*
%TO.C,L2*%
X97536000Y-58039000D03*
X97536000Y-59563000D03*
%TD*%
D18*
%TO.C,C13*%
X99192000Y-63485392D03*
X101092000Y-63485392D03*
%TD*%
D24*
%TO.C,U5*%
X92584585Y-54575172D03*
X92084585Y-54575172D03*
D25*
X91572585Y-54837173D03*
X91572585Y-55337172D03*
X91572585Y-55837171D03*
D24*
X92084585Y-56099172D03*
X92584585Y-56099172D03*
D25*
X93096585Y-55837171D03*
X93096585Y-55337172D03*
X93096585Y-54837173D03*
%TD*%
D26*
%TO.C,GSM_ANTENNA*%
X80524000Y-56141642D03*
D27*
X79000000Y-57538642D03*
X79000000Y-54744642D03*
D26*
X77476000Y-56141642D03*
%TD*%
D28*
%TO.C,U1*%
X81400000Y-69700000D03*
X81400000Y-70900000D03*
X81400000Y-72100000D03*
X81400000Y-73300000D03*
X81400000Y-74500000D03*
X81400000Y-75700000D03*
X81400000Y-76900000D03*
X81400000Y-78100000D03*
X81400000Y-79300000D03*
X81400000Y-80500000D03*
X81400000Y-81700000D03*
X81400000Y-82900000D03*
X81400000Y-84100000D03*
X81400000Y-85300000D03*
D29*
X83600000Y-87000000D03*
X84800000Y-87000000D03*
X86000000Y-87000000D03*
X87200000Y-87000000D03*
X88400000Y-87000000D03*
X89600000Y-87000000D03*
X90800000Y-87000000D03*
X92000000Y-87000000D03*
X93200000Y-87000000D03*
X94400000Y-87000000D03*
X95600000Y-87000000D03*
X96800000Y-87000000D03*
X98000000Y-87000000D03*
D28*
X100200000Y-85300000D03*
X100200000Y-84100000D03*
X100200000Y-82900000D03*
X100200000Y-81700000D03*
X100200000Y-80500000D03*
X100200000Y-79300000D03*
X100200000Y-78100000D03*
X100200000Y-76900000D03*
X100200000Y-75700000D03*
X100200000Y-74500000D03*
X100200000Y-73300000D03*
X100200000Y-72100000D03*
X100200000Y-70900000D03*
X100200000Y-69700000D03*
D29*
X98000000Y-68000000D03*
X96800000Y-68000000D03*
X95600000Y-68000000D03*
X94400000Y-68000000D03*
X93200000Y-68000000D03*
X92000000Y-68000000D03*
X90800000Y-68000000D03*
X89600000Y-68000000D03*
X88400000Y-68000000D03*
X87200000Y-68000000D03*
X86000000Y-68000000D03*
X84800000Y-68000000D03*
X83600000Y-68000000D03*
D30*
X86600000Y-72800000D03*
D31*
X88900000Y-79400000D03*
%TD*%
D22*
%TO.C,C1*%
X97900000Y-91000000D03*
X96000000Y-91000000D03*
%TD*%
D17*
%TO.C,SW_POW1*%
X101669479Y-98000000D03*
X97469479Y-98000000D03*
%TD*%
D32*
%TO.C,D1*%
X77597000Y-87884000D03*
X77597000Y-86360000D03*
%TD*%
D33*
%TO.C,CHG*%
X86995000Y-96393000D03*
X86995000Y-97917000D03*
%TD*%
M02*
