%TF.GenerationSoftware,KiCad,Pcbnew,7.0.8*%
%TF.CreationDate,2023-10-19T11:53:08-06:00*%
%TF.ProjectId,air_station_1v5,6169725f-7374-4617-9469-6f6e5f317635,rev?*%
%TF.SameCoordinates,Original*%
%TF.FileFunction,AssemblyDrawing,Bot*%
%FSLAX46Y46*%
G04 Gerber Fmt 4.6, Leading zero omitted, Abs format (unit mm)*
G04 Created by KiCad (PCBNEW 7.0.8) date 2023-10-19 11:53:08*
%MOMM*%
%LPD*%
G01*
G04 APERTURE LIST*
%ADD10C,0.150000*%
%ADD11C,0.060000*%
%ADD12C,0.100000*%
%ADD13C,0.101600*%
G04 APERTURE END LIST*
D10*
X90263855Y-65835957D02*
X90326713Y-65804528D01*
X90326713Y-65804528D02*
X90420998Y-65804528D01*
X90420998Y-65804528D02*
X90515284Y-65835957D01*
X90515284Y-65835957D02*
X90578141Y-65898814D01*
X90578141Y-65898814D02*
X90609570Y-65961671D01*
X90609570Y-65961671D02*
X90640998Y-66087385D01*
X90640998Y-66087385D02*
X90640998Y-66181671D01*
X90640998Y-66181671D02*
X90609570Y-66307385D01*
X90609570Y-66307385D02*
X90578141Y-66370242D01*
X90578141Y-66370242D02*
X90515284Y-66433100D01*
X90515284Y-66433100D02*
X90420998Y-66464528D01*
X90420998Y-66464528D02*
X90358141Y-66464528D01*
X90358141Y-66464528D02*
X90263855Y-66433100D01*
X90263855Y-66433100D02*
X90232427Y-66401671D01*
X90232427Y-66401671D02*
X90232427Y-66181671D01*
X90232427Y-66181671D02*
X90358141Y-66181671D01*
X89572427Y-66401671D02*
X89603855Y-66433100D01*
X89603855Y-66433100D02*
X89698141Y-66464528D01*
X89698141Y-66464528D02*
X89760998Y-66464528D01*
X89760998Y-66464528D02*
X89855284Y-66433100D01*
X89855284Y-66433100D02*
X89918141Y-66370242D01*
X89918141Y-66370242D02*
X89949570Y-66307385D01*
X89949570Y-66307385D02*
X89980998Y-66181671D01*
X89980998Y-66181671D02*
X89980998Y-66087385D01*
X89980998Y-66087385D02*
X89949570Y-65961671D01*
X89949570Y-65961671D02*
X89918141Y-65898814D01*
X89918141Y-65898814D02*
X89855284Y-65835957D01*
X89855284Y-65835957D02*
X89760998Y-65804528D01*
X89760998Y-65804528D02*
X89698141Y-65804528D01*
X89698141Y-65804528D02*
X89603855Y-65835957D01*
X89603855Y-65835957D02*
X89572427Y-65867385D01*
X89383855Y-65804528D02*
X89006713Y-65804528D01*
X89195284Y-66464528D02*
X89195284Y-65804528D01*
X88786713Y-66213100D02*
X88283856Y-66213100D01*
X88000998Y-66433100D02*
X87906713Y-66464528D01*
X87906713Y-66464528D02*
X87749570Y-66464528D01*
X87749570Y-66464528D02*
X87686713Y-66433100D01*
X87686713Y-66433100D02*
X87655284Y-66401671D01*
X87655284Y-66401671D02*
X87623855Y-66338814D01*
X87623855Y-66338814D02*
X87623855Y-66275957D01*
X87623855Y-66275957D02*
X87655284Y-66213100D01*
X87655284Y-66213100D02*
X87686713Y-66181671D01*
X87686713Y-66181671D02*
X87749570Y-66150242D01*
X87749570Y-66150242D02*
X87875284Y-66118814D01*
X87875284Y-66118814D02*
X87938141Y-66087385D01*
X87938141Y-66087385D02*
X87969570Y-66055957D01*
X87969570Y-66055957D02*
X88000998Y-65993100D01*
X88000998Y-65993100D02*
X88000998Y-65930242D01*
X88000998Y-65930242D02*
X87969570Y-65867385D01*
X87969570Y-65867385D02*
X87938141Y-65835957D01*
X87938141Y-65835957D02*
X87875284Y-65804528D01*
X87875284Y-65804528D02*
X87718141Y-65804528D01*
X87718141Y-65804528D02*
X87623855Y-65835957D01*
X87340999Y-66464528D02*
X87340999Y-65804528D01*
X87026713Y-66464528D02*
X87026713Y-65804528D01*
X87026713Y-65804528D02*
X86806713Y-66275957D01*
X86806713Y-66275957D02*
X86586713Y-65804528D01*
X86586713Y-65804528D02*
X86586713Y-66464528D01*
X86335284Y-65804528D02*
X85895284Y-65804528D01*
X85895284Y-65804528D02*
X86178141Y-66464528D01*
X85675284Y-65867385D02*
X85643856Y-65835957D01*
X85643856Y-65835957D02*
X85580999Y-65804528D01*
X85580999Y-65804528D02*
X85423856Y-65804528D01*
X85423856Y-65804528D02*
X85360999Y-65835957D01*
X85360999Y-65835957D02*
X85329570Y-65867385D01*
X85329570Y-65867385D02*
X85298141Y-65930242D01*
X85298141Y-65930242D02*
X85298141Y-65993100D01*
X85298141Y-65993100D02*
X85329570Y-66087385D01*
X85329570Y-66087385D02*
X85706713Y-66464528D01*
X85706713Y-66464528D02*
X85298141Y-66464528D01*
X84889570Y-65804528D02*
X84826713Y-65804528D01*
X84826713Y-65804528D02*
X84763856Y-65835957D01*
X84763856Y-65835957D02*
X84732428Y-65867385D01*
X84732428Y-65867385D02*
X84700999Y-65930242D01*
X84700999Y-65930242D02*
X84669570Y-66055957D01*
X84669570Y-66055957D02*
X84669570Y-66213100D01*
X84669570Y-66213100D02*
X84700999Y-66338814D01*
X84700999Y-66338814D02*
X84732428Y-66401671D01*
X84732428Y-66401671D02*
X84763856Y-66433100D01*
X84763856Y-66433100D02*
X84826713Y-66464528D01*
X84826713Y-66464528D02*
X84889570Y-66464528D01*
X84889570Y-66464528D02*
X84952428Y-66433100D01*
X84952428Y-66433100D02*
X84983856Y-66401671D01*
X84983856Y-66401671D02*
X85015285Y-66338814D01*
X85015285Y-66338814D02*
X85046713Y-66213100D01*
X85046713Y-66213100D02*
X85046713Y-66055957D01*
X85046713Y-66055957D02*
X85015285Y-65930242D01*
X85015285Y-65930242D02*
X84983856Y-65867385D01*
X84983856Y-65867385D02*
X84952428Y-65835957D01*
X84952428Y-65835957D02*
X84889570Y-65804528D01*
X84260999Y-65804528D02*
X84198142Y-65804528D01*
X84198142Y-65804528D02*
X84135285Y-65835957D01*
X84135285Y-65835957D02*
X84103857Y-65867385D01*
X84103857Y-65867385D02*
X84072428Y-65930242D01*
X84072428Y-65930242D02*
X84040999Y-66055957D01*
X84040999Y-66055957D02*
X84040999Y-66213100D01*
X84040999Y-66213100D02*
X84072428Y-66338814D01*
X84072428Y-66338814D02*
X84103857Y-66401671D01*
X84103857Y-66401671D02*
X84135285Y-66433100D01*
X84135285Y-66433100D02*
X84198142Y-66464528D01*
X84198142Y-66464528D02*
X84260999Y-66464528D01*
X84260999Y-66464528D02*
X84323857Y-66433100D01*
X84323857Y-66433100D02*
X84355285Y-66401671D01*
X84355285Y-66401671D02*
X84386714Y-66338814D01*
X84386714Y-66338814D02*
X84418142Y-66213100D01*
X84418142Y-66213100D02*
X84418142Y-66055957D01*
X84418142Y-66055957D02*
X84386714Y-65930242D01*
X84386714Y-65930242D02*
X84355285Y-65867385D01*
X84355285Y-65867385D02*
X84323857Y-65835957D01*
X84323857Y-65835957D02*
X84260999Y-65804528D01*
X83758143Y-66213100D02*
X83255286Y-66213100D01*
X83003857Y-65804528D02*
X82563857Y-66464528D01*
X82563857Y-65804528D02*
X83003857Y-66464528D01*
X81935286Y-66464528D02*
X82155286Y-66150242D01*
X82312429Y-66464528D02*
X82312429Y-65804528D01*
X82312429Y-65804528D02*
X82061000Y-65804528D01*
X82061000Y-65804528D02*
X81998143Y-65835957D01*
X81998143Y-65835957D02*
X81966714Y-65867385D01*
X81966714Y-65867385D02*
X81935286Y-65930242D01*
X81935286Y-65930242D02*
X81935286Y-66024528D01*
X81935286Y-66024528D02*
X81966714Y-66087385D01*
X81966714Y-66087385D02*
X81998143Y-66118814D01*
X81998143Y-66118814D02*
X82061000Y-66150242D01*
X82061000Y-66150242D02*
X82312429Y-66150242D01*
X81401000Y-66433100D02*
X81463857Y-66464528D01*
X81463857Y-66464528D02*
X81589572Y-66464528D01*
X81589572Y-66464528D02*
X81652429Y-66433100D01*
X81652429Y-66433100D02*
X81683857Y-66370242D01*
X81683857Y-66370242D02*
X81683857Y-66118814D01*
X81683857Y-66118814D02*
X81652429Y-66055957D01*
X81652429Y-66055957D02*
X81589572Y-66024528D01*
X81589572Y-66024528D02*
X81463857Y-66024528D01*
X81463857Y-66024528D02*
X81401000Y-66055957D01*
X81401000Y-66055957D02*
X81369572Y-66118814D01*
X81369572Y-66118814D02*
X81369572Y-66181671D01*
X81369572Y-66181671D02*
X81683857Y-66244528D01*
X81149572Y-66024528D02*
X80992429Y-66464528D01*
X80992429Y-66464528D02*
X80835286Y-66024528D01*
X80615286Y-66275957D02*
X80301001Y-66275957D01*
X80678143Y-66464528D02*
X80458143Y-65804528D01*
X80458143Y-65804528D02*
X80238143Y-66464528D01*
X96910524Y-98846217D02*
X96910524Y-99560502D01*
X96910524Y-99560502D02*
X96958143Y-99703359D01*
X96958143Y-99703359D02*
X97053381Y-99798598D01*
X97053381Y-99798598D02*
X97196238Y-99846217D01*
X97196238Y-99846217D02*
X97291476Y-99846217D01*
X95958143Y-98846217D02*
X96434333Y-98846217D01*
X96434333Y-98846217D02*
X96481952Y-99322407D01*
X96481952Y-99322407D02*
X96434333Y-99274788D01*
X96434333Y-99274788D02*
X96339095Y-99227169D01*
X96339095Y-99227169D02*
X96101000Y-99227169D01*
X96101000Y-99227169D02*
X96005762Y-99274788D01*
X96005762Y-99274788D02*
X95958143Y-99322407D01*
X95958143Y-99322407D02*
X95910524Y-99417645D01*
X95910524Y-99417645D02*
X95910524Y-99655740D01*
X95910524Y-99655740D02*
X95958143Y-99750978D01*
X95958143Y-99750978D02*
X96005762Y-99798598D01*
X96005762Y-99798598D02*
X96101000Y-99846217D01*
X96101000Y-99846217D02*
X96339095Y-99846217D01*
X96339095Y-99846217D02*
X96434333Y-99798598D01*
X96434333Y-99798598D02*
X96481952Y-99750978D01*
X81333333Y-98854819D02*
X81333333Y-99569104D01*
X81333333Y-99569104D02*
X81380952Y-99711961D01*
X81380952Y-99711961D02*
X81476190Y-99807200D01*
X81476190Y-99807200D02*
X81619047Y-99854819D01*
X81619047Y-99854819D02*
X81714285Y-99854819D01*
X80428571Y-99188152D02*
X80428571Y-99854819D01*
X80666666Y-98807200D02*
X80904761Y-99521485D01*
X80904761Y-99521485D02*
X80285714Y-99521485D01*
X100536333Y-87465819D02*
X100536333Y-88180104D01*
X100536333Y-88180104D02*
X100583952Y-88322961D01*
X100583952Y-88322961D02*
X100679190Y-88418200D01*
X100679190Y-88418200D02*
X100822047Y-88465819D01*
X100822047Y-88465819D02*
X100917285Y-88465819D01*
X100107761Y-87561057D02*
X100060142Y-87513438D01*
X100060142Y-87513438D02*
X99964904Y-87465819D01*
X99964904Y-87465819D02*
X99726809Y-87465819D01*
X99726809Y-87465819D02*
X99631571Y-87513438D01*
X99631571Y-87513438D02*
X99583952Y-87561057D01*
X99583952Y-87561057D02*
X99536333Y-87656295D01*
X99536333Y-87656295D02*
X99536333Y-87751533D01*
X99536333Y-87751533D02*
X99583952Y-87894390D01*
X99583952Y-87894390D02*
X100155380Y-88465819D01*
X100155380Y-88465819D02*
X99536333Y-88465819D01*
D11*
X83724949Y-89760060D02*
X83724949Y-90083870D01*
X83724949Y-90083870D02*
X83705902Y-90121965D01*
X83705902Y-90121965D02*
X83686854Y-90141013D01*
X83686854Y-90141013D02*
X83648759Y-90160060D01*
X83648759Y-90160060D02*
X83572568Y-90160060D01*
X83572568Y-90160060D02*
X83534473Y-90141013D01*
X83534473Y-90141013D02*
X83515426Y-90121965D01*
X83515426Y-90121965D02*
X83496378Y-90083870D01*
X83496378Y-90083870D02*
X83496378Y-89760060D01*
X83343997Y-89760060D02*
X83096378Y-89760060D01*
X83096378Y-89760060D02*
X83229711Y-89912441D01*
X83229711Y-89912441D02*
X83172568Y-89912441D01*
X83172568Y-89912441D02*
X83134473Y-89931489D01*
X83134473Y-89931489D02*
X83115425Y-89950536D01*
X83115425Y-89950536D02*
X83096378Y-89988632D01*
X83096378Y-89988632D02*
X83096378Y-90083870D01*
X83096378Y-90083870D02*
X83115425Y-90121965D01*
X83115425Y-90121965D02*
X83134473Y-90141013D01*
X83134473Y-90141013D02*
X83172568Y-90160060D01*
X83172568Y-90160060D02*
X83286854Y-90160060D01*
X83286854Y-90160060D02*
X83324949Y-90141013D01*
X83324949Y-90141013D02*
X83343997Y-90121965D01*
D12*
%TO.C,J1*%
X93262000Y-54373000D02*
X78262000Y-54373000D01*
X93262000Y-54373000D02*
X93262000Y-57303000D01*
X78262000Y-54373000D02*
X78262000Y-54698000D01*
X78262000Y-54698000D02*
X76912000Y-54698000D01*
X76912000Y-54698000D02*
X76912000Y-57628000D01*
X78062000Y-57628000D02*
X76912000Y-57628000D01*
X78062000Y-57628000D02*
X78062000Y-65818000D01*
X78062000Y-65818000D02*
X76912000Y-65818000D01*
X76912000Y-65818000D02*
X76912000Y-68748000D01*
X93262000Y-66143000D02*
X93262000Y-69073000D01*
X78262000Y-68748000D02*
X76912000Y-68748000D01*
X78262000Y-68748000D02*
X78262000Y-69073000D01*
X93262000Y-69073000D02*
X78262000Y-69073000D01*
X93262000Y-57303000D02*
G75*
G03*
X93262000Y-66143000I7540159J-4420000D01*
G01*
%TO.C,J5*%
X101652191Y-98891398D02*
X101452191Y-99091398D01*
X101652191Y-97091398D02*
X101652191Y-98891398D01*
X101452191Y-99691398D02*
X99952191Y-99691398D01*
X101452191Y-99091398D02*
X101452191Y-99691398D01*
X101452191Y-96891398D02*
X101652191Y-97091398D01*
X99952191Y-100091398D02*
X93202191Y-100091398D01*
X99952191Y-96891398D02*
X101452191Y-96891398D01*
X99952191Y-95891398D02*
X99952191Y-100091398D01*
X99952191Y-95891398D02*
X93202191Y-95891398D01*
X98952191Y-95891398D02*
X98452191Y-96598505D01*
X98452191Y-96598505D02*
X97952191Y-95891398D01*
X93202191Y-96891398D02*
X91702191Y-96891398D01*
X93202191Y-95891398D02*
X93202191Y-100091398D01*
X91702191Y-99691398D02*
X93202191Y-99691398D01*
X91702191Y-99091398D02*
X91702191Y-99691398D01*
X91702191Y-96891398D02*
X91502191Y-97091398D01*
X91502191Y-98891398D02*
X91702191Y-99091398D01*
X91502191Y-97091398D02*
X91502191Y-98891398D01*
%TO.C,J4*%
X84825000Y-98900000D02*
X84625000Y-99100000D01*
X84825000Y-97100000D02*
X84825000Y-98900000D01*
X84625000Y-99700000D02*
X83125000Y-99700000D01*
X84625000Y-99100000D02*
X84625000Y-99700000D01*
X84625000Y-96900000D02*
X84825000Y-97100000D01*
X83125000Y-100100000D02*
X78875000Y-100100000D01*
X83125000Y-96900000D02*
X84625000Y-96900000D01*
X83125000Y-95900000D02*
X83125000Y-100100000D01*
X83125000Y-95900000D02*
X78875000Y-95900000D01*
X82125000Y-95900000D02*
X81625000Y-96607107D01*
X81625000Y-96607107D02*
X81125000Y-95900000D01*
X78875000Y-96900000D02*
X77375000Y-96900000D01*
X78875000Y-95900000D02*
X78875000Y-100100000D01*
X77375000Y-99700000D02*
X78875000Y-99700000D01*
X77375000Y-99100000D02*
X77375000Y-99700000D01*
X77375000Y-96900000D02*
X77175000Y-97100000D01*
X77175000Y-98900000D02*
X77375000Y-99100000D01*
X77175000Y-97100000D02*
X77175000Y-98900000D01*
D13*
%TO.C,C4*%
X79190000Y-89548227D02*
X79190000Y-90310227D01*
X80510000Y-89573227D02*
X80510000Y-90310227D01*
G36*
X80573900Y-89587127D02*
G01*
X79123800Y-89587127D01*
X79123800Y-88837027D01*
X80573900Y-88837027D01*
X80573900Y-89587127D01*
G37*
G36*
X80573900Y-91034927D02*
G01*
X79123800Y-91034927D01*
X79123800Y-90284827D01*
X80573900Y-90284827D01*
X80573900Y-91034927D01*
G37*
D12*
%TO.C,J2*%
X101425000Y-75233000D02*
X86925000Y-75233000D01*
X101425000Y-75233000D02*
X101425000Y-88833000D01*
X86925000Y-75233000D02*
X86925000Y-88833000D01*
X86925000Y-88833000D02*
X101425000Y-88833000D01*
%TO.C,U3*%
X84220188Y-91428133D02*
X84220188Y-88928133D01*
X84220188Y-88928133D02*
X83820188Y-88528133D01*
X83820188Y-88528133D02*
X82620188Y-88528133D01*
X82620188Y-91428133D02*
X84220188Y-91428133D01*
X82620188Y-88528133D02*
X82620188Y-91428133D01*
D13*
%TO.C,R8*%
X80760275Y-87397523D02*
X80048275Y-87397523D01*
X80760275Y-86546523D02*
X80048275Y-86546523D01*
G36*
X81242475Y-87448423D02*
G01*
X80742375Y-87448423D01*
X80742375Y-86498423D01*
X81242475Y-86498423D01*
X81242475Y-87448423D01*
G37*
G36*
X80074075Y-87448423D02*
G01*
X79573975Y-87448423D01*
X79573975Y-86498423D01*
X80074075Y-86498423D01*
X80074075Y-87448423D01*
G37*
%TO.C,R7*%
X83494000Y-86581000D02*
X84206000Y-86581000D01*
X83494000Y-87432000D02*
X84206000Y-87432000D01*
G36*
X83511900Y-87480100D02*
G01*
X83011800Y-87480100D01*
X83011800Y-86530100D01*
X83511900Y-86530100D01*
X83511900Y-87480100D01*
G37*
G36*
X84680300Y-87480100D02*
G01*
X84180200Y-87480100D01*
X84180200Y-86530100D01*
X84680300Y-86530100D01*
X84680300Y-87480100D01*
G37*
%TD*%
M02*
