%TF.GenerationSoftware,KiCad,Pcbnew,7.0.8*%
%TF.CreationDate,2023-10-19T11:53:07-06:00*%
%TF.ProjectId,air_station_1v5,6169725f-7374-4617-9469-6f6e5f317635,rev?*%
%TF.SameCoordinates,Original*%
%TF.FileFunction,Legend,Top*%
%TF.FilePolarity,Positive*%
%FSLAX46Y46*%
G04 Gerber Fmt 4.6, Leading zero omitted, Abs format (unit mm)*
G04 Created by KiCad (PCBNEW 7.0.8) date 2023-10-19 11:53:07*
%MOMM*%
%LPD*%
G01*
G04 APERTURE LIST*
%ADD10C,0.150000*%
%ADD11C,0.142240*%
%ADD12C,0.146304*%
%ADD13C,0.040640*%
%ADD14C,0.121920*%
%ADD15C,0.063500*%
%ADD16C,0.097536*%
%ADD17C,0.152400*%
%ADD18C,0.304800*%
%ADD19C,0.127000*%
%ADD20C,0.120000*%
%ADD21C,0.203200*%
G04 APERTURE END LIST*
D10*
X81662826Y-89406042D02*
X81662826Y-88416042D01*
X81662826Y-88416042D02*
X81914255Y-88416042D01*
X81914255Y-88416042D02*
X81977112Y-88463185D01*
X81977112Y-88463185D02*
X82008541Y-88510328D01*
X82008541Y-88510328D02*
X82039969Y-88604614D01*
X82039969Y-88604614D02*
X82039969Y-88746042D01*
X82039969Y-88746042D02*
X82008541Y-88840328D01*
X82008541Y-88840328D02*
X81977112Y-88887471D01*
X81977112Y-88887471D02*
X81914255Y-88934614D01*
X81914255Y-88934614D02*
X81662826Y-88934614D01*
X82322826Y-89406042D02*
X82322826Y-88746042D01*
X82322826Y-88416042D02*
X82291398Y-88463185D01*
X82291398Y-88463185D02*
X82322826Y-88510328D01*
X82322826Y-88510328D02*
X82354255Y-88463185D01*
X82354255Y-88463185D02*
X82322826Y-88416042D01*
X82322826Y-88416042D02*
X82322826Y-88510328D01*
X82919970Y-88746042D02*
X82919970Y-89547471D01*
X82919970Y-89547471D02*
X82888541Y-89641757D01*
X82888541Y-89641757D02*
X82857112Y-89688900D01*
X82857112Y-89688900D02*
X82794255Y-89736042D01*
X82794255Y-89736042D02*
X82699970Y-89736042D01*
X82699970Y-89736042D02*
X82637112Y-89688900D01*
X82919970Y-89358900D02*
X82857112Y-89406042D01*
X82857112Y-89406042D02*
X82731398Y-89406042D01*
X82731398Y-89406042D02*
X82668541Y-89358900D01*
X82668541Y-89358900D02*
X82637112Y-89311757D01*
X82637112Y-89311757D02*
X82605684Y-89217471D01*
X82605684Y-89217471D02*
X82605684Y-88934614D01*
X82605684Y-88934614D02*
X82637112Y-88840328D01*
X82637112Y-88840328D02*
X82668541Y-88793185D01*
X82668541Y-88793185D02*
X82731398Y-88746042D01*
X82731398Y-88746042D02*
X82857112Y-88746042D01*
X82857112Y-88746042D02*
X82919970Y-88793185D01*
X83485684Y-89358900D02*
X83422827Y-89406042D01*
X83422827Y-89406042D02*
X83297113Y-89406042D01*
X83297113Y-89406042D02*
X83234255Y-89358900D01*
X83234255Y-89358900D02*
X83202827Y-89264614D01*
X83202827Y-89264614D02*
X83202827Y-88887471D01*
X83202827Y-88887471D02*
X83234255Y-88793185D01*
X83234255Y-88793185D02*
X83297113Y-88746042D01*
X83297113Y-88746042D02*
X83422827Y-88746042D01*
X83422827Y-88746042D02*
X83485684Y-88793185D01*
X83485684Y-88793185D02*
X83517113Y-88887471D01*
X83517113Y-88887471D02*
X83517113Y-88981757D01*
X83517113Y-88981757D02*
X83202827Y-89076042D01*
X83894255Y-89406042D02*
X83831398Y-89358900D01*
X83831398Y-89358900D02*
X83799969Y-89311757D01*
X83799969Y-89311757D02*
X83768541Y-89217471D01*
X83768541Y-89217471D02*
X83768541Y-88934614D01*
X83768541Y-88934614D02*
X83799969Y-88840328D01*
X83799969Y-88840328D02*
X83831398Y-88793185D01*
X83831398Y-88793185D02*
X83894255Y-88746042D01*
X83894255Y-88746042D02*
X83988541Y-88746042D01*
X83988541Y-88746042D02*
X84051398Y-88793185D01*
X84051398Y-88793185D02*
X84082827Y-88840328D01*
X84082827Y-88840328D02*
X84114255Y-88934614D01*
X84114255Y-88934614D02*
X84114255Y-89217471D01*
X84114255Y-89217471D02*
X84082827Y-89311757D01*
X84082827Y-89311757D02*
X84051398Y-89358900D01*
X84051398Y-89358900D02*
X83988541Y-89406042D01*
X83988541Y-89406042D02*
X83894255Y-89406042D01*
X84397112Y-88746042D02*
X84397112Y-89406042D01*
X84397112Y-88840328D02*
X84428541Y-88793185D01*
X84428541Y-88793185D02*
X84491398Y-88746042D01*
X84491398Y-88746042D02*
X84585684Y-88746042D01*
X84585684Y-88746042D02*
X84648541Y-88793185D01*
X84648541Y-88793185D02*
X84679970Y-88887471D01*
X84679970Y-88887471D02*
X84679970Y-89406042D01*
X85214255Y-88887471D02*
X85308541Y-88934614D01*
X85308541Y-88934614D02*
X85339970Y-88981757D01*
X85339970Y-88981757D02*
X85371398Y-89076042D01*
X85371398Y-89076042D02*
X85371398Y-89217471D01*
X85371398Y-89217471D02*
X85339970Y-89311757D01*
X85339970Y-89311757D02*
X85308541Y-89358900D01*
X85308541Y-89358900D02*
X85245684Y-89406042D01*
X85245684Y-89406042D02*
X84994255Y-89406042D01*
X84994255Y-89406042D02*
X84994255Y-88416042D01*
X84994255Y-88416042D02*
X85214255Y-88416042D01*
X85214255Y-88416042D02*
X85277113Y-88463185D01*
X85277113Y-88463185D02*
X85308541Y-88510328D01*
X85308541Y-88510328D02*
X85339970Y-88604614D01*
X85339970Y-88604614D02*
X85339970Y-88698900D01*
X85339970Y-88698900D02*
X85308541Y-88793185D01*
X85308541Y-88793185D02*
X85277113Y-88840328D01*
X85277113Y-88840328D02*
X85214255Y-88887471D01*
X85214255Y-88887471D02*
X84994255Y-88887471D01*
X85748541Y-89406042D02*
X85685684Y-89358900D01*
X85685684Y-89358900D02*
X85654255Y-89311757D01*
X85654255Y-89311757D02*
X85622827Y-89217471D01*
X85622827Y-89217471D02*
X85622827Y-88934614D01*
X85622827Y-88934614D02*
X85654255Y-88840328D01*
X85654255Y-88840328D02*
X85685684Y-88793185D01*
X85685684Y-88793185D02*
X85748541Y-88746042D01*
X85748541Y-88746042D02*
X85842827Y-88746042D01*
X85842827Y-88746042D02*
X85905684Y-88793185D01*
X85905684Y-88793185D02*
X85937113Y-88840328D01*
X85937113Y-88840328D02*
X85968541Y-88934614D01*
X85968541Y-88934614D02*
X85968541Y-89217471D01*
X85968541Y-89217471D02*
X85937113Y-89311757D01*
X85937113Y-89311757D02*
X85905684Y-89358900D01*
X85905684Y-89358900D02*
X85842827Y-89406042D01*
X85842827Y-89406042D02*
X85748541Y-89406042D01*
X86534256Y-89406042D02*
X86534256Y-88887471D01*
X86534256Y-88887471D02*
X86502827Y-88793185D01*
X86502827Y-88793185D02*
X86439970Y-88746042D01*
X86439970Y-88746042D02*
X86314256Y-88746042D01*
X86314256Y-88746042D02*
X86251398Y-88793185D01*
X86534256Y-89358900D02*
X86471398Y-89406042D01*
X86471398Y-89406042D02*
X86314256Y-89406042D01*
X86314256Y-89406042D02*
X86251398Y-89358900D01*
X86251398Y-89358900D02*
X86219970Y-89264614D01*
X86219970Y-89264614D02*
X86219970Y-89170328D01*
X86219970Y-89170328D02*
X86251398Y-89076042D01*
X86251398Y-89076042D02*
X86314256Y-89028900D01*
X86314256Y-89028900D02*
X86471398Y-89028900D01*
X86471398Y-89028900D02*
X86534256Y-88981757D01*
X86848541Y-89406042D02*
X86848541Y-88746042D01*
X86848541Y-88934614D02*
X86879970Y-88840328D01*
X86879970Y-88840328D02*
X86911399Y-88793185D01*
X86911399Y-88793185D02*
X86974256Y-88746042D01*
X86974256Y-88746042D02*
X87037113Y-88746042D01*
X87539970Y-89406042D02*
X87539970Y-88416042D01*
X87539970Y-89358900D02*
X87477112Y-89406042D01*
X87477112Y-89406042D02*
X87351398Y-89406042D01*
X87351398Y-89406042D02*
X87288541Y-89358900D01*
X87288541Y-89358900D02*
X87257112Y-89311757D01*
X87257112Y-89311757D02*
X87225684Y-89217471D01*
X87225684Y-89217471D02*
X87225684Y-88934614D01*
X87225684Y-88934614D02*
X87257112Y-88840328D01*
X87257112Y-88840328D02*
X87288541Y-88793185D01*
X87288541Y-88793185D02*
X87351398Y-88746042D01*
X87351398Y-88746042D02*
X87477112Y-88746042D01*
X87477112Y-88746042D02*
X87539970Y-88793185D01*
X87697113Y-89500328D02*
X88199970Y-89500328D01*
X88325684Y-88510328D02*
X88357112Y-88463185D01*
X88357112Y-88463185D02*
X88419970Y-88416042D01*
X88419970Y-88416042D02*
X88577112Y-88416042D01*
X88577112Y-88416042D02*
X88639970Y-88463185D01*
X88639970Y-88463185D02*
X88671398Y-88510328D01*
X88671398Y-88510328D02*
X88702827Y-88604614D01*
X88702827Y-88604614D02*
X88702827Y-88698900D01*
X88702827Y-88698900D02*
X88671398Y-88840328D01*
X88671398Y-88840328D02*
X88294255Y-89406042D01*
X88294255Y-89406042D02*
X88702827Y-89406042D01*
X88985683Y-89311757D02*
X89017112Y-89358900D01*
X89017112Y-89358900D02*
X88985683Y-89406042D01*
X88985683Y-89406042D02*
X88954255Y-89358900D01*
X88954255Y-89358900D02*
X88985683Y-89311757D01*
X88985683Y-89311757D02*
X88985683Y-89406042D01*
X89425684Y-88416042D02*
X89488541Y-88416042D01*
X89488541Y-88416042D02*
X89551398Y-88463185D01*
X89551398Y-88463185D02*
X89582827Y-88510328D01*
X89582827Y-88510328D02*
X89614255Y-88604614D01*
X89614255Y-88604614D02*
X89645684Y-88793185D01*
X89645684Y-88793185D02*
X89645684Y-89028900D01*
X89645684Y-89028900D02*
X89614255Y-89217471D01*
X89614255Y-89217471D02*
X89582827Y-89311757D01*
X89582827Y-89311757D02*
X89551398Y-89358900D01*
X89551398Y-89358900D02*
X89488541Y-89406042D01*
X89488541Y-89406042D02*
X89425684Y-89406042D01*
X89425684Y-89406042D02*
X89362827Y-89358900D01*
X89362827Y-89358900D02*
X89331398Y-89311757D01*
X89331398Y-89311757D02*
X89299969Y-89217471D01*
X89299969Y-89217471D02*
X89268541Y-89028900D01*
X89268541Y-89028900D02*
X89268541Y-88793185D01*
X89268541Y-88793185D02*
X89299969Y-88604614D01*
X89299969Y-88604614D02*
X89331398Y-88510328D01*
X89331398Y-88510328D02*
X89362827Y-88463185D01*
X89362827Y-88463185D02*
X89425684Y-88416042D01*
D11*
X88183876Y-57447017D02*
X88623876Y-58107017D01*
X88623876Y-57447017D02*
X88183876Y-58107017D01*
X89221019Y-58107017D02*
X88843876Y-58107017D01*
X89032447Y-58107017D02*
X89032447Y-57447017D01*
X89032447Y-57447017D02*
X88969590Y-57541303D01*
X88969590Y-57541303D02*
X88906733Y-57604160D01*
X88906733Y-57604160D02*
X88843876Y-57635589D01*
X85594720Y-58875117D02*
X85814720Y-58875117D01*
X85909006Y-59220831D02*
X85594720Y-59220831D01*
X85594720Y-59220831D02*
X85594720Y-58560831D01*
X85594720Y-58560831D02*
X85909006Y-58560831D01*
X86191863Y-59220831D02*
X86191863Y-58560831D01*
X86191863Y-58560831D02*
X86569006Y-59220831D01*
X86569006Y-59220831D02*
X86569006Y-58560831D01*
X86851864Y-59189403D02*
X86946150Y-59220831D01*
X86946150Y-59220831D02*
X87103292Y-59220831D01*
X87103292Y-59220831D02*
X87166150Y-59189403D01*
X87166150Y-59189403D02*
X87197578Y-59157974D01*
X87197578Y-59157974D02*
X87229007Y-59095117D01*
X87229007Y-59095117D02*
X87229007Y-59032260D01*
X87229007Y-59032260D02*
X87197578Y-58969403D01*
X87197578Y-58969403D02*
X87166150Y-58937974D01*
X87166150Y-58937974D02*
X87103292Y-58906545D01*
X87103292Y-58906545D02*
X86977578Y-58875117D01*
X86977578Y-58875117D02*
X86914721Y-58843688D01*
X86914721Y-58843688D02*
X86883292Y-58812260D01*
X86883292Y-58812260D02*
X86851864Y-58749403D01*
X86851864Y-58749403D02*
X86851864Y-58686545D01*
X86851864Y-58686545D02*
X86883292Y-58623688D01*
X86883292Y-58623688D02*
X86914721Y-58592260D01*
X86914721Y-58592260D02*
X86977578Y-58560831D01*
X86977578Y-58560831D02*
X87134721Y-58560831D01*
X87134721Y-58560831D02*
X87229007Y-58592260D01*
X87857578Y-59220831D02*
X87480435Y-59220831D01*
X87669006Y-59220831D02*
X87669006Y-58560831D01*
X87669006Y-58560831D02*
X87606149Y-58655117D01*
X87606149Y-58655117D02*
X87543292Y-58717974D01*
X87543292Y-58717974D02*
X87480435Y-58749403D01*
X88423292Y-58560831D02*
X88297577Y-58560831D01*
X88297577Y-58560831D02*
X88234720Y-58592260D01*
X88234720Y-58592260D02*
X88203292Y-58623688D01*
X88203292Y-58623688D02*
X88140434Y-58717974D01*
X88140434Y-58717974D02*
X88109006Y-58843688D01*
X88109006Y-58843688D02*
X88109006Y-59095117D01*
X88109006Y-59095117D02*
X88140434Y-59157974D01*
X88140434Y-59157974D02*
X88171863Y-59189403D01*
X88171863Y-59189403D02*
X88234720Y-59220831D01*
X88234720Y-59220831D02*
X88360434Y-59220831D01*
X88360434Y-59220831D02*
X88423292Y-59189403D01*
X88423292Y-59189403D02*
X88454720Y-59157974D01*
X88454720Y-59157974D02*
X88486149Y-59095117D01*
X88486149Y-59095117D02*
X88486149Y-58937974D01*
X88486149Y-58937974D02*
X88454720Y-58875117D01*
X88454720Y-58875117D02*
X88423292Y-58843688D01*
X88423292Y-58843688D02*
X88360434Y-58812260D01*
X88360434Y-58812260D02*
X88234720Y-58812260D01*
X88234720Y-58812260D02*
X88171863Y-58843688D01*
X88171863Y-58843688D02*
X88140434Y-58875117D01*
X88140434Y-58875117D02*
X88109006Y-58937974D01*
X88894720Y-58560831D02*
X88957577Y-58560831D01*
X88957577Y-58560831D02*
X89020434Y-58592260D01*
X89020434Y-58592260D02*
X89051863Y-58623688D01*
X89051863Y-58623688D02*
X89083291Y-58686545D01*
X89083291Y-58686545D02*
X89114720Y-58812260D01*
X89114720Y-58812260D02*
X89114720Y-58969403D01*
X89114720Y-58969403D02*
X89083291Y-59095117D01*
X89083291Y-59095117D02*
X89051863Y-59157974D01*
X89051863Y-59157974D02*
X89020434Y-59189403D01*
X89020434Y-59189403D02*
X88957577Y-59220831D01*
X88957577Y-59220831D02*
X88894720Y-59220831D01*
X88894720Y-59220831D02*
X88831863Y-59189403D01*
X88831863Y-59189403D02*
X88800434Y-59157974D01*
X88800434Y-59157974D02*
X88769005Y-59095117D01*
X88769005Y-59095117D02*
X88737577Y-58969403D01*
X88737577Y-58969403D02*
X88737577Y-58812260D01*
X88737577Y-58812260D02*
X88769005Y-58686545D01*
X88769005Y-58686545D02*
X88800434Y-58623688D01*
X88800434Y-58623688D02*
X88831863Y-58592260D01*
X88831863Y-58592260D02*
X88894720Y-58560831D01*
D12*
X79914038Y-93128825D02*
X79691873Y-92811446D01*
X79533183Y-93128825D02*
X79533183Y-92462329D01*
X79533183Y-92462329D02*
X79787086Y-92462329D01*
X79787086Y-92462329D02*
X79850562Y-92494067D01*
X79850562Y-92494067D02*
X79882300Y-92525805D01*
X79882300Y-92525805D02*
X79914038Y-92589281D01*
X79914038Y-92589281D02*
X79914038Y-92684495D01*
X79914038Y-92684495D02*
X79882300Y-92747971D01*
X79882300Y-92747971D02*
X79850562Y-92779708D01*
X79850562Y-92779708D02*
X79787086Y-92811446D01*
X79787086Y-92811446D02*
X79533183Y-92811446D01*
X80485320Y-92684495D02*
X80485320Y-93128825D01*
X80326631Y-92430592D02*
X80167941Y-92906660D01*
X80167941Y-92906660D02*
X80580534Y-92906660D01*
D13*
X79740149Y-93679124D02*
X79531143Y-93679124D01*
X79635646Y-93679124D02*
X79635646Y-93313364D01*
X79635646Y-93313364D02*
X79600812Y-93365615D01*
X79600812Y-93365615D02*
X79565977Y-93400449D01*
X79565977Y-93400449D02*
X79531143Y-93417867D01*
X79966572Y-93313364D02*
X80001406Y-93313364D01*
X80001406Y-93313364D02*
X80036240Y-93330781D01*
X80036240Y-93330781D02*
X80053658Y-93348198D01*
X80053658Y-93348198D02*
X80071075Y-93383032D01*
X80071075Y-93383032D02*
X80088492Y-93452701D01*
X80088492Y-93452701D02*
X80088492Y-93539787D01*
X80088492Y-93539787D02*
X80071075Y-93609455D01*
X80071075Y-93609455D02*
X80053658Y-93644289D01*
X80053658Y-93644289D02*
X80036240Y-93661707D01*
X80036240Y-93661707D02*
X80001406Y-93679124D01*
X80001406Y-93679124D02*
X79966572Y-93679124D01*
X79966572Y-93679124D02*
X79931738Y-93661707D01*
X79931738Y-93661707D02*
X79914320Y-93644289D01*
X79914320Y-93644289D02*
X79896903Y-93609455D01*
X79896903Y-93609455D02*
X79879486Y-93539787D01*
X79879486Y-93539787D02*
X79879486Y-93452701D01*
X79879486Y-93452701D02*
X79896903Y-93383032D01*
X79896903Y-93383032D02*
X79914320Y-93348198D01*
X79914320Y-93348198D02*
X79931738Y-93330781D01*
X79931738Y-93330781D02*
X79966572Y-93313364D01*
X80314915Y-93313364D02*
X80349749Y-93313364D01*
X80349749Y-93313364D02*
X80384583Y-93330781D01*
X80384583Y-93330781D02*
X80402001Y-93348198D01*
X80402001Y-93348198D02*
X80419418Y-93383032D01*
X80419418Y-93383032D02*
X80436835Y-93452701D01*
X80436835Y-93452701D02*
X80436835Y-93539787D01*
X80436835Y-93539787D02*
X80419418Y-93609455D01*
X80419418Y-93609455D02*
X80402001Y-93644289D01*
X80402001Y-93644289D02*
X80384583Y-93661707D01*
X80384583Y-93661707D02*
X80349749Y-93679124D01*
X80349749Y-93679124D02*
X80314915Y-93679124D01*
X80314915Y-93679124D02*
X80280081Y-93661707D01*
X80280081Y-93661707D02*
X80262663Y-93644289D01*
X80262663Y-93644289D02*
X80245246Y-93609455D01*
X80245246Y-93609455D02*
X80227829Y-93539787D01*
X80227829Y-93539787D02*
X80227829Y-93452701D01*
X80227829Y-93452701D02*
X80245246Y-93383032D01*
X80245246Y-93383032D02*
X80262663Y-93348198D01*
X80262663Y-93348198D02*
X80280081Y-93330781D01*
X80280081Y-93330781D02*
X80314915Y-93313364D01*
X80593589Y-93679124D02*
X80593589Y-93313364D01*
X80802595Y-93679124D02*
X80645841Y-93470118D01*
X80802595Y-93313364D02*
X80593589Y-93522369D01*
D10*
X95724541Y-53130857D02*
X95661684Y-53099428D01*
X95661684Y-53099428D02*
X95567398Y-53099428D01*
X95567398Y-53099428D02*
X95473112Y-53130857D01*
X95473112Y-53130857D02*
X95410255Y-53193714D01*
X95410255Y-53193714D02*
X95378826Y-53256571D01*
X95378826Y-53256571D02*
X95347398Y-53382285D01*
X95347398Y-53382285D02*
X95347398Y-53476571D01*
X95347398Y-53476571D02*
X95378826Y-53602285D01*
X95378826Y-53602285D02*
X95410255Y-53665142D01*
X95410255Y-53665142D02*
X95473112Y-53728000D01*
X95473112Y-53728000D02*
X95567398Y-53759428D01*
X95567398Y-53759428D02*
X95630255Y-53759428D01*
X95630255Y-53759428D02*
X95724541Y-53728000D01*
X95724541Y-53728000D02*
X95755969Y-53696571D01*
X95755969Y-53696571D02*
X95755969Y-53476571D01*
X95755969Y-53476571D02*
X95630255Y-53476571D01*
X96038826Y-53759428D02*
X96038826Y-53099428D01*
X96038826Y-53099428D02*
X96290255Y-53099428D01*
X96290255Y-53099428D02*
X96353112Y-53130857D01*
X96353112Y-53130857D02*
X96384541Y-53162285D01*
X96384541Y-53162285D02*
X96415969Y-53225142D01*
X96415969Y-53225142D02*
X96415969Y-53319428D01*
X96415969Y-53319428D02*
X96384541Y-53382285D01*
X96384541Y-53382285D02*
X96353112Y-53413714D01*
X96353112Y-53413714D02*
X96290255Y-53445142D01*
X96290255Y-53445142D02*
X96038826Y-53445142D01*
X96667398Y-53728000D02*
X96761684Y-53759428D01*
X96761684Y-53759428D02*
X96918826Y-53759428D01*
X96918826Y-53759428D02*
X96981684Y-53728000D01*
X96981684Y-53728000D02*
X97013112Y-53696571D01*
X97013112Y-53696571D02*
X97044541Y-53633714D01*
X97044541Y-53633714D02*
X97044541Y-53570857D01*
X97044541Y-53570857D02*
X97013112Y-53508000D01*
X97013112Y-53508000D02*
X96981684Y-53476571D01*
X96981684Y-53476571D02*
X96918826Y-53445142D01*
X96918826Y-53445142D02*
X96793112Y-53413714D01*
X96793112Y-53413714D02*
X96730255Y-53382285D01*
X96730255Y-53382285D02*
X96698826Y-53350857D01*
X96698826Y-53350857D02*
X96667398Y-53288000D01*
X96667398Y-53288000D02*
X96667398Y-53225142D01*
X96667398Y-53225142D02*
X96698826Y-53162285D01*
X96698826Y-53162285D02*
X96730255Y-53130857D01*
X96730255Y-53130857D02*
X96793112Y-53099428D01*
X96793112Y-53099428D02*
X96950255Y-53099428D01*
X96950255Y-53099428D02*
X97044541Y-53130857D01*
X97170255Y-53822285D02*
X97673112Y-53822285D01*
X97798826Y-53570857D02*
X98113112Y-53570857D01*
X97735969Y-53759428D02*
X97955969Y-53099428D01*
X97955969Y-53099428D02*
X98175969Y-53759428D01*
X98395968Y-53759428D02*
X98395968Y-53099428D01*
X98395968Y-53099428D02*
X98773111Y-53759428D01*
X98773111Y-53759428D02*
X98773111Y-53099428D01*
X98993112Y-53099428D02*
X99370255Y-53099428D01*
X99181683Y-53759428D02*
X99181683Y-53099428D01*
X99590254Y-53413714D02*
X99810254Y-53413714D01*
X99904540Y-53759428D02*
X99590254Y-53759428D01*
X99590254Y-53759428D02*
X99590254Y-53099428D01*
X99590254Y-53099428D02*
X99904540Y-53099428D01*
X100187397Y-53759428D02*
X100187397Y-53099428D01*
X100187397Y-53099428D02*
X100564540Y-53759428D01*
X100564540Y-53759428D02*
X100564540Y-53099428D01*
X100878826Y-53759428D02*
X100878826Y-53099428D01*
X100878826Y-53099428D02*
X101255969Y-53759428D01*
X101255969Y-53759428D02*
X101255969Y-53099428D01*
X101538827Y-53570857D02*
X101853113Y-53570857D01*
X101475970Y-53759428D02*
X101695970Y-53099428D01*
X101695970Y-53099428D02*
X101915970Y-53759428D01*
D12*
X79031825Y-80517203D02*
X78714446Y-80739368D01*
X79031825Y-80898058D02*
X78365329Y-80898058D01*
X78365329Y-80898058D02*
X78365329Y-80644155D01*
X78365329Y-80644155D02*
X78397067Y-80580679D01*
X78397067Y-80580679D02*
X78428805Y-80548941D01*
X78428805Y-80548941D02*
X78492281Y-80517203D01*
X78492281Y-80517203D02*
X78587495Y-80517203D01*
X78587495Y-80517203D02*
X78650971Y-80548941D01*
X78650971Y-80548941D02*
X78682708Y-80580679D01*
X78682708Y-80580679D02*
X78714446Y-80644155D01*
X78714446Y-80644155D02*
X78714446Y-80898058D01*
X78365329Y-79945921D02*
X78365329Y-80072872D01*
X78365329Y-80072872D02*
X78397067Y-80136348D01*
X78397067Y-80136348D02*
X78428805Y-80168086D01*
X78428805Y-80168086D02*
X78524019Y-80231562D01*
X78524019Y-80231562D02*
X78650971Y-80263300D01*
X78650971Y-80263300D02*
X78904874Y-80263300D01*
X78904874Y-80263300D02*
X78968350Y-80231562D01*
X78968350Y-80231562D02*
X79000088Y-80199824D01*
X79000088Y-80199824D02*
X79031825Y-80136348D01*
X79031825Y-80136348D02*
X79031825Y-80009397D01*
X79031825Y-80009397D02*
X79000088Y-79945921D01*
X79000088Y-79945921D02*
X78968350Y-79914183D01*
X78968350Y-79914183D02*
X78904874Y-79882445D01*
X78904874Y-79882445D02*
X78746184Y-79882445D01*
X78746184Y-79882445D02*
X78682708Y-79914183D01*
X78682708Y-79914183D02*
X78650971Y-79945921D01*
X78650971Y-79945921D02*
X78619233Y-80009397D01*
X78619233Y-80009397D02*
X78619233Y-80136348D01*
X78619233Y-80136348D02*
X78650971Y-80199824D01*
X78650971Y-80199824D02*
X78682708Y-80231562D01*
X78682708Y-80231562D02*
X78746184Y-80263300D01*
D13*
X79582124Y-80593589D02*
X79582124Y-80802595D01*
X79582124Y-80698092D02*
X79216364Y-80698092D01*
X79216364Y-80698092D02*
X79268615Y-80732926D01*
X79268615Y-80732926D02*
X79303449Y-80767761D01*
X79303449Y-80767761D02*
X79320867Y-80802595D01*
X79582124Y-80436835D02*
X79216364Y-80436835D01*
X79582124Y-80227829D02*
X79373118Y-80384583D01*
X79216364Y-80227829D02*
X79425369Y-80436835D01*
D12*
X89154796Y-65569825D02*
X88932631Y-65252446D01*
X88773941Y-65569825D02*
X88773941Y-64903329D01*
X88773941Y-64903329D02*
X89027844Y-64903329D01*
X89027844Y-64903329D02*
X89091320Y-64935067D01*
X89091320Y-64935067D02*
X89123058Y-64966805D01*
X89123058Y-64966805D02*
X89154796Y-65030281D01*
X89154796Y-65030281D02*
X89154796Y-65125495D01*
X89154796Y-65125495D02*
X89123058Y-65188971D01*
X89123058Y-65188971D02*
X89091320Y-65220708D01*
X89091320Y-65220708D02*
X89027844Y-65252446D01*
X89027844Y-65252446D02*
X88773941Y-65252446D01*
X89789554Y-65569825D02*
X89408699Y-65569825D01*
X89599127Y-65569825D02*
X89599127Y-64903329D01*
X89599127Y-64903329D02*
X89535651Y-64998543D01*
X89535651Y-64998543D02*
X89472175Y-65062019D01*
X89472175Y-65062019D02*
X89408699Y-65093757D01*
X90202147Y-64903329D02*
X90265622Y-64903329D01*
X90265622Y-64903329D02*
X90329098Y-64935067D01*
X90329098Y-64935067D02*
X90360836Y-64966805D01*
X90360836Y-64966805D02*
X90392574Y-65030281D01*
X90392574Y-65030281D02*
X90424312Y-65157233D01*
X90424312Y-65157233D02*
X90424312Y-65315922D01*
X90424312Y-65315922D02*
X90392574Y-65442874D01*
X90392574Y-65442874D02*
X90360836Y-65506350D01*
X90360836Y-65506350D02*
X90329098Y-65538088D01*
X90329098Y-65538088D02*
X90265622Y-65569825D01*
X90265622Y-65569825D02*
X90202147Y-65569825D01*
X90202147Y-65569825D02*
X90138671Y-65538088D01*
X90138671Y-65538088D02*
X90106933Y-65506350D01*
X90106933Y-65506350D02*
X90075195Y-65442874D01*
X90075195Y-65442874D02*
X90043457Y-65315922D01*
X90043457Y-65315922D02*
X90043457Y-65157233D01*
X90043457Y-65157233D02*
X90075195Y-65030281D01*
X90075195Y-65030281D02*
X90106933Y-64966805D01*
X90106933Y-64966805D02*
X90138671Y-64935067D01*
X90138671Y-64935067D02*
X90202147Y-64903329D01*
D13*
X88697410Y-66120124D02*
X88488404Y-66120124D01*
X88592907Y-66120124D02*
X88592907Y-65754364D01*
X88592907Y-65754364D02*
X88558073Y-65806615D01*
X88558073Y-65806615D02*
X88523238Y-65841449D01*
X88523238Y-65841449D02*
X88488404Y-65858867D01*
X88923833Y-65754364D02*
X88958667Y-65754364D01*
X88958667Y-65754364D02*
X88993501Y-65771781D01*
X88993501Y-65771781D02*
X89010919Y-65789198D01*
X89010919Y-65789198D02*
X89028336Y-65824032D01*
X89028336Y-65824032D02*
X89045753Y-65893701D01*
X89045753Y-65893701D02*
X89045753Y-65980787D01*
X89045753Y-65980787D02*
X89028336Y-66050455D01*
X89028336Y-66050455D02*
X89010919Y-66085289D01*
X89010919Y-66085289D02*
X88993501Y-66102707D01*
X88993501Y-66102707D02*
X88958667Y-66120124D01*
X88958667Y-66120124D02*
X88923833Y-66120124D01*
X88923833Y-66120124D02*
X88888999Y-66102707D01*
X88888999Y-66102707D02*
X88871581Y-66085289D01*
X88871581Y-66085289D02*
X88854164Y-66050455D01*
X88854164Y-66050455D02*
X88836747Y-65980787D01*
X88836747Y-65980787D02*
X88836747Y-65893701D01*
X88836747Y-65893701D02*
X88854164Y-65824032D01*
X88854164Y-65824032D02*
X88871581Y-65789198D01*
X88871581Y-65789198D02*
X88888999Y-65771781D01*
X88888999Y-65771781D02*
X88923833Y-65754364D01*
X89202507Y-66120124D02*
X89202507Y-65754364D01*
X89411513Y-66120124D02*
X89254759Y-65911118D01*
X89411513Y-65754364D02*
X89202507Y-65963369D01*
D12*
X90551796Y-97129350D02*
X90520058Y-97161088D01*
X90520058Y-97161088D02*
X90424844Y-97192825D01*
X90424844Y-97192825D02*
X90361368Y-97192825D01*
X90361368Y-97192825D02*
X90266155Y-97161088D01*
X90266155Y-97161088D02*
X90202679Y-97097612D01*
X90202679Y-97097612D02*
X90170941Y-97034136D01*
X90170941Y-97034136D02*
X90139203Y-96907184D01*
X90139203Y-96907184D02*
X90139203Y-96811971D01*
X90139203Y-96811971D02*
X90170941Y-96685019D01*
X90170941Y-96685019D02*
X90202679Y-96621543D01*
X90202679Y-96621543D02*
X90266155Y-96558067D01*
X90266155Y-96558067D02*
X90361368Y-96526329D01*
X90361368Y-96526329D02*
X90424844Y-96526329D01*
X90424844Y-96526329D02*
X90520058Y-96558067D01*
X90520058Y-96558067D02*
X90551796Y-96589805D01*
X91154816Y-96526329D02*
X90837437Y-96526329D01*
X90837437Y-96526329D02*
X90805699Y-96843708D01*
X90805699Y-96843708D02*
X90837437Y-96811971D01*
X90837437Y-96811971D02*
X90900913Y-96780233D01*
X90900913Y-96780233D02*
X91059602Y-96780233D01*
X91059602Y-96780233D02*
X91123078Y-96811971D01*
X91123078Y-96811971D02*
X91154816Y-96843708D01*
X91154816Y-96843708D02*
X91186554Y-96907184D01*
X91186554Y-96907184D02*
X91186554Y-97065874D01*
X91186554Y-97065874D02*
X91154816Y-97129350D01*
X91154816Y-97129350D02*
X91123078Y-97161088D01*
X91123078Y-97161088D02*
X91059602Y-97192825D01*
X91059602Y-97192825D02*
X90900913Y-97192825D01*
X90900913Y-97192825D02*
X90837437Y-97161088D01*
X90837437Y-97161088D02*
X90805699Y-97129350D01*
D13*
X90353490Y-97377364D02*
X90388324Y-97377364D01*
X90388324Y-97377364D02*
X90423158Y-97394781D01*
X90423158Y-97394781D02*
X90440576Y-97412198D01*
X90440576Y-97412198D02*
X90457993Y-97447032D01*
X90457993Y-97447032D02*
X90475410Y-97516701D01*
X90475410Y-97516701D02*
X90475410Y-97603787D01*
X90475410Y-97603787D02*
X90457993Y-97673455D01*
X90457993Y-97673455D02*
X90440576Y-97708289D01*
X90440576Y-97708289D02*
X90423158Y-97725707D01*
X90423158Y-97725707D02*
X90388324Y-97743124D01*
X90388324Y-97743124D02*
X90353490Y-97743124D01*
X90353490Y-97743124D02*
X90318656Y-97725707D01*
X90318656Y-97725707D02*
X90301238Y-97708289D01*
X90301238Y-97708289D02*
X90283821Y-97673455D01*
X90283821Y-97673455D02*
X90266404Y-97603787D01*
X90266404Y-97603787D02*
X90266404Y-97516701D01*
X90266404Y-97516701D02*
X90283821Y-97447032D01*
X90283821Y-97447032D02*
X90301238Y-97412198D01*
X90301238Y-97412198D02*
X90318656Y-97394781D01*
X90318656Y-97394781D02*
X90353490Y-97377364D01*
X90632164Y-97708289D02*
X90649581Y-97725707D01*
X90649581Y-97725707D02*
X90632164Y-97743124D01*
X90632164Y-97743124D02*
X90614747Y-97725707D01*
X90614747Y-97725707D02*
X90632164Y-97708289D01*
X90632164Y-97708289D02*
X90632164Y-97743124D01*
X90997924Y-97743124D02*
X90788918Y-97743124D01*
X90893421Y-97743124D02*
X90893421Y-97377364D01*
X90893421Y-97377364D02*
X90858587Y-97429615D01*
X90858587Y-97429615D02*
X90823752Y-97464449D01*
X90823752Y-97464449D02*
X90788918Y-97481867D01*
X91311433Y-97499284D02*
X91311433Y-97743124D01*
X91154678Y-97499284D02*
X91154678Y-97690872D01*
X91154678Y-97690872D02*
X91172095Y-97725707D01*
X91172095Y-97725707D02*
X91206930Y-97743124D01*
X91206930Y-97743124D02*
X91259181Y-97743124D01*
X91259181Y-97743124D02*
X91294015Y-97725707D01*
X91294015Y-97725707D02*
X91311433Y-97708289D01*
X91607524Y-97551535D02*
X91485604Y-97551535D01*
X91485604Y-97743124D02*
X91485604Y-97377364D01*
X91485604Y-97377364D02*
X91659776Y-97377364D01*
D10*
X78041428Y-95797528D02*
X77821428Y-95483242D01*
X77664285Y-95797528D02*
X77664285Y-95137528D01*
X77664285Y-95137528D02*
X77915714Y-95137528D01*
X77915714Y-95137528D02*
X77978571Y-95168957D01*
X77978571Y-95168957D02*
X78010000Y-95200385D01*
X78010000Y-95200385D02*
X78041428Y-95263242D01*
X78041428Y-95263242D02*
X78041428Y-95357528D01*
X78041428Y-95357528D02*
X78010000Y-95420385D01*
X78010000Y-95420385D02*
X77978571Y-95451814D01*
X77978571Y-95451814D02*
X77915714Y-95483242D01*
X77915714Y-95483242D02*
X77664285Y-95483242D01*
X78324285Y-95451814D02*
X78544285Y-95451814D01*
X78638571Y-95797528D02*
X78324285Y-95797528D01*
X78324285Y-95797528D02*
X78324285Y-95137528D01*
X78324285Y-95137528D02*
X78638571Y-95137528D01*
X78890000Y-95766100D02*
X78984286Y-95797528D01*
X78984286Y-95797528D02*
X79141428Y-95797528D01*
X79141428Y-95797528D02*
X79204286Y-95766100D01*
X79204286Y-95766100D02*
X79235714Y-95734671D01*
X79235714Y-95734671D02*
X79267143Y-95671814D01*
X79267143Y-95671814D02*
X79267143Y-95608957D01*
X79267143Y-95608957D02*
X79235714Y-95546100D01*
X79235714Y-95546100D02*
X79204286Y-95514671D01*
X79204286Y-95514671D02*
X79141428Y-95483242D01*
X79141428Y-95483242D02*
X79015714Y-95451814D01*
X79015714Y-95451814D02*
X78952857Y-95420385D01*
X78952857Y-95420385D02*
X78921428Y-95388957D01*
X78921428Y-95388957D02*
X78890000Y-95326100D01*
X78890000Y-95326100D02*
X78890000Y-95263242D01*
X78890000Y-95263242D02*
X78921428Y-95200385D01*
X78921428Y-95200385D02*
X78952857Y-95168957D01*
X78952857Y-95168957D02*
X79015714Y-95137528D01*
X79015714Y-95137528D02*
X79172857Y-95137528D01*
X79172857Y-95137528D02*
X79267143Y-95168957D01*
X79549999Y-95451814D02*
X79769999Y-95451814D01*
X79864285Y-95797528D02*
X79549999Y-95797528D01*
X79549999Y-95797528D02*
X79549999Y-95137528D01*
X79549999Y-95137528D02*
X79864285Y-95137528D01*
X80052857Y-95137528D02*
X80430000Y-95137528D01*
X80241428Y-95797528D02*
X80241428Y-95137528D01*
D12*
X98044796Y-62458350D02*
X98013058Y-62490088D01*
X98013058Y-62490088D02*
X97917844Y-62521825D01*
X97917844Y-62521825D02*
X97854368Y-62521825D01*
X97854368Y-62521825D02*
X97759155Y-62490088D01*
X97759155Y-62490088D02*
X97695679Y-62426612D01*
X97695679Y-62426612D02*
X97663941Y-62363136D01*
X97663941Y-62363136D02*
X97632203Y-62236184D01*
X97632203Y-62236184D02*
X97632203Y-62140971D01*
X97632203Y-62140971D02*
X97663941Y-62014019D01*
X97663941Y-62014019D02*
X97695679Y-61950543D01*
X97695679Y-61950543D02*
X97759155Y-61887067D01*
X97759155Y-61887067D02*
X97854368Y-61855329D01*
X97854368Y-61855329D02*
X97917844Y-61855329D01*
X97917844Y-61855329D02*
X98013058Y-61887067D01*
X98013058Y-61887067D02*
X98044796Y-61918805D01*
X98679554Y-62521825D02*
X98298699Y-62521825D01*
X98489127Y-62521825D02*
X98489127Y-61855329D01*
X98489127Y-61855329D02*
X98425651Y-61950543D01*
X98425651Y-61950543D02*
X98362175Y-62014019D01*
X98362175Y-62014019D02*
X98298699Y-62045757D01*
X98933457Y-61918805D02*
X98965195Y-61887067D01*
X98965195Y-61887067D02*
X99028671Y-61855329D01*
X99028671Y-61855329D02*
X99187360Y-61855329D01*
X99187360Y-61855329D02*
X99250836Y-61887067D01*
X99250836Y-61887067D02*
X99282574Y-61918805D01*
X99282574Y-61918805D02*
X99314312Y-61982281D01*
X99314312Y-61982281D02*
X99314312Y-62045757D01*
X99314312Y-62045757D02*
X99282574Y-62140971D01*
X99282574Y-62140971D02*
X98901719Y-62521825D01*
X98901719Y-62521825D02*
X99314312Y-62521825D01*
D13*
X101397410Y-62310124D02*
X101188404Y-62310124D01*
X101292907Y-62310124D02*
X101292907Y-61944364D01*
X101292907Y-61944364D02*
X101258073Y-61996615D01*
X101258073Y-61996615D02*
X101223238Y-62031449D01*
X101223238Y-62031449D02*
X101188404Y-62048867D01*
X101623833Y-61944364D02*
X101658667Y-61944364D01*
X101658667Y-61944364D02*
X101693501Y-61961781D01*
X101693501Y-61961781D02*
X101710919Y-61979198D01*
X101710919Y-61979198D02*
X101728336Y-62014032D01*
X101728336Y-62014032D02*
X101745753Y-62083701D01*
X101745753Y-62083701D02*
X101745753Y-62170787D01*
X101745753Y-62170787D02*
X101728336Y-62240455D01*
X101728336Y-62240455D02*
X101710919Y-62275289D01*
X101710919Y-62275289D02*
X101693501Y-62292707D01*
X101693501Y-62292707D02*
X101658667Y-62310124D01*
X101658667Y-62310124D02*
X101623833Y-62310124D01*
X101623833Y-62310124D02*
X101588999Y-62292707D01*
X101588999Y-62292707D02*
X101571581Y-62275289D01*
X101571581Y-62275289D02*
X101554164Y-62240455D01*
X101554164Y-62240455D02*
X101536747Y-62170787D01*
X101536747Y-62170787D02*
X101536747Y-62083701D01*
X101536747Y-62083701D02*
X101554164Y-62014032D01*
X101554164Y-62014032D02*
X101571581Y-61979198D01*
X101571581Y-61979198D02*
X101588999Y-61961781D01*
X101588999Y-61961781D02*
X101623833Y-61944364D01*
X102059262Y-62066284D02*
X102059262Y-62310124D01*
X101902507Y-62066284D02*
X101902507Y-62257872D01*
X101902507Y-62257872D02*
X101919924Y-62292707D01*
X101919924Y-62292707D02*
X101954759Y-62310124D01*
X101954759Y-62310124D02*
X102007010Y-62310124D01*
X102007010Y-62310124D02*
X102041844Y-62292707D01*
X102041844Y-62292707D02*
X102059262Y-62275289D01*
X102355353Y-62118535D02*
X102233433Y-62118535D01*
X102233433Y-62310124D02*
X102233433Y-61944364D01*
X102233433Y-61944364D02*
X102407605Y-61944364D01*
D12*
X79883796Y-90969825D02*
X79661631Y-90652446D01*
X79502941Y-90969825D02*
X79502941Y-90303329D01*
X79502941Y-90303329D02*
X79756844Y-90303329D01*
X79756844Y-90303329D02*
X79820320Y-90335067D01*
X79820320Y-90335067D02*
X79852058Y-90366805D01*
X79852058Y-90366805D02*
X79883796Y-90430281D01*
X79883796Y-90430281D02*
X79883796Y-90525495D01*
X79883796Y-90525495D02*
X79852058Y-90588971D01*
X79852058Y-90588971D02*
X79820320Y-90620708D01*
X79820320Y-90620708D02*
X79756844Y-90652446D01*
X79756844Y-90652446D02*
X79502941Y-90652446D01*
X80105961Y-90303329D02*
X80518554Y-90303329D01*
X80518554Y-90303329D02*
X80296389Y-90557233D01*
X80296389Y-90557233D02*
X80391602Y-90557233D01*
X80391602Y-90557233D02*
X80455078Y-90588971D01*
X80455078Y-90588971D02*
X80486816Y-90620708D01*
X80486816Y-90620708D02*
X80518554Y-90684184D01*
X80518554Y-90684184D02*
X80518554Y-90842874D01*
X80518554Y-90842874D02*
X80486816Y-90906350D01*
X80486816Y-90906350D02*
X80455078Y-90938088D01*
X80455078Y-90938088D02*
X80391602Y-90969825D01*
X80391602Y-90969825D02*
X80201175Y-90969825D01*
X80201175Y-90969825D02*
X80137699Y-90938088D01*
X80137699Y-90938088D02*
X80105961Y-90906350D01*
D13*
X79471404Y-91189198D02*
X79488821Y-91171781D01*
X79488821Y-91171781D02*
X79523656Y-91154364D01*
X79523656Y-91154364D02*
X79610741Y-91154364D01*
X79610741Y-91154364D02*
X79645576Y-91171781D01*
X79645576Y-91171781D02*
X79662993Y-91189198D01*
X79662993Y-91189198D02*
X79680410Y-91224032D01*
X79680410Y-91224032D02*
X79680410Y-91258867D01*
X79680410Y-91258867D02*
X79662993Y-91311118D01*
X79662993Y-91311118D02*
X79453987Y-91520124D01*
X79453987Y-91520124D02*
X79680410Y-91520124D01*
X79906833Y-91154364D02*
X79941667Y-91154364D01*
X79941667Y-91154364D02*
X79976501Y-91171781D01*
X79976501Y-91171781D02*
X79993919Y-91189198D01*
X79993919Y-91189198D02*
X80011336Y-91224032D01*
X80011336Y-91224032D02*
X80028753Y-91293701D01*
X80028753Y-91293701D02*
X80028753Y-91380787D01*
X80028753Y-91380787D02*
X80011336Y-91450455D01*
X80011336Y-91450455D02*
X79993919Y-91485289D01*
X79993919Y-91485289D02*
X79976501Y-91502707D01*
X79976501Y-91502707D02*
X79941667Y-91520124D01*
X79941667Y-91520124D02*
X79906833Y-91520124D01*
X79906833Y-91520124D02*
X79871999Y-91502707D01*
X79871999Y-91502707D02*
X79854581Y-91485289D01*
X79854581Y-91485289D02*
X79837164Y-91450455D01*
X79837164Y-91450455D02*
X79819747Y-91380787D01*
X79819747Y-91380787D02*
X79819747Y-91293701D01*
X79819747Y-91293701D02*
X79837164Y-91224032D01*
X79837164Y-91224032D02*
X79854581Y-91189198D01*
X79854581Y-91189198D02*
X79871999Y-91171781D01*
X79871999Y-91171781D02*
X79906833Y-91154364D01*
X80255176Y-91154364D02*
X80290010Y-91154364D01*
X80290010Y-91154364D02*
X80324844Y-91171781D01*
X80324844Y-91171781D02*
X80342262Y-91189198D01*
X80342262Y-91189198D02*
X80359679Y-91224032D01*
X80359679Y-91224032D02*
X80377096Y-91293701D01*
X80377096Y-91293701D02*
X80377096Y-91380787D01*
X80377096Y-91380787D02*
X80359679Y-91450455D01*
X80359679Y-91450455D02*
X80342262Y-91485289D01*
X80342262Y-91485289D02*
X80324844Y-91502707D01*
X80324844Y-91502707D02*
X80290010Y-91520124D01*
X80290010Y-91520124D02*
X80255176Y-91520124D01*
X80255176Y-91520124D02*
X80220342Y-91502707D01*
X80220342Y-91502707D02*
X80202924Y-91485289D01*
X80202924Y-91485289D02*
X80185507Y-91450455D01*
X80185507Y-91450455D02*
X80168090Y-91380787D01*
X80168090Y-91380787D02*
X80168090Y-91293701D01*
X80168090Y-91293701D02*
X80185507Y-91224032D01*
X80185507Y-91224032D02*
X80202924Y-91189198D01*
X80202924Y-91189198D02*
X80220342Y-91171781D01*
X80220342Y-91171781D02*
X80255176Y-91154364D01*
X80533850Y-91520124D02*
X80533850Y-91154364D01*
X80742856Y-91520124D02*
X80586102Y-91311118D01*
X80742856Y-91154364D02*
X80533850Y-91363369D01*
D12*
X92456796Y-65569825D02*
X92234631Y-65252446D01*
X92075941Y-65569825D02*
X92075941Y-64903329D01*
X92075941Y-64903329D02*
X92329844Y-64903329D01*
X92329844Y-64903329D02*
X92393320Y-64935067D01*
X92393320Y-64935067D02*
X92425058Y-64966805D01*
X92425058Y-64966805D02*
X92456796Y-65030281D01*
X92456796Y-65030281D02*
X92456796Y-65125495D01*
X92456796Y-65125495D02*
X92425058Y-65188971D01*
X92425058Y-65188971D02*
X92393320Y-65220708D01*
X92393320Y-65220708D02*
X92329844Y-65252446D01*
X92329844Y-65252446D02*
X92075941Y-65252446D01*
X92774175Y-65569825D02*
X92901127Y-65569825D01*
X92901127Y-65569825D02*
X92964602Y-65538088D01*
X92964602Y-65538088D02*
X92996340Y-65506350D01*
X92996340Y-65506350D02*
X93059816Y-65411136D01*
X93059816Y-65411136D02*
X93091554Y-65284184D01*
X93091554Y-65284184D02*
X93091554Y-65030281D01*
X93091554Y-65030281D02*
X93059816Y-64966805D01*
X93059816Y-64966805D02*
X93028078Y-64935067D01*
X93028078Y-64935067D02*
X92964602Y-64903329D01*
X92964602Y-64903329D02*
X92837651Y-64903329D01*
X92837651Y-64903329D02*
X92774175Y-64935067D01*
X92774175Y-64935067D02*
X92742437Y-64966805D01*
X92742437Y-64966805D02*
X92710699Y-65030281D01*
X92710699Y-65030281D02*
X92710699Y-65188971D01*
X92710699Y-65188971D02*
X92742437Y-65252446D01*
X92742437Y-65252446D02*
X92774175Y-65284184D01*
X92774175Y-65284184D02*
X92837651Y-65315922D01*
X92837651Y-65315922D02*
X92964602Y-65315922D01*
X92964602Y-65315922D02*
X93028078Y-65284184D01*
X93028078Y-65284184D02*
X93059816Y-65252446D01*
X93059816Y-65252446D02*
X93091554Y-65188971D01*
D13*
X91999410Y-66120124D02*
X91790404Y-66120124D01*
X91894907Y-66120124D02*
X91894907Y-65754364D01*
X91894907Y-65754364D02*
X91860073Y-65806615D01*
X91860073Y-65806615D02*
X91825238Y-65841449D01*
X91825238Y-65841449D02*
X91790404Y-65858867D01*
X92225833Y-65754364D02*
X92260667Y-65754364D01*
X92260667Y-65754364D02*
X92295501Y-65771781D01*
X92295501Y-65771781D02*
X92312919Y-65789198D01*
X92312919Y-65789198D02*
X92330336Y-65824032D01*
X92330336Y-65824032D02*
X92347753Y-65893701D01*
X92347753Y-65893701D02*
X92347753Y-65980787D01*
X92347753Y-65980787D02*
X92330336Y-66050455D01*
X92330336Y-66050455D02*
X92312919Y-66085289D01*
X92312919Y-66085289D02*
X92295501Y-66102707D01*
X92295501Y-66102707D02*
X92260667Y-66120124D01*
X92260667Y-66120124D02*
X92225833Y-66120124D01*
X92225833Y-66120124D02*
X92190999Y-66102707D01*
X92190999Y-66102707D02*
X92173581Y-66085289D01*
X92173581Y-66085289D02*
X92156164Y-66050455D01*
X92156164Y-66050455D02*
X92138747Y-65980787D01*
X92138747Y-65980787D02*
X92138747Y-65893701D01*
X92138747Y-65893701D02*
X92156164Y-65824032D01*
X92156164Y-65824032D02*
X92173581Y-65789198D01*
X92173581Y-65789198D02*
X92190999Y-65771781D01*
X92190999Y-65771781D02*
X92225833Y-65754364D01*
X92504507Y-66120124D02*
X92504507Y-65754364D01*
X92713513Y-66120124D02*
X92556759Y-65911118D01*
X92713513Y-65754364D02*
X92504507Y-65963369D01*
D12*
X82296941Y-64776329D02*
X82296941Y-65315874D01*
X82296941Y-65315874D02*
X82328679Y-65379350D01*
X82328679Y-65379350D02*
X82360417Y-65411088D01*
X82360417Y-65411088D02*
X82423893Y-65442825D01*
X82423893Y-65442825D02*
X82550844Y-65442825D01*
X82550844Y-65442825D02*
X82614320Y-65411088D01*
X82614320Y-65411088D02*
X82646058Y-65379350D01*
X82646058Y-65379350D02*
X82677796Y-65315874D01*
X82677796Y-65315874D02*
X82677796Y-64776329D01*
X82931699Y-64776329D02*
X83376030Y-64776329D01*
X83376030Y-64776329D02*
X83090389Y-65442825D01*
D13*
X82265404Y-65888621D02*
X82439576Y-65888621D01*
X82230570Y-65993124D02*
X82352490Y-65627364D01*
X82352490Y-65627364D02*
X82474410Y-65993124D01*
X82596330Y-65993124D02*
X82596330Y-65627364D01*
X82596330Y-65627364D02*
X82735667Y-65627364D01*
X82735667Y-65627364D02*
X82770502Y-65644781D01*
X82770502Y-65644781D02*
X82787919Y-65662198D01*
X82787919Y-65662198D02*
X82805336Y-65697032D01*
X82805336Y-65697032D02*
X82805336Y-65749284D01*
X82805336Y-65749284D02*
X82787919Y-65784118D01*
X82787919Y-65784118D02*
X82770502Y-65801535D01*
X82770502Y-65801535D02*
X82735667Y-65818952D01*
X82735667Y-65818952D02*
X82596330Y-65818952D01*
X82927256Y-65627364D02*
X83171096Y-65627364D01*
X83171096Y-65627364D02*
X83014342Y-65993124D01*
X83275599Y-65627364D02*
X83502022Y-65627364D01*
X83502022Y-65627364D02*
X83380102Y-65766701D01*
X83380102Y-65766701D02*
X83432353Y-65766701D01*
X83432353Y-65766701D02*
X83467188Y-65784118D01*
X83467188Y-65784118D02*
X83484605Y-65801535D01*
X83484605Y-65801535D02*
X83502022Y-65836369D01*
X83502022Y-65836369D02*
X83502022Y-65923455D01*
X83502022Y-65923455D02*
X83484605Y-65958289D01*
X83484605Y-65958289D02*
X83467188Y-65975707D01*
X83467188Y-65975707D02*
X83432353Y-65993124D01*
X83432353Y-65993124D02*
X83327850Y-65993124D01*
X83327850Y-65993124D02*
X83293016Y-65975707D01*
X83293016Y-65975707D02*
X83275599Y-65958289D01*
X83850365Y-65993124D02*
X83641359Y-65993124D01*
X83745862Y-65993124D02*
X83745862Y-65627364D01*
X83745862Y-65627364D02*
X83711028Y-65679615D01*
X83711028Y-65679615D02*
X83676193Y-65714449D01*
X83676193Y-65714449D02*
X83641359Y-65731867D01*
X83989702Y-65662198D02*
X84007119Y-65644781D01*
X84007119Y-65644781D02*
X84041954Y-65627364D01*
X84041954Y-65627364D02*
X84129039Y-65627364D01*
X84129039Y-65627364D02*
X84163874Y-65644781D01*
X84163874Y-65644781D02*
X84181291Y-65662198D01*
X84181291Y-65662198D02*
X84198708Y-65697032D01*
X84198708Y-65697032D02*
X84198708Y-65731867D01*
X84198708Y-65731867D02*
X84181291Y-65784118D01*
X84181291Y-65784118D02*
X83972285Y-65993124D01*
X83972285Y-65993124D02*
X84198708Y-65993124D01*
X84355462Y-65853787D02*
X84634137Y-65853787D01*
X84999897Y-65993124D02*
X84790891Y-65993124D01*
X84895394Y-65993124D02*
X84895394Y-65627364D01*
X84895394Y-65627364D02*
X84860560Y-65679615D01*
X84860560Y-65679615D02*
X84825725Y-65714449D01*
X84825725Y-65714449D02*
X84790891Y-65731867D01*
X85208903Y-65784118D02*
X85174068Y-65766701D01*
X85174068Y-65766701D02*
X85156651Y-65749284D01*
X85156651Y-65749284D02*
X85139234Y-65714449D01*
X85139234Y-65714449D02*
X85139234Y-65697032D01*
X85139234Y-65697032D02*
X85156651Y-65662198D01*
X85156651Y-65662198D02*
X85174068Y-65644781D01*
X85174068Y-65644781D02*
X85208903Y-65627364D01*
X85208903Y-65627364D02*
X85278571Y-65627364D01*
X85278571Y-65627364D02*
X85313406Y-65644781D01*
X85313406Y-65644781D02*
X85330823Y-65662198D01*
X85330823Y-65662198D02*
X85348240Y-65697032D01*
X85348240Y-65697032D02*
X85348240Y-65714449D01*
X85348240Y-65714449D02*
X85330823Y-65749284D01*
X85330823Y-65749284D02*
X85313406Y-65766701D01*
X85313406Y-65766701D02*
X85278571Y-65784118D01*
X85278571Y-65784118D02*
X85208903Y-65784118D01*
X85208903Y-65784118D02*
X85174068Y-65801535D01*
X85174068Y-65801535D02*
X85156651Y-65818952D01*
X85156651Y-65818952D02*
X85139234Y-65853787D01*
X85139234Y-65853787D02*
X85139234Y-65923455D01*
X85139234Y-65923455D02*
X85156651Y-65958289D01*
X85156651Y-65958289D02*
X85174068Y-65975707D01*
X85174068Y-65975707D02*
X85208903Y-65993124D01*
X85208903Y-65993124D02*
X85278571Y-65993124D01*
X85278571Y-65993124D02*
X85313406Y-65975707D01*
X85313406Y-65975707D02*
X85330823Y-65958289D01*
X85330823Y-65958289D02*
X85348240Y-65923455D01*
X85348240Y-65923455D02*
X85348240Y-65853787D01*
X85348240Y-65853787D02*
X85330823Y-65818952D01*
X85330823Y-65818952D02*
X85313406Y-65801535D01*
X85313406Y-65801535D02*
X85278571Y-65784118D01*
X85470160Y-65627364D02*
X85696583Y-65627364D01*
X85696583Y-65627364D02*
X85574663Y-65766701D01*
X85574663Y-65766701D02*
X85626914Y-65766701D01*
X85626914Y-65766701D02*
X85661749Y-65784118D01*
X85661749Y-65784118D02*
X85679166Y-65801535D01*
X85679166Y-65801535D02*
X85696583Y-65836369D01*
X85696583Y-65836369D02*
X85696583Y-65923455D01*
X85696583Y-65923455D02*
X85679166Y-65958289D01*
X85679166Y-65958289D02*
X85661749Y-65975707D01*
X85661749Y-65975707D02*
X85626914Y-65993124D01*
X85626914Y-65993124D02*
X85522411Y-65993124D01*
X85522411Y-65993124D02*
X85487577Y-65975707D01*
X85487577Y-65975707D02*
X85470160Y-65958289D01*
X85818503Y-65627364D02*
X86044926Y-65627364D01*
X86044926Y-65627364D02*
X85923006Y-65766701D01*
X85923006Y-65766701D02*
X85975257Y-65766701D01*
X85975257Y-65766701D02*
X86010092Y-65784118D01*
X86010092Y-65784118D02*
X86027509Y-65801535D01*
X86027509Y-65801535D02*
X86044926Y-65836369D01*
X86044926Y-65836369D02*
X86044926Y-65923455D01*
X86044926Y-65923455D02*
X86027509Y-65958289D01*
X86027509Y-65958289D02*
X86010092Y-65975707D01*
X86010092Y-65975707D02*
X85975257Y-65993124D01*
X85975257Y-65993124D02*
X85870754Y-65993124D01*
X85870754Y-65993124D02*
X85835920Y-65975707D01*
X85835920Y-65975707D02*
X85818503Y-65958289D01*
D12*
X79031825Y-84423961D02*
X78714446Y-84646126D01*
X79031825Y-84804816D02*
X78365329Y-84804816D01*
X78365329Y-84804816D02*
X78365329Y-84550913D01*
X78365329Y-84550913D02*
X78397067Y-84487437D01*
X78397067Y-84487437D02*
X78428805Y-84455699D01*
X78428805Y-84455699D02*
X78492281Y-84423961D01*
X78492281Y-84423961D02*
X78587495Y-84423961D01*
X78587495Y-84423961D02*
X78650971Y-84455699D01*
X78650971Y-84455699D02*
X78682708Y-84487437D01*
X78682708Y-84487437D02*
X78714446Y-84550913D01*
X78714446Y-84550913D02*
X78714446Y-84804816D01*
X78365329Y-83820941D02*
X78365329Y-84138320D01*
X78365329Y-84138320D02*
X78682708Y-84170058D01*
X78682708Y-84170058D02*
X78650971Y-84138320D01*
X78650971Y-84138320D02*
X78619233Y-84074844D01*
X78619233Y-84074844D02*
X78619233Y-83916155D01*
X78619233Y-83916155D02*
X78650971Y-83852679D01*
X78650971Y-83852679D02*
X78682708Y-83820941D01*
X78682708Y-83820941D02*
X78746184Y-83789203D01*
X78746184Y-83789203D02*
X78904874Y-83789203D01*
X78904874Y-83789203D02*
X78968350Y-83820941D01*
X78968350Y-83820941D02*
X79000088Y-83852679D01*
X79000088Y-83852679D02*
X79031825Y-83916155D01*
X79031825Y-83916155D02*
X79031825Y-84074844D01*
X79031825Y-84074844D02*
X79000088Y-84138320D01*
X79000088Y-84138320D02*
X78968350Y-84170058D01*
D13*
X79582124Y-84663164D02*
X79582124Y-84872170D01*
X79582124Y-84767667D02*
X79216364Y-84767667D01*
X79216364Y-84767667D02*
X79268615Y-84802501D01*
X79268615Y-84802501D02*
X79303449Y-84837336D01*
X79303449Y-84837336D02*
X79320867Y-84872170D01*
X79582124Y-84506410D02*
X79216364Y-84506410D01*
X79582124Y-84297404D02*
X79373118Y-84454158D01*
X79216364Y-84297404D02*
X79425369Y-84506410D01*
D14*
X79132242Y-77050918D02*
X78238162Y-77050918D01*
X78238162Y-77050918D02*
X78238162Y-76838042D01*
X78238162Y-76838042D02*
X78280737Y-76710316D01*
X78280737Y-76710316D02*
X78365887Y-76625166D01*
X78365887Y-76625166D02*
X78451038Y-76582591D01*
X78451038Y-76582591D02*
X78621339Y-76540015D01*
X78621339Y-76540015D02*
X78749065Y-76540015D01*
X78749065Y-76540015D02*
X78919366Y-76582591D01*
X78919366Y-76582591D02*
X79004516Y-76625166D01*
X79004516Y-76625166D02*
X79089667Y-76710316D01*
X79089667Y-76710316D02*
X79132242Y-76838042D01*
X79132242Y-76838042D02*
X79132242Y-77050918D01*
X78323312Y-76199414D02*
X78280737Y-76156838D01*
X78280737Y-76156838D02*
X78238162Y-76071688D01*
X78238162Y-76071688D02*
X78238162Y-75858812D01*
X78238162Y-75858812D02*
X78280737Y-75773661D01*
X78280737Y-75773661D02*
X78323312Y-75731086D01*
X78323312Y-75731086D02*
X78408463Y-75688511D01*
X78408463Y-75688511D02*
X78493613Y-75688511D01*
X78493613Y-75688511D02*
X78621339Y-75731086D01*
X78621339Y-75731086D02*
X79132242Y-76241989D01*
X79132242Y-76241989D02*
X79132242Y-75688511D01*
X76874888Y-77003638D02*
X76874888Y-77317924D01*
X76874888Y-77317924D02*
X76214888Y-77317924D01*
X76529174Y-76783638D02*
X76529174Y-76563638D01*
X76874888Y-76469352D02*
X76874888Y-76783638D01*
X76874888Y-76783638D02*
X76214888Y-76783638D01*
X76214888Y-76783638D02*
X76214888Y-76469352D01*
X76874888Y-76186495D02*
X76214888Y-76186495D01*
X76214888Y-76186495D02*
X76214888Y-76029352D01*
X76214888Y-76029352D02*
X76246317Y-75935066D01*
X76246317Y-75935066D02*
X76309174Y-75872209D01*
X76309174Y-75872209D02*
X76372031Y-75840780D01*
X76372031Y-75840780D02*
X76497745Y-75809352D01*
X76497745Y-75809352D02*
X76592031Y-75809352D01*
X76592031Y-75809352D02*
X76717745Y-75840780D01*
X76717745Y-75840780D02*
X76780602Y-75872209D01*
X76780602Y-75872209D02*
X76843460Y-75935066D01*
X76843460Y-75935066D02*
X76874888Y-76029352D01*
X76874888Y-76029352D02*
X76874888Y-76186495D01*
X76937745Y-75683638D02*
X76937745Y-75180780D01*
X76246317Y-74677923D02*
X76214888Y-74740781D01*
X76214888Y-74740781D02*
X76214888Y-74835066D01*
X76214888Y-74835066D02*
X76246317Y-74929352D01*
X76246317Y-74929352D02*
X76309174Y-74992209D01*
X76309174Y-74992209D02*
X76372031Y-75023638D01*
X76372031Y-75023638D02*
X76497745Y-75055066D01*
X76497745Y-75055066D02*
X76592031Y-75055066D01*
X76592031Y-75055066D02*
X76717745Y-75023638D01*
X76717745Y-75023638D02*
X76780602Y-74992209D01*
X76780602Y-74992209D02*
X76843460Y-74929352D01*
X76843460Y-74929352D02*
X76874888Y-74835066D01*
X76874888Y-74835066D02*
X76874888Y-74772209D01*
X76874888Y-74772209D02*
X76843460Y-74677923D01*
X76843460Y-74677923D02*
X76812031Y-74646495D01*
X76812031Y-74646495D02*
X76592031Y-74646495D01*
X76592031Y-74646495D02*
X76592031Y-74772209D01*
X76874888Y-74363638D02*
X76214888Y-74363638D01*
X76214888Y-74363638D02*
X76214888Y-74112209D01*
X76214888Y-74112209D02*
X76246317Y-74049352D01*
X76246317Y-74049352D02*
X76277745Y-74017923D01*
X76277745Y-74017923D02*
X76340602Y-73986495D01*
X76340602Y-73986495D02*
X76434888Y-73986495D01*
X76434888Y-73986495D02*
X76497745Y-74017923D01*
X76497745Y-74017923D02*
X76529174Y-74049352D01*
X76529174Y-74049352D02*
X76560602Y-74112209D01*
X76560602Y-74112209D02*
X76560602Y-74363638D01*
X76843460Y-73735066D02*
X76874888Y-73640781D01*
X76874888Y-73640781D02*
X76874888Y-73483638D01*
X76874888Y-73483638D02*
X76843460Y-73420781D01*
X76843460Y-73420781D02*
X76812031Y-73389352D01*
X76812031Y-73389352D02*
X76749174Y-73357923D01*
X76749174Y-73357923D02*
X76686317Y-73357923D01*
X76686317Y-73357923D02*
X76623460Y-73389352D01*
X76623460Y-73389352D02*
X76592031Y-73420781D01*
X76592031Y-73420781D02*
X76560602Y-73483638D01*
X76560602Y-73483638D02*
X76529174Y-73609352D01*
X76529174Y-73609352D02*
X76497745Y-73672209D01*
X76497745Y-73672209D02*
X76466317Y-73703638D01*
X76466317Y-73703638D02*
X76403460Y-73735066D01*
X76403460Y-73735066D02*
X76340602Y-73735066D01*
X76340602Y-73735066D02*
X76277745Y-73703638D01*
X76277745Y-73703638D02*
X76246317Y-73672209D01*
X76246317Y-73672209D02*
X76214888Y-73609352D01*
X76214888Y-73609352D02*
X76214888Y-73452209D01*
X76214888Y-73452209D02*
X76246317Y-73357923D01*
D12*
X93091941Y-63125329D02*
X93091941Y-63664874D01*
X93091941Y-63664874D02*
X93123679Y-63728350D01*
X93123679Y-63728350D02*
X93155417Y-63760088D01*
X93155417Y-63760088D02*
X93218893Y-63791825D01*
X93218893Y-63791825D02*
X93345844Y-63791825D01*
X93345844Y-63791825D02*
X93409320Y-63760088D01*
X93409320Y-63760088D02*
X93441058Y-63728350D01*
X93441058Y-63728350D02*
X93472796Y-63664874D01*
X93472796Y-63664874D02*
X93472796Y-63125329D01*
X93821913Y-63791825D02*
X93948865Y-63791825D01*
X93948865Y-63791825D02*
X94012340Y-63760088D01*
X94012340Y-63760088D02*
X94044078Y-63728350D01*
X94044078Y-63728350D02*
X94107554Y-63633136D01*
X94107554Y-63633136D02*
X94139292Y-63506184D01*
X94139292Y-63506184D02*
X94139292Y-63252281D01*
X94139292Y-63252281D02*
X94107554Y-63188805D01*
X94107554Y-63188805D02*
X94075816Y-63157067D01*
X94075816Y-63157067D02*
X94012340Y-63125329D01*
X94012340Y-63125329D02*
X93885389Y-63125329D01*
X93885389Y-63125329D02*
X93821913Y-63157067D01*
X93821913Y-63157067D02*
X93790175Y-63188805D01*
X93790175Y-63188805D02*
X93758437Y-63252281D01*
X93758437Y-63252281D02*
X93758437Y-63410971D01*
X93758437Y-63410971D02*
X93790175Y-63474446D01*
X93790175Y-63474446D02*
X93821913Y-63506184D01*
X93821913Y-63506184D02*
X93885389Y-63537922D01*
X93885389Y-63537922D02*
X94012340Y-63537922D01*
X94012340Y-63537922D02*
X94075816Y-63506184D01*
X94075816Y-63506184D02*
X94107554Y-63474446D01*
X94107554Y-63474446D02*
X94139292Y-63410971D01*
D13*
X93077821Y-64469124D02*
X93077821Y-64103364D01*
X93077821Y-64103364D02*
X93199741Y-64364621D01*
X93199741Y-64364621D02*
X93321661Y-64103364D01*
X93321661Y-64103364D02*
X93321661Y-64469124D01*
X93495832Y-64469124D02*
X93495832Y-64103364D01*
X93879009Y-64434289D02*
X93861592Y-64451707D01*
X93861592Y-64451707D02*
X93809340Y-64469124D01*
X93809340Y-64469124D02*
X93774506Y-64469124D01*
X93774506Y-64469124D02*
X93722255Y-64451707D01*
X93722255Y-64451707D02*
X93687420Y-64416872D01*
X93687420Y-64416872D02*
X93670003Y-64382038D01*
X93670003Y-64382038D02*
X93652586Y-64312369D01*
X93652586Y-64312369D02*
X93652586Y-64260118D01*
X93652586Y-64260118D02*
X93670003Y-64190449D01*
X93670003Y-64190449D02*
X93687420Y-64155615D01*
X93687420Y-64155615D02*
X93722255Y-64120781D01*
X93722255Y-64120781D02*
X93774506Y-64103364D01*
X93774506Y-64103364D02*
X93809340Y-64103364D01*
X93809340Y-64103364D02*
X93861592Y-64120781D01*
X93861592Y-64120781D02*
X93879009Y-64138198D01*
X94209935Y-64103364D02*
X94035763Y-64103364D01*
X94035763Y-64103364D02*
X94018346Y-64277535D01*
X94018346Y-64277535D02*
X94035763Y-64260118D01*
X94035763Y-64260118D02*
X94070598Y-64242701D01*
X94070598Y-64242701D02*
X94157683Y-64242701D01*
X94157683Y-64242701D02*
X94192518Y-64260118D01*
X94192518Y-64260118D02*
X94209935Y-64277535D01*
X94209935Y-64277535D02*
X94227352Y-64312369D01*
X94227352Y-64312369D02*
X94227352Y-64399455D01*
X94227352Y-64399455D02*
X94209935Y-64434289D01*
X94209935Y-64434289D02*
X94192518Y-64451707D01*
X94192518Y-64451707D02*
X94157683Y-64469124D01*
X94157683Y-64469124D02*
X94070598Y-64469124D01*
X94070598Y-64469124D02*
X94035763Y-64451707D01*
X94035763Y-64451707D02*
X94018346Y-64434289D01*
X94366689Y-64138198D02*
X94384106Y-64120781D01*
X94384106Y-64120781D02*
X94418941Y-64103364D01*
X94418941Y-64103364D02*
X94506026Y-64103364D01*
X94506026Y-64103364D02*
X94540861Y-64120781D01*
X94540861Y-64120781D02*
X94558278Y-64138198D01*
X94558278Y-64138198D02*
X94575695Y-64173032D01*
X94575695Y-64173032D02*
X94575695Y-64207867D01*
X94575695Y-64207867D02*
X94558278Y-64260118D01*
X94558278Y-64260118D02*
X94349272Y-64469124D01*
X94349272Y-64469124D02*
X94575695Y-64469124D01*
X94715032Y-64138198D02*
X94732449Y-64120781D01*
X94732449Y-64120781D02*
X94767284Y-64103364D01*
X94767284Y-64103364D02*
X94854369Y-64103364D01*
X94854369Y-64103364D02*
X94889204Y-64120781D01*
X94889204Y-64120781D02*
X94906621Y-64138198D01*
X94906621Y-64138198D02*
X94924038Y-64173032D01*
X94924038Y-64173032D02*
X94924038Y-64207867D01*
X94924038Y-64207867D02*
X94906621Y-64260118D01*
X94906621Y-64260118D02*
X94697615Y-64469124D01*
X94697615Y-64469124D02*
X94924038Y-64469124D01*
X95254964Y-64103364D02*
X95080792Y-64103364D01*
X95080792Y-64103364D02*
X95063375Y-64277535D01*
X95063375Y-64277535D02*
X95080792Y-64260118D01*
X95080792Y-64260118D02*
X95115627Y-64242701D01*
X95115627Y-64242701D02*
X95202712Y-64242701D01*
X95202712Y-64242701D02*
X95237547Y-64260118D01*
X95237547Y-64260118D02*
X95254964Y-64277535D01*
X95254964Y-64277535D02*
X95272381Y-64312369D01*
X95272381Y-64312369D02*
X95272381Y-64399455D01*
X95272381Y-64399455D02*
X95254964Y-64434289D01*
X95254964Y-64434289D02*
X95237547Y-64451707D01*
X95237547Y-64451707D02*
X95202712Y-64469124D01*
X95202712Y-64469124D02*
X95115627Y-64469124D01*
X95115627Y-64469124D02*
X95080792Y-64451707D01*
X95080792Y-64451707D02*
X95063375Y-64434289D01*
X95429135Y-64329787D02*
X95707810Y-64329787D01*
X95847147Y-64103364D02*
X96073570Y-64103364D01*
X96073570Y-64103364D02*
X95951650Y-64242701D01*
X95951650Y-64242701D02*
X96003901Y-64242701D01*
X96003901Y-64242701D02*
X96038736Y-64260118D01*
X96038736Y-64260118D02*
X96056153Y-64277535D01*
X96056153Y-64277535D02*
X96073570Y-64312369D01*
X96073570Y-64312369D02*
X96073570Y-64399455D01*
X96073570Y-64399455D02*
X96056153Y-64434289D01*
X96056153Y-64434289D02*
X96038736Y-64451707D01*
X96038736Y-64451707D02*
X96003901Y-64469124D01*
X96003901Y-64469124D02*
X95899398Y-64469124D01*
X95899398Y-64469124D02*
X95864564Y-64451707D01*
X95864564Y-64451707D02*
X95847147Y-64434289D01*
X96230324Y-64434289D02*
X96247741Y-64451707D01*
X96247741Y-64451707D02*
X96230324Y-64469124D01*
X96230324Y-64469124D02*
X96212907Y-64451707D01*
X96212907Y-64451707D02*
X96230324Y-64434289D01*
X96230324Y-64434289D02*
X96230324Y-64469124D01*
X96369661Y-64103364D02*
X96596084Y-64103364D01*
X96596084Y-64103364D02*
X96474164Y-64242701D01*
X96474164Y-64242701D02*
X96526415Y-64242701D01*
X96526415Y-64242701D02*
X96561250Y-64260118D01*
X96561250Y-64260118D02*
X96578667Y-64277535D01*
X96578667Y-64277535D02*
X96596084Y-64312369D01*
X96596084Y-64312369D02*
X96596084Y-64399455D01*
X96596084Y-64399455D02*
X96578667Y-64434289D01*
X96578667Y-64434289D02*
X96561250Y-64451707D01*
X96561250Y-64451707D02*
X96526415Y-64469124D01*
X96526415Y-64469124D02*
X96421912Y-64469124D01*
X96421912Y-64469124D02*
X96387078Y-64451707D01*
X96387078Y-64451707D02*
X96369661Y-64434289D01*
D12*
X80415038Y-62413350D02*
X80383300Y-62445088D01*
X80383300Y-62445088D02*
X80288086Y-62476825D01*
X80288086Y-62476825D02*
X80224610Y-62476825D01*
X80224610Y-62476825D02*
X80129397Y-62445088D01*
X80129397Y-62445088D02*
X80065921Y-62381612D01*
X80065921Y-62381612D02*
X80034183Y-62318136D01*
X80034183Y-62318136D02*
X80002445Y-62191184D01*
X80002445Y-62191184D02*
X80002445Y-62095971D01*
X80002445Y-62095971D02*
X80034183Y-61969019D01*
X80034183Y-61969019D02*
X80065921Y-61905543D01*
X80065921Y-61905543D02*
X80129397Y-61842067D01*
X80129397Y-61842067D02*
X80224610Y-61810329D01*
X80224610Y-61810329D02*
X80288086Y-61810329D01*
X80288086Y-61810329D02*
X80383300Y-61842067D01*
X80383300Y-61842067D02*
X80415038Y-61873805D01*
X80732417Y-62476825D02*
X80859369Y-62476825D01*
X80859369Y-62476825D02*
X80922844Y-62445088D01*
X80922844Y-62445088D02*
X80954582Y-62413350D01*
X80954582Y-62413350D02*
X81018058Y-62318136D01*
X81018058Y-62318136D02*
X81049796Y-62191184D01*
X81049796Y-62191184D02*
X81049796Y-61937281D01*
X81049796Y-61937281D02*
X81018058Y-61873805D01*
X81018058Y-61873805D02*
X80986320Y-61842067D01*
X80986320Y-61842067D02*
X80922844Y-61810329D01*
X80922844Y-61810329D02*
X80795893Y-61810329D01*
X80795893Y-61810329D02*
X80732417Y-61842067D01*
X80732417Y-61842067D02*
X80700679Y-61873805D01*
X80700679Y-61873805D02*
X80668941Y-61937281D01*
X80668941Y-61937281D02*
X80668941Y-62095971D01*
X80668941Y-62095971D02*
X80700679Y-62159446D01*
X80700679Y-62159446D02*
X80732417Y-62191184D01*
X80732417Y-62191184D02*
X80795893Y-62222922D01*
X80795893Y-62222922D02*
X80922844Y-62222922D01*
X80922844Y-62222922D02*
X80986320Y-62191184D01*
X80986320Y-62191184D02*
X81018058Y-62159446D01*
X81018058Y-62159446D02*
X81049796Y-62095971D01*
D13*
X80056817Y-63027124D02*
X79847811Y-63027124D01*
X79952314Y-63027124D02*
X79952314Y-62661364D01*
X79952314Y-62661364D02*
X79917480Y-62713615D01*
X79917480Y-62713615D02*
X79882645Y-62748449D01*
X79882645Y-62748449D02*
X79847811Y-62765867D01*
X80283240Y-62661364D02*
X80318074Y-62661364D01*
X80318074Y-62661364D02*
X80352908Y-62678781D01*
X80352908Y-62678781D02*
X80370326Y-62696198D01*
X80370326Y-62696198D02*
X80387743Y-62731032D01*
X80387743Y-62731032D02*
X80405160Y-62800701D01*
X80405160Y-62800701D02*
X80405160Y-62887787D01*
X80405160Y-62887787D02*
X80387743Y-62957455D01*
X80387743Y-62957455D02*
X80370326Y-62992289D01*
X80370326Y-62992289D02*
X80352908Y-63009707D01*
X80352908Y-63009707D02*
X80318074Y-63027124D01*
X80318074Y-63027124D02*
X80283240Y-63027124D01*
X80283240Y-63027124D02*
X80248406Y-63009707D01*
X80248406Y-63009707D02*
X80230988Y-62992289D01*
X80230988Y-62992289D02*
X80213571Y-62957455D01*
X80213571Y-62957455D02*
X80196154Y-62887787D01*
X80196154Y-62887787D02*
X80196154Y-62800701D01*
X80196154Y-62800701D02*
X80213571Y-62731032D01*
X80213571Y-62731032D02*
X80230988Y-62696198D01*
X80230988Y-62696198D02*
X80248406Y-62678781D01*
X80248406Y-62678781D02*
X80283240Y-62661364D01*
X80718669Y-62783284D02*
X80718669Y-63027124D01*
X80561914Y-62783284D02*
X80561914Y-62974872D01*
X80561914Y-62974872D02*
X80579331Y-63009707D01*
X80579331Y-63009707D02*
X80614166Y-63027124D01*
X80614166Y-63027124D02*
X80666417Y-63027124D01*
X80666417Y-63027124D02*
X80701251Y-63009707D01*
X80701251Y-63009707D02*
X80718669Y-62992289D01*
X81014760Y-62835535D02*
X80892840Y-62835535D01*
X80892840Y-63027124D02*
X80892840Y-62661364D01*
X80892840Y-62661364D02*
X81067012Y-62661364D01*
D12*
X79907280Y-67747350D02*
X79875542Y-67779088D01*
X79875542Y-67779088D02*
X79780328Y-67810825D01*
X79780328Y-67810825D02*
X79716852Y-67810825D01*
X79716852Y-67810825D02*
X79621639Y-67779088D01*
X79621639Y-67779088D02*
X79558163Y-67715612D01*
X79558163Y-67715612D02*
X79526425Y-67652136D01*
X79526425Y-67652136D02*
X79494687Y-67525184D01*
X79494687Y-67525184D02*
X79494687Y-67429971D01*
X79494687Y-67429971D02*
X79526425Y-67303019D01*
X79526425Y-67303019D02*
X79558163Y-67239543D01*
X79558163Y-67239543D02*
X79621639Y-67176067D01*
X79621639Y-67176067D02*
X79716852Y-67144329D01*
X79716852Y-67144329D02*
X79780328Y-67144329D01*
X79780328Y-67144329D02*
X79875542Y-67176067D01*
X79875542Y-67176067D02*
X79907280Y-67207805D01*
X80542038Y-67810825D02*
X80161183Y-67810825D01*
X80351611Y-67810825D02*
X80351611Y-67144329D01*
X80351611Y-67144329D02*
X80288135Y-67239543D01*
X80288135Y-67239543D02*
X80224659Y-67303019D01*
X80224659Y-67303019D02*
X80161183Y-67334757D01*
X81176796Y-67810825D02*
X80795941Y-67810825D01*
X80986369Y-67810825D02*
X80986369Y-67144329D01*
X80986369Y-67144329D02*
X80922893Y-67239543D01*
X80922893Y-67239543D02*
X80859417Y-67303019D01*
X80859417Y-67303019D02*
X80795941Y-67334757D01*
D13*
X79887726Y-67995364D02*
X79922560Y-67995364D01*
X79922560Y-67995364D02*
X79957394Y-68012781D01*
X79957394Y-68012781D02*
X79974812Y-68030198D01*
X79974812Y-68030198D02*
X79992229Y-68065032D01*
X79992229Y-68065032D02*
X80009646Y-68134701D01*
X80009646Y-68134701D02*
X80009646Y-68221787D01*
X80009646Y-68221787D02*
X79992229Y-68291455D01*
X79992229Y-68291455D02*
X79974812Y-68326289D01*
X79974812Y-68326289D02*
X79957394Y-68343707D01*
X79957394Y-68343707D02*
X79922560Y-68361124D01*
X79922560Y-68361124D02*
X79887726Y-68361124D01*
X79887726Y-68361124D02*
X79852892Y-68343707D01*
X79852892Y-68343707D02*
X79835474Y-68326289D01*
X79835474Y-68326289D02*
X79818057Y-68291455D01*
X79818057Y-68291455D02*
X79800640Y-68221787D01*
X79800640Y-68221787D02*
X79800640Y-68134701D01*
X79800640Y-68134701D02*
X79818057Y-68065032D01*
X79818057Y-68065032D02*
X79835474Y-68030198D01*
X79835474Y-68030198D02*
X79852892Y-68012781D01*
X79852892Y-68012781D02*
X79887726Y-67995364D01*
X80166400Y-68326289D02*
X80183817Y-68343707D01*
X80183817Y-68343707D02*
X80166400Y-68361124D01*
X80166400Y-68361124D02*
X80148983Y-68343707D01*
X80148983Y-68343707D02*
X80166400Y-68326289D01*
X80166400Y-68326289D02*
X80166400Y-68361124D01*
X80532160Y-68361124D02*
X80323154Y-68361124D01*
X80427657Y-68361124D02*
X80427657Y-67995364D01*
X80427657Y-67995364D02*
X80392823Y-68047615D01*
X80392823Y-68047615D02*
X80357988Y-68082449D01*
X80357988Y-68082449D02*
X80323154Y-68099867D01*
X80845669Y-68117284D02*
X80845669Y-68361124D01*
X80688914Y-68117284D02*
X80688914Y-68308872D01*
X80688914Y-68308872D02*
X80706331Y-68343707D01*
X80706331Y-68343707D02*
X80741166Y-68361124D01*
X80741166Y-68361124D02*
X80793417Y-68361124D01*
X80793417Y-68361124D02*
X80828251Y-68343707D01*
X80828251Y-68343707D02*
X80845669Y-68326289D01*
X81141760Y-68169535D02*
X81019840Y-68169535D01*
X81019840Y-68361124D02*
X81019840Y-67995364D01*
X81019840Y-67995364D02*
X81194012Y-67995364D01*
D12*
X95027038Y-97065825D02*
X94804873Y-96748446D01*
X94646183Y-97065825D02*
X94646183Y-96399329D01*
X94646183Y-96399329D02*
X94900086Y-96399329D01*
X94900086Y-96399329D02*
X94963562Y-96431067D01*
X94963562Y-96431067D02*
X94995300Y-96462805D01*
X94995300Y-96462805D02*
X95027038Y-96526281D01*
X95027038Y-96526281D02*
X95027038Y-96621495D01*
X95027038Y-96621495D02*
X94995300Y-96684971D01*
X94995300Y-96684971D02*
X94963562Y-96716708D01*
X94963562Y-96716708D02*
X94900086Y-96748446D01*
X94900086Y-96748446D02*
X94646183Y-96748446D01*
X95661796Y-97065825D02*
X95280941Y-97065825D01*
X95471369Y-97065825D02*
X95471369Y-96399329D01*
X95471369Y-96399329D02*
X95407893Y-96494543D01*
X95407893Y-96494543D02*
X95344417Y-96558019D01*
X95344417Y-96558019D02*
X95280941Y-96589757D01*
D13*
X94820492Y-97616124D02*
X94611486Y-97616124D01*
X94715989Y-97616124D02*
X94715989Y-97250364D01*
X94715989Y-97250364D02*
X94681155Y-97302615D01*
X94681155Y-97302615D02*
X94646320Y-97337449D01*
X94646320Y-97337449D02*
X94611486Y-97354867D01*
X95046915Y-97250364D02*
X95081749Y-97250364D01*
X95081749Y-97250364D02*
X95116583Y-97267781D01*
X95116583Y-97267781D02*
X95134001Y-97285198D01*
X95134001Y-97285198D02*
X95151418Y-97320032D01*
X95151418Y-97320032D02*
X95168835Y-97389701D01*
X95168835Y-97389701D02*
X95168835Y-97476787D01*
X95168835Y-97476787D02*
X95151418Y-97546455D01*
X95151418Y-97546455D02*
X95134001Y-97581289D01*
X95134001Y-97581289D02*
X95116583Y-97598707D01*
X95116583Y-97598707D02*
X95081749Y-97616124D01*
X95081749Y-97616124D02*
X95046915Y-97616124D01*
X95046915Y-97616124D02*
X95012081Y-97598707D01*
X95012081Y-97598707D02*
X94994663Y-97581289D01*
X94994663Y-97581289D02*
X94977246Y-97546455D01*
X94977246Y-97546455D02*
X94959829Y-97476787D01*
X94959829Y-97476787D02*
X94959829Y-97389701D01*
X94959829Y-97389701D02*
X94977246Y-97320032D01*
X94977246Y-97320032D02*
X94994663Y-97285198D01*
X94994663Y-97285198D02*
X95012081Y-97267781D01*
X95012081Y-97267781D02*
X95046915Y-97250364D01*
X95325589Y-97616124D02*
X95325589Y-97250364D01*
X95534595Y-97616124D02*
X95377841Y-97407118D01*
X95534595Y-97250364D02*
X95325589Y-97459369D01*
D12*
X98171796Y-66522350D02*
X98140058Y-66554088D01*
X98140058Y-66554088D02*
X98044844Y-66585825D01*
X98044844Y-66585825D02*
X97981368Y-66585825D01*
X97981368Y-66585825D02*
X97886155Y-66554088D01*
X97886155Y-66554088D02*
X97822679Y-66490612D01*
X97822679Y-66490612D02*
X97790941Y-66427136D01*
X97790941Y-66427136D02*
X97759203Y-66300184D01*
X97759203Y-66300184D02*
X97759203Y-66204971D01*
X97759203Y-66204971D02*
X97790941Y-66078019D01*
X97790941Y-66078019D02*
X97822679Y-66014543D01*
X97822679Y-66014543D02*
X97886155Y-65951067D01*
X97886155Y-65951067D02*
X97981368Y-65919329D01*
X97981368Y-65919329D02*
X98044844Y-65919329D01*
X98044844Y-65919329D02*
X98140058Y-65951067D01*
X98140058Y-65951067D02*
X98171796Y-65982805D01*
X98806554Y-66585825D02*
X98425699Y-66585825D01*
X98616127Y-66585825D02*
X98616127Y-65919329D01*
X98616127Y-65919329D02*
X98552651Y-66014543D01*
X98552651Y-66014543D02*
X98489175Y-66078019D01*
X98489175Y-66078019D02*
X98425699Y-66109757D01*
X99377836Y-66141495D02*
X99377836Y-66585825D01*
X99219147Y-65887592D02*
X99060457Y-66363660D01*
X99060457Y-66363660D02*
X99473050Y-66363660D01*
D13*
X101148490Y-66262364D02*
X101183324Y-66262364D01*
X101183324Y-66262364D02*
X101218158Y-66279781D01*
X101218158Y-66279781D02*
X101235576Y-66297198D01*
X101235576Y-66297198D02*
X101252993Y-66332032D01*
X101252993Y-66332032D02*
X101270410Y-66401701D01*
X101270410Y-66401701D02*
X101270410Y-66488787D01*
X101270410Y-66488787D02*
X101252993Y-66558455D01*
X101252993Y-66558455D02*
X101235576Y-66593289D01*
X101235576Y-66593289D02*
X101218158Y-66610707D01*
X101218158Y-66610707D02*
X101183324Y-66628124D01*
X101183324Y-66628124D02*
X101148490Y-66628124D01*
X101148490Y-66628124D02*
X101113656Y-66610707D01*
X101113656Y-66610707D02*
X101096238Y-66593289D01*
X101096238Y-66593289D02*
X101078821Y-66558455D01*
X101078821Y-66558455D02*
X101061404Y-66488787D01*
X101061404Y-66488787D02*
X101061404Y-66401701D01*
X101061404Y-66401701D02*
X101078821Y-66332032D01*
X101078821Y-66332032D02*
X101096238Y-66297198D01*
X101096238Y-66297198D02*
X101113656Y-66279781D01*
X101113656Y-66279781D02*
X101148490Y-66262364D01*
X101427164Y-66593289D02*
X101444581Y-66610707D01*
X101444581Y-66610707D02*
X101427164Y-66628124D01*
X101427164Y-66628124D02*
X101409747Y-66610707D01*
X101409747Y-66610707D02*
X101427164Y-66593289D01*
X101427164Y-66593289D02*
X101427164Y-66628124D01*
X101792924Y-66628124D02*
X101583918Y-66628124D01*
X101688421Y-66628124D02*
X101688421Y-66262364D01*
X101688421Y-66262364D02*
X101653587Y-66314615D01*
X101653587Y-66314615D02*
X101618752Y-66349449D01*
X101618752Y-66349449D02*
X101583918Y-66366867D01*
X102106433Y-66384284D02*
X102106433Y-66628124D01*
X101949678Y-66384284D02*
X101949678Y-66575872D01*
X101949678Y-66575872D02*
X101967095Y-66610707D01*
X101967095Y-66610707D02*
X102001930Y-66628124D01*
X102001930Y-66628124D02*
X102054181Y-66628124D01*
X102054181Y-66628124D02*
X102089015Y-66610707D01*
X102089015Y-66610707D02*
X102106433Y-66593289D01*
X102402524Y-66436535D02*
X102280604Y-66436535D01*
X102280604Y-66628124D02*
X102280604Y-66262364D01*
X102280604Y-66262364D02*
X102454776Y-66262364D01*
D12*
X79907280Y-65080350D02*
X79875542Y-65112088D01*
X79875542Y-65112088D02*
X79780328Y-65143825D01*
X79780328Y-65143825D02*
X79716852Y-65143825D01*
X79716852Y-65143825D02*
X79621639Y-65112088D01*
X79621639Y-65112088D02*
X79558163Y-65048612D01*
X79558163Y-65048612D02*
X79526425Y-64985136D01*
X79526425Y-64985136D02*
X79494687Y-64858184D01*
X79494687Y-64858184D02*
X79494687Y-64762971D01*
X79494687Y-64762971D02*
X79526425Y-64636019D01*
X79526425Y-64636019D02*
X79558163Y-64572543D01*
X79558163Y-64572543D02*
X79621639Y-64509067D01*
X79621639Y-64509067D02*
X79716852Y-64477329D01*
X79716852Y-64477329D02*
X79780328Y-64477329D01*
X79780328Y-64477329D02*
X79875542Y-64509067D01*
X79875542Y-64509067D02*
X79907280Y-64540805D01*
X80542038Y-65143825D02*
X80161183Y-65143825D01*
X80351611Y-65143825D02*
X80351611Y-64477329D01*
X80351611Y-64477329D02*
X80288135Y-64572543D01*
X80288135Y-64572543D02*
X80224659Y-64636019D01*
X80224659Y-64636019D02*
X80161183Y-64667757D01*
X80954631Y-64477329D02*
X81018106Y-64477329D01*
X81018106Y-64477329D02*
X81081582Y-64509067D01*
X81081582Y-64509067D02*
X81113320Y-64540805D01*
X81113320Y-64540805D02*
X81145058Y-64604281D01*
X81145058Y-64604281D02*
X81176796Y-64731233D01*
X81176796Y-64731233D02*
X81176796Y-64889922D01*
X81176796Y-64889922D02*
X81145058Y-65016874D01*
X81145058Y-65016874D02*
X81113320Y-65080350D01*
X81113320Y-65080350D02*
X81081582Y-65112088D01*
X81081582Y-65112088D02*
X81018106Y-65143825D01*
X81018106Y-65143825D02*
X80954631Y-65143825D01*
X80954631Y-65143825D02*
X80891155Y-65112088D01*
X80891155Y-65112088D02*
X80859417Y-65080350D01*
X80859417Y-65080350D02*
X80827679Y-65016874D01*
X80827679Y-65016874D02*
X80795941Y-64889922D01*
X80795941Y-64889922D02*
X80795941Y-64731233D01*
X80795941Y-64731233D02*
X80827679Y-64604281D01*
X80827679Y-64604281D02*
X80859417Y-64540805D01*
X80859417Y-64540805D02*
X80891155Y-64509067D01*
X80891155Y-64509067D02*
X80954631Y-64477329D01*
D13*
X80183817Y-65694124D02*
X79974811Y-65694124D01*
X80079314Y-65694124D02*
X80079314Y-65328364D01*
X80079314Y-65328364D02*
X80044480Y-65380615D01*
X80044480Y-65380615D02*
X80009645Y-65415449D01*
X80009645Y-65415449D02*
X79974811Y-65432867D01*
X80410240Y-65328364D02*
X80445074Y-65328364D01*
X80445074Y-65328364D02*
X80479908Y-65345781D01*
X80479908Y-65345781D02*
X80497326Y-65363198D01*
X80497326Y-65363198D02*
X80514743Y-65398032D01*
X80514743Y-65398032D02*
X80532160Y-65467701D01*
X80532160Y-65467701D02*
X80532160Y-65554787D01*
X80532160Y-65554787D02*
X80514743Y-65624455D01*
X80514743Y-65624455D02*
X80497326Y-65659289D01*
X80497326Y-65659289D02*
X80479908Y-65676707D01*
X80479908Y-65676707D02*
X80445074Y-65694124D01*
X80445074Y-65694124D02*
X80410240Y-65694124D01*
X80410240Y-65694124D02*
X80375406Y-65676707D01*
X80375406Y-65676707D02*
X80357988Y-65659289D01*
X80357988Y-65659289D02*
X80340571Y-65624455D01*
X80340571Y-65624455D02*
X80323154Y-65554787D01*
X80323154Y-65554787D02*
X80323154Y-65467701D01*
X80323154Y-65467701D02*
X80340571Y-65398032D01*
X80340571Y-65398032D02*
X80357988Y-65363198D01*
X80357988Y-65363198D02*
X80375406Y-65345781D01*
X80375406Y-65345781D02*
X80410240Y-65328364D01*
X80845669Y-65450284D02*
X80845669Y-65694124D01*
X80688914Y-65450284D02*
X80688914Y-65641872D01*
X80688914Y-65641872D02*
X80706331Y-65676707D01*
X80706331Y-65676707D02*
X80741166Y-65694124D01*
X80741166Y-65694124D02*
X80793417Y-65694124D01*
X80793417Y-65694124D02*
X80828251Y-65676707D01*
X80828251Y-65676707D02*
X80845669Y-65659289D01*
X81141760Y-65502535D02*
X81019840Y-65502535D01*
X81019840Y-65694124D02*
X81019840Y-65328364D01*
X81019840Y-65328364D02*
X81194012Y-65328364D01*
D14*
X87393000Y-93449031D02*
X87361572Y-93480460D01*
X87361572Y-93480460D02*
X87267286Y-93511888D01*
X87267286Y-93511888D02*
X87204429Y-93511888D01*
X87204429Y-93511888D02*
X87110143Y-93480460D01*
X87110143Y-93480460D02*
X87047286Y-93417602D01*
X87047286Y-93417602D02*
X87015857Y-93354745D01*
X87015857Y-93354745D02*
X86984429Y-93229031D01*
X86984429Y-93229031D02*
X86984429Y-93134745D01*
X86984429Y-93134745D02*
X87015857Y-93009031D01*
X87015857Y-93009031D02*
X87047286Y-92946174D01*
X87047286Y-92946174D02*
X87110143Y-92883317D01*
X87110143Y-92883317D02*
X87204429Y-92851888D01*
X87204429Y-92851888D02*
X87267286Y-92851888D01*
X87267286Y-92851888D02*
X87361572Y-92883317D01*
X87361572Y-92883317D02*
X87393000Y-92914745D01*
X87613000Y-92851888D02*
X88021572Y-92851888D01*
X88021572Y-92851888D02*
X87801572Y-93103317D01*
X87801572Y-93103317D02*
X87895857Y-93103317D01*
X87895857Y-93103317D02*
X87958715Y-93134745D01*
X87958715Y-93134745D02*
X87990143Y-93166174D01*
X87990143Y-93166174D02*
X88021572Y-93229031D01*
X88021572Y-93229031D02*
X88021572Y-93386174D01*
X88021572Y-93386174D02*
X87990143Y-93449031D01*
X87990143Y-93449031D02*
X87958715Y-93480460D01*
X87958715Y-93480460D02*
X87895857Y-93511888D01*
X87895857Y-93511888D02*
X87707286Y-93511888D01*
X87707286Y-93511888D02*
X87644429Y-93480460D01*
X87644429Y-93480460D02*
X87613000Y-93449031D01*
X87072653Y-93869882D02*
X86979761Y-93869882D01*
X86979761Y-93869882D02*
X86933315Y-93893105D01*
X86933315Y-93893105D02*
X86910093Y-93916328D01*
X86910093Y-93916328D02*
X86863647Y-93985997D01*
X86863647Y-93985997D02*
X86840424Y-94078888D01*
X86840424Y-94078888D02*
X86840424Y-94264671D01*
X86840424Y-94264671D02*
X86863647Y-94311117D01*
X86863647Y-94311117D02*
X86886870Y-94334340D01*
X86886870Y-94334340D02*
X86933315Y-94357562D01*
X86933315Y-94357562D02*
X87026207Y-94357562D01*
X87026207Y-94357562D02*
X87072653Y-94334340D01*
X87072653Y-94334340D02*
X87095875Y-94311117D01*
X87095875Y-94311117D02*
X87119098Y-94264671D01*
X87119098Y-94264671D02*
X87119098Y-94148557D01*
X87119098Y-94148557D02*
X87095875Y-94102111D01*
X87095875Y-94102111D02*
X87072653Y-94078888D01*
X87072653Y-94078888D02*
X87026207Y-94055665D01*
X87026207Y-94055665D02*
X86933315Y-94055665D01*
X86933315Y-94055665D02*
X86886870Y-94078888D01*
X86886870Y-94078888D02*
X86863647Y-94102111D01*
X86863647Y-94102111D02*
X86840424Y-94148557D01*
X87397772Y-94078888D02*
X87351327Y-94055665D01*
X87351327Y-94055665D02*
X87328104Y-94032442D01*
X87328104Y-94032442D02*
X87304881Y-93985997D01*
X87304881Y-93985997D02*
X87304881Y-93962774D01*
X87304881Y-93962774D02*
X87328104Y-93916328D01*
X87328104Y-93916328D02*
X87351327Y-93893105D01*
X87351327Y-93893105D02*
X87397772Y-93869882D01*
X87397772Y-93869882D02*
X87490664Y-93869882D01*
X87490664Y-93869882D02*
X87537110Y-93893105D01*
X87537110Y-93893105D02*
X87560332Y-93916328D01*
X87560332Y-93916328D02*
X87583555Y-93962774D01*
X87583555Y-93962774D02*
X87583555Y-93985997D01*
X87583555Y-93985997D02*
X87560332Y-94032442D01*
X87560332Y-94032442D02*
X87537110Y-94055665D01*
X87537110Y-94055665D02*
X87490664Y-94078888D01*
X87490664Y-94078888D02*
X87397772Y-94078888D01*
X87397772Y-94078888D02*
X87351327Y-94102111D01*
X87351327Y-94102111D02*
X87328104Y-94125334D01*
X87328104Y-94125334D02*
X87304881Y-94171780D01*
X87304881Y-94171780D02*
X87304881Y-94264671D01*
X87304881Y-94264671D02*
X87328104Y-94311117D01*
X87328104Y-94311117D02*
X87351327Y-94334340D01*
X87351327Y-94334340D02*
X87397772Y-94357562D01*
X87397772Y-94357562D02*
X87490664Y-94357562D01*
X87490664Y-94357562D02*
X87537110Y-94334340D01*
X87537110Y-94334340D02*
X87560332Y-94311117D01*
X87560332Y-94311117D02*
X87583555Y-94264671D01*
X87583555Y-94264671D02*
X87583555Y-94171780D01*
X87583555Y-94171780D02*
X87560332Y-94125334D01*
X87560332Y-94125334D02*
X87537110Y-94102111D01*
X87537110Y-94102111D02*
X87490664Y-94078888D01*
X88001567Y-94032442D02*
X88001567Y-94357562D01*
X87792561Y-94032442D02*
X87792561Y-94287894D01*
X87792561Y-94287894D02*
X87815784Y-94334340D01*
X87815784Y-94334340D02*
X87862229Y-94357562D01*
X87862229Y-94357562D02*
X87931898Y-94357562D01*
X87931898Y-94357562D02*
X87978344Y-94334340D01*
X87978344Y-94334340D02*
X88001567Y-94311117D01*
X88396355Y-94102111D02*
X88233795Y-94102111D01*
X88233795Y-94357562D02*
X88233795Y-93869882D01*
X88233795Y-93869882D02*
X88466023Y-93869882D01*
X88651806Y-94171780D02*
X89023372Y-94171780D01*
X89511051Y-94357562D02*
X89232377Y-94357562D01*
X89371714Y-94357562D02*
X89371714Y-93869882D01*
X89371714Y-93869882D02*
X89325268Y-93939551D01*
X89325268Y-93939551D02*
X89278823Y-93985997D01*
X89278823Y-93985997D02*
X89232377Y-94009220D01*
X89812948Y-93869882D02*
X89859394Y-93869882D01*
X89859394Y-93869882D02*
X89905840Y-93893105D01*
X89905840Y-93893105D02*
X89929063Y-93916328D01*
X89929063Y-93916328D02*
X89952285Y-93962774D01*
X89952285Y-93962774D02*
X89975508Y-94055665D01*
X89975508Y-94055665D02*
X89975508Y-94171780D01*
X89975508Y-94171780D02*
X89952285Y-94264671D01*
X89952285Y-94264671D02*
X89929063Y-94311117D01*
X89929063Y-94311117D02*
X89905840Y-94334340D01*
X89905840Y-94334340D02*
X89859394Y-94357562D01*
X89859394Y-94357562D02*
X89812948Y-94357562D01*
X89812948Y-94357562D02*
X89766503Y-94334340D01*
X89766503Y-94334340D02*
X89743280Y-94311117D01*
X89743280Y-94311117D02*
X89720057Y-94264671D01*
X89720057Y-94264671D02*
X89696834Y-94171780D01*
X89696834Y-94171780D02*
X89696834Y-94055665D01*
X89696834Y-94055665D02*
X89720057Y-93962774D01*
X89720057Y-93962774D02*
X89743280Y-93916328D01*
X89743280Y-93916328D02*
X89766503Y-93893105D01*
X89766503Y-93893105D02*
X89812948Y-93869882D01*
X90114845Y-93869882D02*
X90277405Y-94357562D01*
X90277405Y-94357562D02*
X90439965Y-93869882D01*
X90602525Y-94171780D02*
X90974091Y-94171780D01*
X91461770Y-94357562D02*
X91183096Y-94357562D01*
X91322433Y-94357562D02*
X91322433Y-93869882D01*
X91322433Y-93869882D02*
X91275987Y-93939551D01*
X91275987Y-93939551D02*
X91229542Y-93985997D01*
X91229542Y-93985997D02*
X91183096Y-94009220D01*
X91763667Y-93869882D02*
X91810113Y-93869882D01*
X91810113Y-93869882D02*
X91856559Y-93893105D01*
X91856559Y-93893105D02*
X91879782Y-93916328D01*
X91879782Y-93916328D02*
X91903004Y-93962774D01*
X91903004Y-93962774D02*
X91926227Y-94055665D01*
X91926227Y-94055665D02*
X91926227Y-94171780D01*
X91926227Y-94171780D02*
X91903004Y-94264671D01*
X91903004Y-94264671D02*
X91879782Y-94311117D01*
X91879782Y-94311117D02*
X91856559Y-94334340D01*
X91856559Y-94334340D02*
X91810113Y-94357562D01*
X91810113Y-94357562D02*
X91763667Y-94357562D01*
X91763667Y-94357562D02*
X91717222Y-94334340D01*
X91717222Y-94334340D02*
X91693999Y-94311117D01*
X91693999Y-94311117D02*
X91670776Y-94264671D01*
X91670776Y-94264671D02*
X91647553Y-94171780D01*
X91647553Y-94171780D02*
X91647553Y-94055665D01*
X91647553Y-94055665D02*
X91670776Y-93962774D01*
X91670776Y-93962774D02*
X91693999Y-93916328D01*
X91693999Y-93916328D02*
X91717222Y-93893105D01*
X91717222Y-93893105D02*
X91763667Y-93869882D01*
X92112010Y-94357562D02*
X92483576Y-93869882D01*
X92181679Y-93869882D02*
X92228124Y-93893105D01*
X92228124Y-93893105D02*
X92251347Y-93939551D01*
X92251347Y-93939551D02*
X92228124Y-93985997D01*
X92228124Y-93985997D02*
X92181679Y-94009220D01*
X92181679Y-94009220D02*
X92135233Y-93985997D01*
X92135233Y-93985997D02*
X92112010Y-93939551D01*
X92112010Y-93939551D02*
X92135233Y-93893105D01*
X92135233Y-93893105D02*
X92181679Y-93869882D01*
X92460353Y-94334340D02*
X92483576Y-94287894D01*
X92483576Y-94287894D02*
X92460353Y-94241448D01*
X92460353Y-94241448D02*
X92413907Y-94218225D01*
X92413907Y-94218225D02*
X92367461Y-94241448D01*
X92367461Y-94241448D02*
X92344239Y-94287894D01*
X92344239Y-94287894D02*
X92367461Y-94334340D01*
X92367461Y-94334340D02*
X92413907Y-94357562D01*
X92413907Y-94357562D02*
X92460353Y-94334340D01*
D12*
X99218038Y-92938350D02*
X99186300Y-92970088D01*
X99186300Y-92970088D02*
X99091086Y-93001825D01*
X99091086Y-93001825D02*
X99027610Y-93001825D01*
X99027610Y-93001825D02*
X98932397Y-92970088D01*
X98932397Y-92970088D02*
X98868921Y-92906612D01*
X98868921Y-92906612D02*
X98837183Y-92843136D01*
X98837183Y-92843136D02*
X98805445Y-92716184D01*
X98805445Y-92716184D02*
X98805445Y-92620971D01*
X98805445Y-92620971D02*
X98837183Y-92494019D01*
X98837183Y-92494019D02*
X98868921Y-92430543D01*
X98868921Y-92430543D02*
X98932397Y-92367067D01*
X98932397Y-92367067D02*
X99027610Y-92335329D01*
X99027610Y-92335329D02*
X99091086Y-92335329D01*
X99091086Y-92335329D02*
X99186300Y-92367067D01*
X99186300Y-92367067D02*
X99218038Y-92398805D01*
X99471941Y-92398805D02*
X99503679Y-92367067D01*
X99503679Y-92367067D02*
X99567155Y-92335329D01*
X99567155Y-92335329D02*
X99725844Y-92335329D01*
X99725844Y-92335329D02*
X99789320Y-92367067D01*
X99789320Y-92367067D02*
X99821058Y-92398805D01*
X99821058Y-92398805D02*
X99852796Y-92462281D01*
X99852796Y-92462281D02*
X99852796Y-92525757D01*
X99852796Y-92525757D02*
X99821058Y-92620971D01*
X99821058Y-92620971D02*
X99440203Y-93001825D01*
X99440203Y-93001825D02*
X99852796Y-93001825D01*
D13*
X99081160Y-93679124D02*
X98872154Y-93679124D01*
X98976657Y-93679124D02*
X98976657Y-93313364D01*
X98976657Y-93313364D02*
X98941823Y-93365615D01*
X98941823Y-93365615D02*
X98906988Y-93400449D01*
X98906988Y-93400449D02*
X98872154Y-93417867D01*
X99394669Y-93435284D02*
X99394669Y-93679124D01*
X99237914Y-93435284D02*
X99237914Y-93626872D01*
X99237914Y-93626872D02*
X99255331Y-93661707D01*
X99255331Y-93661707D02*
X99290166Y-93679124D01*
X99290166Y-93679124D02*
X99342417Y-93679124D01*
X99342417Y-93679124D02*
X99377251Y-93661707D01*
X99377251Y-93661707D02*
X99394669Y-93644289D01*
X99690760Y-93487535D02*
X99568840Y-93487535D01*
X99568840Y-93679124D02*
X99568840Y-93313364D01*
X99568840Y-93313364D02*
X99743012Y-93313364D01*
D12*
X95123796Y-99097825D02*
X94901631Y-98780446D01*
X94742941Y-99097825D02*
X94742941Y-98431329D01*
X94742941Y-98431329D02*
X94996844Y-98431329D01*
X94996844Y-98431329D02*
X95060320Y-98463067D01*
X95060320Y-98463067D02*
X95092058Y-98494805D01*
X95092058Y-98494805D02*
X95123796Y-98558281D01*
X95123796Y-98558281D02*
X95123796Y-98653495D01*
X95123796Y-98653495D02*
X95092058Y-98716971D01*
X95092058Y-98716971D02*
X95060320Y-98748708D01*
X95060320Y-98748708D02*
X94996844Y-98780446D01*
X94996844Y-98780446D02*
X94742941Y-98780446D01*
X95377699Y-98494805D02*
X95409437Y-98463067D01*
X95409437Y-98463067D02*
X95472913Y-98431329D01*
X95472913Y-98431329D02*
X95631602Y-98431329D01*
X95631602Y-98431329D02*
X95695078Y-98463067D01*
X95695078Y-98463067D02*
X95726816Y-98494805D01*
X95726816Y-98494805D02*
X95758554Y-98558281D01*
X95758554Y-98558281D02*
X95758554Y-98621757D01*
X95758554Y-98621757D02*
X95726816Y-98716971D01*
X95726816Y-98716971D02*
X95345961Y-99097825D01*
X95345961Y-99097825D02*
X95758554Y-99097825D01*
D13*
X94920410Y-99648124D02*
X94711404Y-99648124D01*
X94815907Y-99648124D02*
X94815907Y-99282364D01*
X94815907Y-99282364D02*
X94781073Y-99334615D01*
X94781073Y-99334615D02*
X94746238Y-99369449D01*
X94746238Y-99369449D02*
X94711404Y-99386867D01*
X95077164Y-99648124D02*
X95077164Y-99282364D01*
X95286170Y-99648124D02*
X95129416Y-99439118D01*
X95286170Y-99282364D02*
X95077164Y-99491369D01*
D12*
X80415038Y-59873350D02*
X80383300Y-59905088D01*
X80383300Y-59905088D02*
X80288086Y-59936825D01*
X80288086Y-59936825D02*
X80224610Y-59936825D01*
X80224610Y-59936825D02*
X80129397Y-59905088D01*
X80129397Y-59905088D02*
X80065921Y-59841612D01*
X80065921Y-59841612D02*
X80034183Y-59778136D01*
X80034183Y-59778136D02*
X80002445Y-59651184D01*
X80002445Y-59651184D02*
X80002445Y-59555971D01*
X80002445Y-59555971D02*
X80034183Y-59429019D01*
X80034183Y-59429019D02*
X80065921Y-59365543D01*
X80065921Y-59365543D02*
X80129397Y-59302067D01*
X80129397Y-59302067D02*
X80224610Y-59270329D01*
X80224610Y-59270329D02*
X80288086Y-59270329D01*
X80288086Y-59270329D02*
X80383300Y-59302067D01*
X80383300Y-59302067D02*
X80415038Y-59333805D01*
X80795893Y-59555971D02*
X80732417Y-59524233D01*
X80732417Y-59524233D02*
X80700679Y-59492495D01*
X80700679Y-59492495D02*
X80668941Y-59429019D01*
X80668941Y-59429019D02*
X80668941Y-59397281D01*
X80668941Y-59397281D02*
X80700679Y-59333805D01*
X80700679Y-59333805D02*
X80732417Y-59302067D01*
X80732417Y-59302067D02*
X80795893Y-59270329D01*
X80795893Y-59270329D02*
X80922844Y-59270329D01*
X80922844Y-59270329D02*
X80986320Y-59302067D01*
X80986320Y-59302067D02*
X81018058Y-59333805D01*
X81018058Y-59333805D02*
X81049796Y-59397281D01*
X81049796Y-59397281D02*
X81049796Y-59429019D01*
X81049796Y-59429019D02*
X81018058Y-59492495D01*
X81018058Y-59492495D02*
X80986320Y-59524233D01*
X80986320Y-59524233D02*
X80922844Y-59555971D01*
X80922844Y-59555971D02*
X80795893Y-59555971D01*
X80795893Y-59555971D02*
X80732417Y-59587708D01*
X80732417Y-59587708D02*
X80700679Y-59619446D01*
X80700679Y-59619446D02*
X80668941Y-59682922D01*
X80668941Y-59682922D02*
X80668941Y-59809874D01*
X80668941Y-59809874D02*
X80700679Y-59873350D01*
X80700679Y-59873350D02*
X80732417Y-59905088D01*
X80732417Y-59905088D02*
X80795893Y-59936825D01*
X80795893Y-59936825D02*
X80922844Y-59936825D01*
X80922844Y-59936825D02*
X80986320Y-59905088D01*
X80986320Y-59905088D02*
X81018058Y-59873350D01*
X81018058Y-59873350D02*
X81049796Y-59809874D01*
X81049796Y-59809874D02*
X81049796Y-59682922D01*
X81049796Y-59682922D02*
X81018058Y-59619446D01*
X81018058Y-59619446D02*
X80986320Y-59587708D01*
X80986320Y-59587708D02*
X80922844Y-59555971D01*
D13*
X80056817Y-60487124D02*
X79847811Y-60487124D01*
X79952314Y-60487124D02*
X79952314Y-60121364D01*
X79952314Y-60121364D02*
X79917480Y-60173615D01*
X79917480Y-60173615D02*
X79882645Y-60208449D01*
X79882645Y-60208449D02*
X79847811Y-60225867D01*
X80283240Y-60121364D02*
X80318074Y-60121364D01*
X80318074Y-60121364D02*
X80352908Y-60138781D01*
X80352908Y-60138781D02*
X80370326Y-60156198D01*
X80370326Y-60156198D02*
X80387743Y-60191032D01*
X80387743Y-60191032D02*
X80405160Y-60260701D01*
X80405160Y-60260701D02*
X80405160Y-60347787D01*
X80405160Y-60347787D02*
X80387743Y-60417455D01*
X80387743Y-60417455D02*
X80370326Y-60452289D01*
X80370326Y-60452289D02*
X80352908Y-60469707D01*
X80352908Y-60469707D02*
X80318074Y-60487124D01*
X80318074Y-60487124D02*
X80283240Y-60487124D01*
X80283240Y-60487124D02*
X80248406Y-60469707D01*
X80248406Y-60469707D02*
X80230988Y-60452289D01*
X80230988Y-60452289D02*
X80213571Y-60417455D01*
X80213571Y-60417455D02*
X80196154Y-60347787D01*
X80196154Y-60347787D02*
X80196154Y-60260701D01*
X80196154Y-60260701D02*
X80213571Y-60191032D01*
X80213571Y-60191032D02*
X80230988Y-60156198D01*
X80230988Y-60156198D02*
X80248406Y-60138781D01*
X80248406Y-60138781D02*
X80283240Y-60121364D01*
X80718669Y-60243284D02*
X80718669Y-60487124D01*
X80561914Y-60243284D02*
X80561914Y-60434872D01*
X80561914Y-60434872D02*
X80579331Y-60469707D01*
X80579331Y-60469707D02*
X80614166Y-60487124D01*
X80614166Y-60487124D02*
X80666417Y-60487124D01*
X80666417Y-60487124D02*
X80701251Y-60469707D01*
X80701251Y-60469707D02*
X80718669Y-60452289D01*
X81014760Y-60295535D02*
X80892840Y-60295535D01*
X80892840Y-60487124D02*
X80892840Y-60121364D01*
X80892840Y-60121364D02*
X81067012Y-60121364D01*
D15*
X99827204Y-58970926D02*
X99512918Y-58970926D01*
X99512918Y-58970926D02*
X99512918Y-58310926D01*
X100015776Y-58373783D02*
X100047204Y-58342355D01*
X100047204Y-58342355D02*
X100110062Y-58310926D01*
X100110062Y-58310926D02*
X100267204Y-58310926D01*
X100267204Y-58310926D02*
X100330062Y-58342355D01*
X100330062Y-58342355D02*
X100361490Y-58373783D01*
X100361490Y-58373783D02*
X100392919Y-58436640D01*
X100392919Y-58436640D02*
X100392919Y-58499498D01*
X100392919Y-58499498D02*
X100361490Y-58593783D01*
X100361490Y-58593783D02*
X99984347Y-58970926D01*
X99984347Y-58970926D02*
X100392919Y-58970926D01*
X99492918Y-59563926D02*
X99458633Y-59546783D01*
X99458633Y-59546783D02*
X99441490Y-59529640D01*
X99441490Y-59529640D02*
X99424347Y-59495355D01*
X99424347Y-59495355D02*
X99424347Y-59478212D01*
X99424347Y-59478212D02*
X99441490Y-59443926D01*
X99441490Y-59443926D02*
X99458633Y-59426783D01*
X99458633Y-59426783D02*
X99492918Y-59409640D01*
X99492918Y-59409640D02*
X99561490Y-59409640D01*
X99561490Y-59409640D02*
X99595776Y-59426783D01*
X99595776Y-59426783D02*
X99612918Y-59443926D01*
X99612918Y-59443926D02*
X99630061Y-59478212D01*
X99630061Y-59478212D02*
X99630061Y-59495355D01*
X99630061Y-59495355D02*
X99612918Y-59529640D01*
X99612918Y-59529640D02*
X99595776Y-59546783D01*
X99595776Y-59546783D02*
X99561490Y-59563926D01*
X99561490Y-59563926D02*
X99492918Y-59563926D01*
X99492918Y-59563926D02*
X99458633Y-59581069D01*
X99458633Y-59581069D02*
X99441490Y-59598212D01*
X99441490Y-59598212D02*
X99424347Y-59632498D01*
X99424347Y-59632498D02*
X99424347Y-59701069D01*
X99424347Y-59701069D02*
X99441490Y-59735355D01*
X99441490Y-59735355D02*
X99458633Y-59752498D01*
X99458633Y-59752498D02*
X99492918Y-59769640D01*
X99492918Y-59769640D02*
X99561490Y-59769640D01*
X99561490Y-59769640D02*
X99595776Y-59752498D01*
X99595776Y-59752498D02*
X99612918Y-59735355D01*
X99612918Y-59735355D02*
X99630061Y-59701069D01*
X99630061Y-59701069D02*
X99630061Y-59632498D01*
X99630061Y-59632498D02*
X99612918Y-59598212D01*
X99612918Y-59598212D02*
X99595776Y-59581069D01*
X99595776Y-59581069D02*
X99561490Y-59563926D01*
X99767204Y-59443926D02*
X99784347Y-59426783D01*
X99784347Y-59426783D02*
X99818633Y-59409640D01*
X99818633Y-59409640D02*
X99904347Y-59409640D01*
X99904347Y-59409640D02*
X99938633Y-59426783D01*
X99938633Y-59426783D02*
X99955775Y-59443926D01*
X99955775Y-59443926D02*
X99972918Y-59478212D01*
X99972918Y-59478212D02*
X99972918Y-59512498D01*
X99972918Y-59512498D02*
X99955775Y-59563926D01*
X99955775Y-59563926D02*
X99750061Y-59769640D01*
X99750061Y-59769640D02*
X99972918Y-59769640D01*
X100127204Y-59529640D02*
X100127204Y-59769640D01*
X100127204Y-59563926D02*
X100144347Y-59546783D01*
X100144347Y-59546783D02*
X100178632Y-59529640D01*
X100178632Y-59529640D02*
X100230061Y-59529640D01*
X100230061Y-59529640D02*
X100264347Y-59546783D01*
X100264347Y-59546783D02*
X100281490Y-59581069D01*
X100281490Y-59581069D02*
X100281490Y-59769640D01*
X100452918Y-59769640D02*
X100452918Y-59409640D01*
X100452918Y-59581069D02*
X100658632Y-59581069D01*
X100658632Y-59769640D02*
X100658632Y-59409640D01*
D12*
X98044796Y-64617350D02*
X98013058Y-64649088D01*
X98013058Y-64649088D02*
X97917844Y-64680825D01*
X97917844Y-64680825D02*
X97854368Y-64680825D01*
X97854368Y-64680825D02*
X97759155Y-64649088D01*
X97759155Y-64649088D02*
X97695679Y-64585612D01*
X97695679Y-64585612D02*
X97663941Y-64522136D01*
X97663941Y-64522136D02*
X97632203Y-64395184D01*
X97632203Y-64395184D02*
X97632203Y-64299971D01*
X97632203Y-64299971D02*
X97663941Y-64173019D01*
X97663941Y-64173019D02*
X97695679Y-64109543D01*
X97695679Y-64109543D02*
X97759155Y-64046067D01*
X97759155Y-64046067D02*
X97854368Y-64014329D01*
X97854368Y-64014329D02*
X97917844Y-64014329D01*
X97917844Y-64014329D02*
X98013058Y-64046067D01*
X98013058Y-64046067D02*
X98044796Y-64077805D01*
X98679554Y-64680825D02*
X98298699Y-64680825D01*
X98489127Y-64680825D02*
X98489127Y-64014329D01*
X98489127Y-64014329D02*
X98425651Y-64109543D01*
X98425651Y-64109543D02*
X98362175Y-64173019D01*
X98362175Y-64173019D02*
X98298699Y-64204757D01*
X98901719Y-64014329D02*
X99314312Y-64014329D01*
X99314312Y-64014329D02*
X99092147Y-64268233D01*
X99092147Y-64268233D02*
X99187360Y-64268233D01*
X99187360Y-64268233D02*
X99250836Y-64299971D01*
X99250836Y-64299971D02*
X99282574Y-64331708D01*
X99282574Y-64331708D02*
X99314312Y-64395184D01*
X99314312Y-64395184D02*
X99314312Y-64553874D01*
X99314312Y-64553874D02*
X99282574Y-64617350D01*
X99282574Y-64617350D02*
X99250836Y-64649088D01*
X99250836Y-64649088D02*
X99187360Y-64680825D01*
X99187360Y-64680825D02*
X98996933Y-64680825D01*
X98996933Y-64680825D02*
X98933457Y-64649088D01*
X98933457Y-64649088D02*
X98901719Y-64617350D01*
D13*
X101397410Y-64723124D02*
X101188404Y-64723124D01*
X101292907Y-64723124D02*
X101292907Y-64357364D01*
X101292907Y-64357364D02*
X101258073Y-64409615D01*
X101258073Y-64409615D02*
X101223238Y-64444449D01*
X101223238Y-64444449D02*
X101188404Y-64461867D01*
X101623833Y-64357364D02*
X101658667Y-64357364D01*
X101658667Y-64357364D02*
X101693501Y-64374781D01*
X101693501Y-64374781D02*
X101710919Y-64392198D01*
X101710919Y-64392198D02*
X101728336Y-64427032D01*
X101728336Y-64427032D02*
X101745753Y-64496701D01*
X101745753Y-64496701D02*
X101745753Y-64583787D01*
X101745753Y-64583787D02*
X101728336Y-64653455D01*
X101728336Y-64653455D02*
X101710919Y-64688289D01*
X101710919Y-64688289D02*
X101693501Y-64705707D01*
X101693501Y-64705707D02*
X101658667Y-64723124D01*
X101658667Y-64723124D02*
X101623833Y-64723124D01*
X101623833Y-64723124D02*
X101588999Y-64705707D01*
X101588999Y-64705707D02*
X101571581Y-64688289D01*
X101571581Y-64688289D02*
X101554164Y-64653455D01*
X101554164Y-64653455D02*
X101536747Y-64583787D01*
X101536747Y-64583787D02*
X101536747Y-64496701D01*
X101536747Y-64496701D02*
X101554164Y-64427032D01*
X101554164Y-64427032D02*
X101571581Y-64392198D01*
X101571581Y-64392198D02*
X101588999Y-64374781D01*
X101588999Y-64374781D02*
X101623833Y-64357364D01*
X102059262Y-64479284D02*
X102059262Y-64723124D01*
X101902507Y-64479284D02*
X101902507Y-64670872D01*
X101902507Y-64670872D02*
X101919924Y-64705707D01*
X101919924Y-64705707D02*
X101954759Y-64723124D01*
X101954759Y-64723124D02*
X102007010Y-64723124D01*
X102007010Y-64723124D02*
X102041844Y-64705707D01*
X102041844Y-64705707D02*
X102059262Y-64688289D01*
X102355353Y-64531535D02*
X102233433Y-64531535D01*
X102233433Y-64723124D02*
X102233433Y-64357364D01*
X102233433Y-64357364D02*
X102407605Y-64357364D01*
D10*
X93858142Y-56025528D02*
X93858142Y-56559814D01*
X93858142Y-56559814D02*
X93889571Y-56622671D01*
X93889571Y-56622671D02*
X93921000Y-56654100D01*
X93921000Y-56654100D02*
X93983857Y-56685528D01*
X93983857Y-56685528D02*
X94109571Y-56685528D01*
X94109571Y-56685528D02*
X94172428Y-56654100D01*
X94172428Y-56654100D02*
X94203857Y-56622671D01*
X94203857Y-56622671D02*
X94235285Y-56559814D01*
X94235285Y-56559814D02*
X94235285Y-56025528D01*
X94863857Y-56025528D02*
X94549571Y-56025528D01*
X94549571Y-56025528D02*
X94518143Y-56339814D01*
X94518143Y-56339814D02*
X94549571Y-56308385D01*
X94549571Y-56308385D02*
X94612429Y-56276957D01*
X94612429Y-56276957D02*
X94769571Y-56276957D01*
X94769571Y-56276957D02*
X94832429Y-56308385D01*
X94832429Y-56308385D02*
X94863857Y-56339814D01*
X94863857Y-56339814D02*
X94895286Y-56402671D01*
X94895286Y-56402671D02*
X94895286Y-56559814D01*
X94895286Y-56559814D02*
X94863857Y-56622671D01*
X94863857Y-56622671D02*
X94832429Y-56654100D01*
X94832429Y-56654100D02*
X94769571Y-56685528D01*
X94769571Y-56685528D02*
X94612429Y-56685528D01*
X94612429Y-56685528D02*
X94549571Y-56654100D01*
X94549571Y-56654100D02*
X94518143Y-56622671D01*
X91234143Y-57482814D02*
X91328429Y-57514242D01*
X91328429Y-57514242D02*
X91359858Y-57545671D01*
X91359858Y-57545671D02*
X91391286Y-57608528D01*
X91391286Y-57608528D02*
X91391286Y-57702814D01*
X91391286Y-57702814D02*
X91359858Y-57765671D01*
X91359858Y-57765671D02*
X91328429Y-57797100D01*
X91328429Y-57797100D02*
X91265572Y-57828528D01*
X91265572Y-57828528D02*
X91014143Y-57828528D01*
X91014143Y-57828528D02*
X91014143Y-57168528D01*
X91014143Y-57168528D02*
X91234143Y-57168528D01*
X91234143Y-57168528D02*
X91297001Y-57199957D01*
X91297001Y-57199957D02*
X91328429Y-57231385D01*
X91328429Y-57231385D02*
X91359858Y-57294242D01*
X91359858Y-57294242D02*
X91359858Y-57357100D01*
X91359858Y-57357100D02*
X91328429Y-57419957D01*
X91328429Y-57419957D02*
X91297001Y-57451385D01*
X91297001Y-57451385D02*
X91234143Y-57482814D01*
X91234143Y-57482814D02*
X91014143Y-57482814D01*
X91674143Y-57828528D02*
X91674143Y-57168528D01*
X91674143Y-57168528D02*
X91894143Y-57639957D01*
X91894143Y-57639957D02*
X92114143Y-57168528D01*
X92114143Y-57168528D02*
X92114143Y-57828528D01*
X92428429Y-57828528D02*
X92428429Y-57168528D01*
X92428429Y-57168528D02*
X92679858Y-57168528D01*
X92679858Y-57168528D02*
X92742715Y-57199957D01*
X92742715Y-57199957D02*
X92774144Y-57231385D01*
X92774144Y-57231385D02*
X92805572Y-57294242D01*
X92805572Y-57294242D02*
X92805572Y-57388528D01*
X92805572Y-57388528D02*
X92774144Y-57451385D01*
X92774144Y-57451385D02*
X92742715Y-57482814D01*
X92742715Y-57482814D02*
X92679858Y-57514242D01*
X92679858Y-57514242D02*
X92428429Y-57514242D01*
X93025572Y-57168528D02*
X93434144Y-57168528D01*
X93434144Y-57168528D02*
X93214144Y-57419957D01*
X93214144Y-57419957D02*
X93308429Y-57419957D01*
X93308429Y-57419957D02*
X93371287Y-57451385D01*
X93371287Y-57451385D02*
X93402715Y-57482814D01*
X93402715Y-57482814D02*
X93434144Y-57545671D01*
X93434144Y-57545671D02*
X93434144Y-57702814D01*
X93434144Y-57702814D02*
X93402715Y-57765671D01*
X93402715Y-57765671D02*
X93371287Y-57797100D01*
X93371287Y-57797100D02*
X93308429Y-57828528D01*
X93308429Y-57828528D02*
X93119858Y-57828528D01*
X93119858Y-57828528D02*
X93057001Y-57797100D01*
X93057001Y-57797100D02*
X93025572Y-57765671D01*
X93811286Y-57451385D02*
X93748429Y-57419957D01*
X93748429Y-57419957D02*
X93717000Y-57388528D01*
X93717000Y-57388528D02*
X93685572Y-57325671D01*
X93685572Y-57325671D02*
X93685572Y-57294242D01*
X93685572Y-57294242D02*
X93717000Y-57231385D01*
X93717000Y-57231385D02*
X93748429Y-57199957D01*
X93748429Y-57199957D02*
X93811286Y-57168528D01*
X93811286Y-57168528D02*
X93937000Y-57168528D01*
X93937000Y-57168528D02*
X93999858Y-57199957D01*
X93999858Y-57199957D02*
X94031286Y-57231385D01*
X94031286Y-57231385D02*
X94062715Y-57294242D01*
X94062715Y-57294242D02*
X94062715Y-57325671D01*
X94062715Y-57325671D02*
X94031286Y-57388528D01*
X94031286Y-57388528D02*
X93999858Y-57419957D01*
X93999858Y-57419957D02*
X93937000Y-57451385D01*
X93937000Y-57451385D02*
X93811286Y-57451385D01*
X93811286Y-57451385D02*
X93748429Y-57482814D01*
X93748429Y-57482814D02*
X93717000Y-57514242D01*
X93717000Y-57514242D02*
X93685572Y-57577100D01*
X93685572Y-57577100D02*
X93685572Y-57702814D01*
X93685572Y-57702814D02*
X93717000Y-57765671D01*
X93717000Y-57765671D02*
X93748429Y-57797100D01*
X93748429Y-57797100D02*
X93811286Y-57828528D01*
X93811286Y-57828528D02*
X93937000Y-57828528D01*
X93937000Y-57828528D02*
X93999858Y-57797100D01*
X93999858Y-57797100D02*
X94031286Y-57765671D01*
X94031286Y-57765671D02*
X94062715Y-57702814D01*
X94062715Y-57702814D02*
X94062715Y-57577100D01*
X94062715Y-57577100D02*
X94031286Y-57514242D01*
X94031286Y-57514242D02*
X93999858Y-57482814D01*
X93999858Y-57482814D02*
X93937000Y-57451385D01*
X94439857Y-57451385D02*
X94377000Y-57419957D01*
X94377000Y-57419957D02*
X94345571Y-57388528D01*
X94345571Y-57388528D02*
X94314143Y-57325671D01*
X94314143Y-57325671D02*
X94314143Y-57294242D01*
X94314143Y-57294242D02*
X94345571Y-57231385D01*
X94345571Y-57231385D02*
X94377000Y-57199957D01*
X94377000Y-57199957D02*
X94439857Y-57168528D01*
X94439857Y-57168528D02*
X94565571Y-57168528D01*
X94565571Y-57168528D02*
X94628429Y-57199957D01*
X94628429Y-57199957D02*
X94659857Y-57231385D01*
X94659857Y-57231385D02*
X94691286Y-57294242D01*
X94691286Y-57294242D02*
X94691286Y-57325671D01*
X94691286Y-57325671D02*
X94659857Y-57388528D01*
X94659857Y-57388528D02*
X94628429Y-57419957D01*
X94628429Y-57419957D02*
X94565571Y-57451385D01*
X94565571Y-57451385D02*
X94439857Y-57451385D01*
X94439857Y-57451385D02*
X94377000Y-57482814D01*
X94377000Y-57482814D02*
X94345571Y-57514242D01*
X94345571Y-57514242D02*
X94314143Y-57577100D01*
X94314143Y-57577100D02*
X94314143Y-57702814D01*
X94314143Y-57702814D02*
X94345571Y-57765671D01*
X94345571Y-57765671D02*
X94377000Y-57797100D01*
X94377000Y-57797100D02*
X94439857Y-57828528D01*
X94439857Y-57828528D02*
X94565571Y-57828528D01*
X94565571Y-57828528D02*
X94628429Y-57797100D01*
X94628429Y-57797100D02*
X94659857Y-57765671D01*
X94659857Y-57765671D02*
X94691286Y-57702814D01*
X94691286Y-57702814D02*
X94691286Y-57577100D01*
X94691286Y-57577100D02*
X94659857Y-57514242D01*
X94659857Y-57514242D02*
X94628429Y-57482814D01*
X94628429Y-57482814D02*
X94565571Y-57451385D01*
X77245744Y-53130857D02*
X77182887Y-53099428D01*
X77182887Y-53099428D02*
X77088601Y-53099428D01*
X77088601Y-53099428D02*
X76994315Y-53130857D01*
X76994315Y-53130857D02*
X76931458Y-53193714D01*
X76931458Y-53193714D02*
X76900029Y-53256571D01*
X76900029Y-53256571D02*
X76868601Y-53382285D01*
X76868601Y-53382285D02*
X76868601Y-53476571D01*
X76868601Y-53476571D02*
X76900029Y-53602285D01*
X76900029Y-53602285D02*
X76931458Y-53665142D01*
X76931458Y-53665142D02*
X76994315Y-53728000D01*
X76994315Y-53728000D02*
X77088601Y-53759428D01*
X77088601Y-53759428D02*
X77151458Y-53759428D01*
X77151458Y-53759428D02*
X77245744Y-53728000D01*
X77245744Y-53728000D02*
X77277172Y-53696571D01*
X77277172Y-53696571D02*
X77277172Y-53476571D01*
X77277172Y-53476571D02*
X77151458Y-53476571D01*
X77528601Y-53728000D02*
X77622887Y-53759428D01*
X77622887Y-53759428D02*
X77780029Y-53759428D01*
X77780029Y-53759428D02*
X77842887Y-53728000D01*
X77842887Y-53728000D02*
X77874315Y-53696571D01*
X77874315Y-53696571D02*
X77905744Y-53633714D01*
X77905744Y-53633714D02*
X77905744Y-53570857D01*
X77905744Y-53570857D02*
X77874315Y-53508000D01*
X77874315Y-53508000D02*
X77842887Y-53476571D01*
X77842887Y-53476571D02*
X77780029Y-53445142D01*
X77780029Y-53445142D02*
X77654315Y-53413714D01*
X77654315Y-53413714D02*
X77591458Y-53382285D01*
X77591458Y-53382285D02*
X77560029Y-53350857D01*
X77560029Y-53350857D02*
X77528601Y-53288000D01*
X77528601Y-53288000D02*
X77528601Y-53225142D01*
X77528601Y-53225142D02*
X77560029Y-53162285D01*
X77560029Y-53162285D02*
X77591458Y-53130857D01*
X77591458Y-53130857D02*
X77654315Y-53099428D01*
X77654315Y-53099428D02*
X77811458Y-53099428D01*
X77811458Y-53099428D02*
X77905744Y-53130857D01*
X78188600Y-53759428D02*
X78188600Y-53099428D01*
X78188600Y-53099428D02*
X78408600Y-53570857D01*
X78408600Y-53570857D02*
X78628600Y-53099428D01*
X78628600Y-53099428D02*
X78628600Y-53759428D01*
X78785744Y-53822285D02*
X79288601Y-53822285D01*
X79414315Y-53570857D02*
X79728601Y-53570857D01*
X79351458Y-53759428D02*
X79571458Y-53099428D01*
X79571458Y-53099428D02*
X79791458Y-53759428D01*
X80011457Y-53759428D02*
X80011457Y-53099428D01*
X80011457Y-53099428D02*
X80388600Y-53759428D01*
X80388600Y-53759428D02*
X80388600Y-53099428D01*
X80608601Y-53099428D02*
X80985744Y-53099428D01*
X80797172Y-53759428D02*
X80797172Y-53099428D01*
X81205743Y-53413714D02*
X81425743Y-53413714D01*
X81520029Y-53759428D02*
X81205743Y-53759428D01*
X81205743Y-53759428D02*
X81205743Y-53099428D01*
X81205743Y-53099428D02*
X81520029Y-53099428D01*
X81802886Y-53759428D02*
X81802886Y-53099428D01*
X81802886Y-53099428D02*
X82180029Y-53759428D01*
X82180029Y-53759428D02*
X82180029Y-53099428D01*
X82494315Y-53759428D02*
X82494315Y-53099428D01*
X82494315Y-53099428D02*
X82871458Y-53759428D01*
X82871458Y-53759428D02*
X82871458Y-53099428D01*
X83154316Y-53570857D02*
X83468602Y-53570857D01*
X83091459Y-53759428D02*
X83311459Y-53099428D01*
X83311459Y-53099428D02*
X83531459Y-53759428D01*
D16*
X90780468Y-71612130D02*
X90780468Y-72191153D01*
X90780468Y-72191153D02*
X90814529Y-72259273D01*
X90814529Y-72259273D02*
X90848589Y-72293334D01*
X90848589Y-72293334D02*
X90916709Y-72327394D01*
X90916709Y-72327394D02*
X91052950Y-72327394D01*
X91052950Y-72327394D02*
X91121070Y-72293334D01*
X91121070Y-72293334D02*
X91155131Y-72259273D01*
X91155131Y-72259273D02*
X91189191Y-72191153D01*
X91189191Y-72191153D02*
X91189191Y-71612130D01*
X91904455Y-72327394D02*
X91495732Y-72327394D01*
X91700093Y-72327394D02*
X91700093Y-71612130D01*
X91700093Y-71612130D02*
X91631973Y-71714310D01*
X91631973Y-71714310D02*
X91563853Y-71782431D01*
X91563853Y-71782431D02*
X91495732Y-71816491D01*
X90991120Y-70552737D02*
X91943501Y-70552737D01*
X90800644Y-71124166D02*
X91467310Y-69124166D01*
X91467310Y-69124166D02*
X92133977Y-71124166D01*
X92895882Y-71124166D02*
X93276834Y-71124166D01*
X93276834Y-71124166D02*
X93467311Y-71028928D01*
X93467311Y-71028928D02*
X93562549Y-70933689D01*
X93562549Y-70933689D02*
X93753025Y-70647975D01*
X93753025Y-70647975D02*
X93848263Y-70267023D01*
X93848263Y-70267023D02*
X93848263Y-69505118D01*
X93848263Y-69505118D02*
X93753025Y-69314642D01*
X93753025Y-69314642D02*
X93657787Y-69219404D01*
X93657787Y-69219404D02*
X93467311Y-69124166D01*
X93467311Y-69124166D02*
X93086358Y-69124166D01*
X93086358Y-69124166D02*
X92895882Y-69219404D01*
X92895882Y-69219404D02*
X92800644Y-69314642D01*
X92800644Y-69314642D02*
X92705406Y-69505118D01*
X92705406Y-69505118D02*
X92705406Y-69981308D01*
X92705406Y-69981308D02*
X92800644Y-70171785D01*
X92800644Y-70171785D02*
X92895882Y-70267023D01*
X92895882Y-70267023D02*
X93086358Y-70362261D01*
X93086358Y-70362261D02*
X93467311Y-70362261D01*
X93467311Y-70362261D02*
X93657787Y-70267023D01*
X93657787Y-70267023D02*
X93753025Y-70171785D01*
X93753025Y-70171785D02*
X93848263Y-69981308D01*
X95753025Y-69219404D02*
X95562549Y-69124166D01*
X95562549Y-69124166D02*
X95276835Y-69124166D01*
X95276835Y-69124166D02*
X94991120Y-69219404D01*
X94991120Y-69219404D02*
X94800644Y-69409880D01*
X94800644Y-69409880D02*
X94705406Y-69600356D01*
X94705406Y-69600356D02*
X94610168Y-69981308D01*
X94610168Y-69981308D02*
X94610168Y-70267023D01*
X94610168Y-70267023D02*
X94705406Y-70647975D01*
X94705406Y-70647975D02*
X94800644Y-70838451D01*
X94800644Y-70838451D02*
X94991120Y-71028928D01*
X94991120Y-71028928D02*
X95276835Y-71124166D01*
X95276835Y-71124166D02*
X95467311Y-71124166D01*
X95467311Y-71124166D02*
X95753025Y-71028928D01*
X95753025Y-71028928D02*
X95848263Y-70933689D01*
X95848263Y-70933689D02*
X95848263Y-70267023D01*
X95848263Y-70267023D02*
X95467311Y-70267023D01*
D12*
X99218038Y-90779350D02*
X99186300Y-90811088D01*
X99186300Y-90811088D02*
X99091086Y-90842825D01*
X99091086Y-90842825D02*
X99027610Y-90842825D01*
X99027610Y-90842825D02*
X98932397Y-90811088D01*
X98932397Y-90811088D02*
X98868921Y-90747612D01*
X98868921Y-90747612D02*
X98837183Y-90684136D01*
X98837183Y-90684136D02*
X98805445Y-90557184D01*
X98805445Y-90557184D02*
X98805445Y-90461971D01*
X98805445Y-90461971D02*
X98837183Y-90335019D01*
X98837183Y-90335019D02*
X98868921Y-90271543D01*
X98868921Y-90271543D02*
X98932397Y-90208067D01*
X98932397Y-90208067D02*
X99027610Y-90176329D01*
X99027610Y-90176329D02*
X99091086Y-90176329D01*
X99091086Y-90176329D02*
X99186300Y-90208067D01*
X99186300Y-90208067D02*
X99218038Y-90239805D01*
X99852796Y-90842825D02*
X99471941Y-90842825D01*
X99662369Y-90842825D02*
X99662369Y-90176329D01*
X99662369Y-90176329D02*
X99598893Y-90271543D01*
X99598893Y-90271543D02*
X99535417Y-90335019D01*
X99535417Y-90335019D02*
X99471941Y-90366757D01*
D13*
X99113817Y-91520124D02*
X98904811Y-91520124D01*
X99009314Y-91520124D02*
X99009314Y-91154364D01*
X99009314Y-91154364D02*
X98974480Y-91206615D01*
X98974480Y-91206615D02*
X98939645Y-91241449D01*
X98939645Y-91241449D02*
X98904811Y-91258867D01*
X99340240Y-91154364D02*
X99375074Y-91154364D01*
X99375074Y-91154364D02*
X99409908Y-91171781D01*
X99409908Y-91171781D02*
X99427326Y-91189198D01*
X99427326Y-91189198D02*
X99444743Y-91224032D01*
X99444743Y-91224032D02*
X99462160Y-91293701D01*
X99462160Y-91293701D02*
X99462160Y-91380787D01*
X99462160Y-91380787D02*
X99444743Y-91450455D01*
X99444743Y-91450455D02*
X99427326Y-91485289D01*
X99427326Y-91485289D02*
X99409908Y-91502707D01*
X99409908Y-91502707D02*
X99375074Y-91520124D01*
X99375074Y-91520124D02*
X99340240Y-91520124D01*
X99340240Y-91520124D02*
X99305406Y-91502707D01*
X99305406Y-91502707D02*
X99287988Y-91485289D01*
X99287988Y-91485289D02*
X99270571Y-91450455D01*
X99270571Y-91450455D02*
X99253154Y-91380787D01*
X99253154Y-91380787D02*
X99253154Y-91293701D01*
X99253154Y-91293701D02*
X99270571Y-91224032D01*
X99270571Y-91224032D02*
X99287988Y-91189198D01*
X99287988Y-91189198D02*
X99305406Y-91171781D01*
X99305406Y-91171781D02*
X99340240Y-91154364D01*
X99775669Y-91276284D02*
X99775669Y-91520124D01*
X99618914Y-91276284D02*
X99618914Y-91467872D01*
X99618914Y-91467872D02*
X99636331Y-91502707D01*
X99636331Y-91502707D02*
X99671166Y-91520124D01*
X99671166Y-91520124D02*
X99723417Y-91520124D01*
X99723417Y-91520124D02*
X99758251Y-91502707D01*
X99758251Y-91502707D02*
X99775669Y-91485289D01*
X100071760Y-91328535D02*
X99949840Y-91328535D01*
X99949840Y-91520124D02*
X99949840Y-91154364D01*
X99949840Y-91154364D02*
X100124012Y-91154364D01*
D10*
X98045192Y-95797528D02*
X98045192Y-95137528D01*
X98045192Y-95137528D02*
X98296621Y-95137528D01*
X98296621Y-95137528D02*
X98359478Y-95168957D01*
X98359478Y-95168957D02*
X98390907Y-95200385D01*
X98390907Y-95200385D02*
X98422335Y-95263242D01*
X98422335Y-95263242D02*
X98422335Y-95357528D01*
X98422335Y-95357528D02*
X98390907Y-95420385D01*
X98390907Y-95420385D02*
X98359478Y-95451814D01*
X98359478Y-95451814D02*
X98296621Y-95483242D01*
X98296621Y-95483242D02*
X98045192Y-95483242D01*
X98830907Y-95137528D02*
X98956621Y-95137528D01*
X98956621Y-95137528D02*
X99019478Y-95168957D01*
X99019478Y-95168957D02*
X99082335Y-95231814D01*
X99082335Y-95231814D02*
X99113764Y-95357528D01*
X99113764Y-95357528D02*
X99113764Y-95577528D01*
X99113764Y-95577528D02*
X99082335Y-95703242D01*
X99082335Y-95703242D02*
X99019478Y-95766100D01*
X99019478Y-95766100D02*
X98956621Y-95797528D01*
X98956621Y-95797528D02*
X98830907Y-95797528D01*
X98830907Y-95797528D02*
X98768050Y-95766100D01*
X98768050Y-95766100D02*
X98705192Y-95703242D01*
X98705192Y-95703242D02*
X98673764Y-95577528D01*
X98673764Y-95577528D02*
X98673764Y-95357528D01*
X98673764Y-95357528D02*
X98705192Y-95231814D01*
X98705192Y-95231814D02*
X98768050Y-95168957D01*
X98768050Y-95168957D02*
X98830907Y-95137528D01*
X99333764Y-95137528D02*
X99490907Y-95797528D01*
X99490907Y-95797528D02*
X99616621Y-95326100D01*
X99616621Y-95326100D02*
X99742336Y-95797528D01*
X99742336Y-95797528D02*
X99899479Y-95137528D01*
X100150907Y-95451814D02*
X100370907Y-95451814D01*
X100465193Y-95797528D02*
X100150907Y-95797528D01*
X100150907Y-95797528D02*
X100150907Y-95137528D01*
X100150907Y-95137528D02*
X100465193Y-95137528D01*
X101125193Y-95797528D02*
X100905193Y-95483242D01*
X100748050Y-95797528D02*
X100748050Y-95137528D01*
X100748050Y-95137528D02*
X100999479Y-95137528D01*
X100999479Y-95137528D02*
X101062336Y-95168957D01*
X101062336Y-95168957D02*
X101093765Y-95200385D01*
X101093765Y-95200385D02*
X101125193Y-95263242D01*
X101125193Y-95263242D02*
X101125193Y-95357528D01*
X101125193Y-95357528D02*
X101093765Y-95420385D01*
X101093765Y-95420385D02*
X101062336Y-95451814D01*
X101062336Y-95451814D02*
X100999479Y-95483242D01*
X100999479Y-95483242D02*
X100748050Y-95483242D01*
D14*
X79132242Y-88352913D02*
X78238162Y-88352913D01*
X78238162Y-88352913D02*
X78238162Y-88140037D01*
X78238162Y-88140037D02*
X78280737Y-88012311D01*
X78280737Y-88012311D02*
X78365887Y-87927161D01*
X78365887Y-87927161D02*
X78451038Y-87884586D01*
X78451038Y-87884586D02*
X78621339Y-87842010D01*
X78621339Y-87842010D02*
X78749065Y-87842010D01*
X78749065Y-87842010D02*
X78919366Y-87884586D01*
X78919366Y-87884586D02*
X79004516Y-87927161D01*
X79004516Y-87927161D02*
X79089667Y-88012311D01*
X79089667Y-88012311D02*
X79132242Y-88140037D01*
X79132242Y-88140037D02*
X79132242Y-88352913D01*
X79132242Y-86990506D02*
X79132242Y-87501409D01*
X79132242Y-87245957D02*
X78238162Y-87245957D01*
X78238162Y-87245957D02*
X78365887Y-87331108D01*
X78365887Y-87331108D02*
X78451038Y-87416258D01*
X78451038Y-87416258D02*
X78493613Y-87501409D01*
X76874888Y-88602361D02*
X76874888Y-88916647D01*
X76874888Y-88916647D02*
X76214888Y-88916647D01*
X76529174Y-88382361D02*
X76529174Y-88162361D01*
X76874888Y-88068075D02*
X76874888Y-88382361D01*
X76874888Y-88382361D02*
X76214888Y-88382361D01*
X76214888Y-88382361D02*
X76214888Y-88068075D01*
X76874888Y-87785218D02*
X76214888Y-87785218D01*
X76214888Y-87785218D02*
X76214888Y-87628075D01*
X76214888Y-87628075D02*
X76246317Y-87533789D01*
X76246317Y-87533789D02*
X76309174Y-87470932D01*
X76309174Y-87470932D02*
X76372031Y-87439503D01*
X76372031Y-87439503D02*
X76497745Y-87408075D01*
X76497745Y-87408075D02*
X76592031Y-87408075D01*
X76592031Y-87408075D02*
X76717745Y-87439503D01*
X76717745Y-87439503D02*
X76780602Y-87470932D01*
X76780602Y-87470932D02*
X76843460Y-87533789D01*
X76843460Y-87533789D02*
X76874888Y-87628075D01*
X76874888Y-87628075D02*
X76874888Y-87785218D01*
X76937745Y-87282361D02*
X76937745Y-86779503D01*
X76246317Y-86276646D02*
X76214888Y-86339504D01*
X76214888Y-86339504D02*
X76214888Y-86433789D01*
X76214888Y-86433789D02*
X76246317Y-86528075D01*
X76246317Y-86528075D02*
X76309174Y-86590932D01*
X76309174Y-86590932D02*
X76372031Y-86622361D01*
X76372031Y-86622361D02*
X76497745Y-86653789D01*
X76497745Y-86653789D02*
X76592031Y-86653789D01*
X76592031Y-86653789D02*
X76717745Y-86622361D01*
X76717745Y-86622361D02*
X76780602Y-86590932D01*
X76780602Y-86590932D02*
X76843460Y-86528075D01*
X76843460Y-86528075D02*
X76874888Y-86433789D01*
X76874888Y-86433789D02*
X76874888Y-86370932D01*
X76874888Y-86370932D02*
X76843460Y-86276646D01*
X76843460Y-86276646D02*
X76812031Y-86245218D01*
X76812031Y-86245218D02*
X76592031Y-86245218D01*
X76592031Y-86245218D02*
X76592031Y-86370932D01*
X76843460Y-85993789D02*
X76874888Y-85899504D01*
X76874888Y-85899504D02*
X76874888Y-85742361D01*
X76874888Y-85742361D02*
X76843460Y-85679504D01*
X76843460Y-85679504D02*
X76812031Y-85648075D01*
X76812031Y-85648075D02*
X76749174Y-85616646D01*
X76749174Y-85616646D02*
X76686317Y-85616646D01*
X76686317Y-85616646D02*
X76623460Y-85648075D01*
X76623460Y-85648075D02*
X76592031Y-85679504D01*
X76592031Y-85679504D02*
X76560602Y-85742361D01*
X76560602Y-85742361D02*
X76529174Y-85868075D01*
X76529174Y-85868075D02*
X76497745Y-85930932D01*
X76497745Y-85930932D02*
X76466317Y-85962361D01*
X76466317Y-85962361D02*
X76403460Y-85993789D01*
X76403460Y-85993789D02*
X76340602Y-85993789D01*
X76340602Y-85993789D02*
X76277745Y-85962361D01*
X76277745Y-85962361D02*
X76246317Y-85930932D01*
X76246317Y-85930932D02*
X76214888Y-85868075D01*
X76214888Y-85868075D02*
X76214888Y-85710932D01*
X76214888Y-85710932D02*
X76246317Y-85616646D01*
X76874888Y-85333790D02*
X76214888Y-85333790D01*
X76214888Y-85333790D02*
X76686317Y-85113790D01*
X76686317Y-85113790D02*
X76214888Y-84893790D01*
X76214888Y-84893790D02*
X76874888Y-84893790D01*
D15*
X88261418Y-99440328D02*
X88234204Y-99467543D01*
X88234204Y-99467543D02*
X88152561Y-99494757D01*
X88152561Y-99494757D02*
X88098133Y-99494757D01*
X88098133Y-99494757D02*
X88016490Y-99467543D01*
X88016490Y-99467543D02*
X87962061Y-99413114D01*
X87962061Y-99413114D02*
X87934847Y-99358685D01*
X87934847Y-99358685D02*
X87907633Y-99249828D01*
X87907633Y-99249828D02*
X87907633Y-99168185D01*
X87907633Y-99168185D02*
X87934847Y-99059328D01*
X87934847Y-99059328D02*
X87962061Y-99004900D01*
X87962061Y-99004900D02*
X88016490Y-98950471D01*
X88016490Y-98950471D02*
X88098133Y-98923257D01*
X88098133Y-98923257D02*
X88152561Y-98923257D01*
X88152561Y-98923257D02*
X88234204Y-98950471D01*
X88234204Y-98950471D02*
X88261418Y-98977685D01*
X88506347Y-99494757D02*
X88506347Y-98923257D01*
X88506347Y-99195400D02*
X88832918Y-99195400D01*
X88832918Y-99494757D02*
X88832918Y-98923257D01*
X89404418Y-98950471D02*
X89349990Y-98923257D01*
X89349990Y-98923257D02*
X89268347Y-98923257D01*
X89268347Y-98923257D02*
X89186704Y-98950471D01*
X89186704Y-98950471D02*
X89132275Y-99004900D01*
X89132275Y-99004900D02*
X89105061Y-99059328D01*
X89105061Y-99059328D02*
X89077847Y-99168185D01*
X89077847Y-99168185D02*
X89077847Y-99249828D01*
X89077847Y-99249828D02*
X89105061Y-99358685D01*
X89105061Y-99358685D02*
X89132275Y-99413114D01*
X89132275Y-99413114D02*
X89186704Y-99467543D01*
X89186704Y-99467543D02*
X89268347Y-99494757D01*
X89268347Y-99494757D02*
X89322775Y-99494757D01*
X89322775Y-99494757D02*
X89404418Y-99467543D01*
X89404418Y-99467543D02*
X89431632Y-99440328D01*
X89431632Y-99440328D02*
X89431632Y-99249828D01*
X89431632Y-99249828D02*
X89322775Y-99249828D01*
D17*
%TO.C,X1*%
X83991000Y-54654000D02*
X87391000Y-54654000D01*
X83991000Y-58054000D02*
X83991000Y-54654000D01*
X87391000Y-54654000D02*
X87391000Y-58054000D01*
X87391000Y-58054000D02*
X83991000Y-58054000D01*
X84214606Y-54654000D02*
G75*
G03*
X84214606Y-54654000I-223606J0D01*
G01*
D18*
%TO.C,R4*%
X78000000Y-93400000D02*
X78000000Y-92600000D01*
D19*
%TO.C,GPS_ANTENNA*%
X98603000Y-53968000D02*
X98603000Y-55238000D01*
X98603000Y-53968000D02*
X101397000Y-53968000D01*
X98603000Y-58032000D02*
X98603000Y-56762000D01*
X101397000Y-53968000D02*
X101397000Y-55238000D01*
X101397000Y-56762000D02*
X101397000Y-58032000D01*
X101397000Y-58032000D02*
X98603000Y-58032000D01*
G36*
X98603000Y-57016000D02*
G01*
X97841000Y-57016000D01*
X97841000Y-54984000D01*
X98603000Y-54984000D01*
X98603000Y-57016000D01*
G37*
D18*
%TO.C,R6*%
X77197000Y-79629000D02*
X77997000Y-79629000D01*
%TO.C,R10*%
X87400000Y-63150000D02*
X86600000Y-63150000D01*
%TO.C,C5*%
X89008000Y-97956000D02*
X89808000Y-97956000D01*
D20*
%TO.C,SW_RST1*%
X81070000Y-99570000D02*
X76930000Y-99570000D01*
X81070000Y-99270000D02*
X81070000Y-99570000D01*
X81070000Y-96430000D02*
X81070000Y-96730000D01*
X76930000Y-99570000D02*
X76930000Y-99270000D01*
X76930000Y-96730000D02*
X76930000Y-96430000D01*
X76930000Y-96430000D02*
X81070000Y-96430000D01*
D18*
%TO.C,C12*%
X100142000Y-60477392D02*
X100142000Y-61493392D01*
%TO.C,R3*%
X78000000Y-90600000D02*
X78000000Y-91400000D01*
%TO.C,R9*%
X91400000Y-63000000D02*
X90600000Y-63000000D01*
D21*
%TO.C,U7*%
X82200000Y-64450000D02*
X83800000Y-64450000D01*
X83800000Y-61550000D02*
X82200000Y-61550000D01*
X83450000Y-63950000D02*
G75*
G03*
X83450000Y-63950000I-100000J0D01*
G01*
D18*
%TO.C,R5*%
X77997000Y-83439000D02*
X77197000Y-83439000D01*
D19*
%TO.C,D2*%
X78232000Y-74358500D02*
X78232000Y-77025500D01*
X76962000Y-74358500D02*
X78232000Y-74358500D01*
X78003400Y-75539600D02*
X77165200Y-75539600D01*
X77165200Y-75539600D02*
X77406500Y-75742800D01*
X77851000Y-75653900D02*
X77343000Y-75653900D01*
X77406500Y-75742800D02*
X77597000Y-75895200D01*
X77736700Y-75768200D02*
X78003400Y-75539600D01*
X77736700Y-75768200D02*
X77406500Y-75742800D01*
X77597000Y-75895200D02*
X77736700Y-75768200D01*
X78232000Y-77025500D02*
X76962000Y-77025500D01*
X76962000Y-77025500D02*
X76962000Y-74358500D01*
D21*
%TO.C,U9*%
X94500100Y-63600000D02*
X96100100Y-63600000D01*
X94250100Y-62350000D02*
X94250100Y-61550000D01*
X94500100Y-60300000D02*
X96100100Y-60300000D01*
D18*
%TO.C,C9*%
X78050000Y-63638000D02*
X78050000Y-62622000D01*
%TO.C,C11*%
X78000000Y-68970000D02*
X78000000Y-68170000D01*
%TO.C,R1*%
X93000000Y-97400000D02*
X93000000Y-96600000D01*
%TO.C,C14*%
X100252000Y-65025392D02*
X100252000Y-65825392D01*
%TO.C,C10*%
X78050000Y-66138000D02*
X78050000Y-65122000D01*
D21*
%TO.C,C3*%
X93641000Y-90689000D02*
X93641000Y-93286000D01*
D18*
%TO.C,C2*%
X96950000Y-93508000D02*
X96950000Y-92492000D01*
%TO.C,R2*%
X93000000Y-98600000D02*
X93000000Y-99400000D01*
%TO.C,C8*%
X78050000Y-61138000D02*
X78050000Y-60122000D01*
D19*
%TO.C,L2*%
X98171000Y-57404000D02*
X98171000Y-60198000D01*
X96901000Y-57404000D02*
X98171000Y-57404000D01*
X98171000Y-60198000D02*
X96901000Y-60198000D01*
X96901000Y-60198000D02*
X96901000Y-57404000D01*
D18*
%TO.C,C13*%
X100142000Y-62977392D02*
X100142000Y-63993392D01*
D17*
%TO.C,U5*%
X91178885Y-54181472D02*
X91178885Y-54495231D01*
X91178885Y-56179113D02*
X91178885Y-56492872D01*
X91178885Y-56492872D02*
X91742644Y-56492872D01*
X91742644Y-54181472D02*
X91178885Y-54181472D01*
X92926526Y-56492872D02*
X93490285Y-56492872D01*
X93490285Y-54181472D02*
X92926526Y-54181472D01*
X93490285Y-54495231D02*
X93490285Y-54181472D01*
X93490285Y-56492872D02*
X93490285Y-56179113D01*
G36*
X92275086Y-54181472D02*
G01*
X91894085Y-54181472D01*
X91894085Y-53927472D01*
X92275086Y-53927472D01*
X92275086Y-54181472D01*
G37*
D19*
%TO.C,GSM_ANTENNA*%
X80397000Y-58173642D02*
X80397000Y-56903642D01*
X80397000Y-58173642D02*
X77603000Y-58173642D01*
X80397000Y-54109642D02*
X80397000Y-55379642D01*
X77603000Y-58173642D02*
X77603000Y-56903642D01*
X77603000Y-55379642D02*
X77603000Y-54109642D01*
X77603000Y-54109642D02*
X80397000Y-54109642D01*
G36*
X81159000Y-57157642D02*
G01*
X80397000Y-57157642D01*
X80397000Y-55125642D01*
X81159000Y-55125642D01*
X81159000Y-57157642D01*
G37*
%TO.C,U1*%
X81400000Y-67900000D02*
X100200000Y-67900000D01*
X81400000Y-87100000D02*
X81400000Y-67900000D01*
X100200000Y-67900000D02*
X100200000Y-87100000D01*
X100200000Y-87100000D02*
X81400000Y-87100000D01*
X82066978Y-68356000D02*
G75*
G03*
X82066978Y-68356000I-283978J0D01*
G01*
D18*
%TO.C,C1*%
X96950000Y-91508000D02*
X96950000Y-90492000D01*
D20*
%TO.C,SW_POW1*%
X101639479Y-99570000D02*
X97499479Y-99570000D01*
X101639479Y-99270000D02*
X101639479Y-99570000D01*
X101639479Y-96430000D02*
X101639479Y-96730000D01*
X97499479Y-99570000D02*
X97499479Y-99270000D01*
X97499479Y-96730000D02*
X97499479Y-96430000D01*
X97499479Y-96430000D02*
X101639479Y-96430000D01*
D19*
%TO.C,D1*%
X76962000Y-88455500D02*
X76962000Y-85788500D01*
X78232000Y-88455500D02*
X76962000Y-88455500D01*
X77190600Y-87274400D02*
X78028800Y-87274400D01*
X78028800Y-87274400D02*
X77787500Y-87071200D01*
X77343000Y-87160100D02*
X77851000Y-87160100D01*
X77787500Y-87071200D02*
X77597000Y-86918800D01*
X77457300Y-87045800D02*
X77190600Y-87274400D01*
X77457300Y-87045800D02*
X77787500Y-87071200D01*
X77597000Y-86918800D02*
X77457300Y-87045800D01*
X76962000Y-85788500D02*
X78232000Y-85788500D01*
X78232000Y-85788500D02*
X78232000Y-88455500D01*
%TO.C,CHG*%
X87630000Y-95821500D02*
X87630000Y-98488500D01*
X86360000Y-95821500D02*
X87630000Y-95821500D01*
X87376000Y-97028000D02*
X86614000Y-97028000D01*
X86614000Y-97028000D02*
X86804500Y-97155000D01*
X87249000Y-97091500D02*
X86741000Y-97091500D01*
X87185500Y-97155000D02*
X87376000Y-97028000D01*
X87185500Y-97155000D02*
X86804500Y-97155000D01*
X86804500Y-97155000D02*
X86995000Y-97282000D01*
X86995000Y-97282000D02*
X87185500Y-97155000D01*
X87630000Y-98488500D02*
X86360000Y-98488500D01*
X86360000Y-98488500D02*
X86360000Y-95821500D01*
%TD*%
M02*
