%TF.GenerationSoftware,KiCad,Pcbnew,7.0.8*%
%TF.CreationDate,2023-10-19T11:53:07-06:00*%
%TF.ProjectId,air_station_1v5,6169725f-7374-4617-9469-6f6e5f317635,rev?*%
%TF.SameCoordinates,Original*%
%TF.FileFunction,Copper,L1,Top*%
%TF.FilePolarity,Positive*%
%FSLAX46Y46*%
G04 Gerber Fmt 4.6, Leading zero omitted, Abs format (unit mm)*
G04 Created by KiCad (PCBNEW 7.0.8) date 2023-10-19 11:53:07*
%MOMM*%
%LPD*%
G01*
G04 APERTURE LIST*
G04 Aperture macros list*
%AMRoundRect*
0 Rectangle with rounded corners*
0 $1 Rounding radius*
0 $2 $3 $4 $5 $6 $7 $8 $9 X,Y pos of 4 corners*
0 Add a 4 corners polygon primitive as box body*
4,1,4,$2,$3,$4,$5,$6,$7,$8,$9,$2,$3,0*
0 Add four circle primitives for the rounded corners*
1,1,$1+$1,$2,$3*
1,1,$1+$1,$4,$5*
1,1,$1+$1,$6,$7*
1,1,$1+$1,$8,$9*
0 Add four rect primitives between the rounded corners*
20,1,$1+$1,$2,$3,$4,$5,0*
20,1,$1+$1,$4,$5,$6,$7,0*
20,1,$1+$1,$6,$7,$8,$9,0*
20,1,$1+$1,$8,$9,$2,$3,0*%
G04 Aperture macros list end*
%TA.AperFunction,SMDPad,CuDef*%
%ADD10R,0.800000X0.750000*%
%TD*%
%TA.AperFunction,SMDPad,CuDef*%
%ADD11R,1.075000X1.000000*%
%TD*%
%TA.AperFunction,SMDPad,CuDef*%
%ADD12RoundRect,0.254000X0.254000X0.254000X-0.254000X0.254000X-0.254000X-0.254000X0.254000X-0.254000X0*%
%TD*%
%TA.AperFunction,SMDPad,CuDef*%
%ADD13RoundRect,0.190500X-0.952500X-0.190500X0.952500X-0.190500X0.952500X0.190500X-0.952500X0.190500X0*%
%TD*%
%TA.AperFunction,SMDPad,CuDef*%
%ADD14R,1.000000X1.075000*%
%TD*%
%TA.AperFunction,SMDPad,CuDef*%
%ADD15RoundRect,0.200000X0.200000X0.800000X-0.200000X0.800000X-0.200000X-0.800000X0.200000X-0.800000X0*%
%TD*%
%TA.AperFunction,SMDPad,CuDef*%
%ADD16R,1.240000X1.500000*%
%TD*%
%TA.AperFunction,SMDPad,CuDef*%
%ADD17R,1.200000X0.550000*%
%TD*%
%TA.AperFunction,SMDPad,CuDef*%
%ADD18RoundRect,0.111125X-0.333375X0.333375X-0.333375X-0.333375X0.333375X-0.333375X0.333375X0.333375X0*%
%TD*%
%TA.AperFunction,SMDPad,CuDef*%
%ADD19R,1.200000X2.500000*%
%TD*%
%TA.AperFunction,SMDPad,CuDef*%
%ADD20R,0.254000X0.279400*%
%TD*%
%TA.AperFunction,SMDPad,CuDef*%
%ADD21R,0.279400X0.254000*%
%TD*%
%TA.AperFunction,SMDPad,CuDef*%
%ADD22RoundRect,0.254000X-0.254000X-0.254000X0.254000X-0.254000X0.254000X0.254000X-0.254000X0.254000X0*%
%TD*%
%TA.AperFunction,SMDPad,CuDef*%
%ADD23RoundRect,0.190500X0.952500X0.190500X-0.952500X0.190500X-0.952500X-0.190500X0.952500X-0.190500X0*%
%TD*%
%TA.AperFunction,SMDPad,CuDef*%
%ADD24R,1.600000X0.800000*%
%TD*%
%TA.AperFunction,SMDPad,CuDef*%
%ADD25R,0.800000X1.600000*%
%TD*%
%TA.AperFunction,SMDPad,CuDef*%
%ADD26R,3.000000X3.000000*%
%TD*%
%TA.AperFunction,SMDPad,CuDef*%
%ADD27R,1.500000X1.500000*%
%TD*%
%TA.AperFunction,SMDPad,CuDef*%
%ADD28RoundRect,0.111125X0.333375X-0.333375X0.333375X0.333375X-0.333375X0.333375X-0.333375X-0.333375X0*%
%TD*%
%TA.AperFunction,SMDPad,CuDef*%
%ADD29RoundRect,0.095250X-0.349250X0.285750X-0.349250X-0.285750X0.349250X-0.285750X0.349250X0.285750X0*%
%TD*%
%TA.AperFunction,ViaPad*%
%ADD30C,0.800000*%
%TD*%
%TA.AperFunction,Conductor*%
%ADD31C,0.250000*%
%TD*%
G04 APERTURE END LIST*
D10*
%TO.P,X1,1,SDA/MOSI*%
%TO.N,/I2C2_SDA*%
X84641000Y-55304000D03*
%TO.P,X1,2,SCL/SCK*%
%TO.N,/I2C2_SCL*%
X84641000Y-56354000D03*
%TO.P,X1,3,A0/MISO*%
%TO.N,unconnected-(X1-A0{slash}MISO-Pad3)*%
X84641000Y-57404000D03*
%TO.P,X1,4,VDD*%
%TO.N,1.8V*%
X85691000Y-57404000D03*
%TO.P,X1,5,VDDIO*%
%TO.N,3.3V*%
X86741000Y-57404000D03*
%TO.P,X1,6,~{INT}*%
%TO.N,unconnected-(X1-~{INT}-Pad6)*%
X86741000Y-56354000D03*
%TO.P,X1,7,~{CS}*%
%TO.N,Net-(X1-~{CS})*%
X86741000Y-55304000D03*
%TO.P,X1,8,GND*%
%TO.N,GND*%
X85691000Y-55304000D03*
%TO.P,X1,9,GND*%
X85691000Y-56354000D03*
%TD*%
D11*
%TO.P,R4,1,1*%
%TO.N,/ADC0*%
X78850000Y-93000000D03*
%TO.P,R4,2,2*%
%TO.N,GND*%
X77150000Y-93000000D03*
%TD*%
D12*
%TO.P,GPS_ANTENNA,D,D*%
%TO.N,/GPS_RF*%
X98476000Y-56000000D03*
D13*
%TO.P,GPS_ANTENNA,GND1,GND1*%
%TO.N,GND*%
X100000000Y-54603000D03*
%TO.P,GPS_ANTENNA,GND2,GND2*%
X100000000Y-57397000D03*
D12*
%TO.P,GPS_ANTENNA,GND3,GND3*%
X101524000Y-56000000D03*
%TD*%
D14*
%TO.P,R6,1,1*%
%TO.N,GND*%
X77597000Y-80479000D03*
%TO.P,R6,2,2*%
%TO.N,Net-(D2-Pad-)*%
X77597000Y-78779000D03*
%TD*%
%TO.P,R10,1,1*%
%TO.N,Net-(X1-~{CS})*%
X87000000Y-62300000D03*
%TO.P,R10,2,2*%
%TO.N,3.3V*%
X87000000Y-64000000D03*
%TD*%
%TO.P,C5,1,1*%
%TO.N,/IO29*%
X89408000Y-98806000D03*
%TO.P,C5,2,2*%
%TO.N,GND*%
X89408000Y-97106000D03*
%TD*%
D15*
%TO.P,SW_RST1,1,1*%
%TO.N,/RESET*%
X81100000Y-98000000D03*
%TO.P,SW_RST1,2,2*%
%TO.N,GND*%
X76900000Y-98000000D03*
%TD*%
D16*
%TO.P,C12,1,1*%
%TO.N,+BATT*%
X99192000Y-60985392D03*
%TO.P,C12,2,2*%
%TO.N,GND*%
X101092000Y-60985392D03*
%TD*%
D11*
%TO.P,R3,1,1*%
%TO.N,+BATT*%
X77150000Y-91000000D03*
%TO.P,R3,2,2*%
%TO.N,/ADC0*%
X78850000Y-91000000D03*
%TD*%
D14*
%TO.P,R9,1,1*%
%TO.N,Net-(U5-CSB)*%
X91000000Y-62150000D03*
%TO.P,R9,2,2*%
%TO.N,3.3V*%
X91000000Y-63850000D03*
%TD*%
D17*
%TO.P,U7,1,VOUT2*%
%TO.N,3.3V*%
X84300000Y-63950000D03*
%TO.P,U7,2,GND*%
%TO.N,GND*%
X84300000Y-63000000D03*
%TO.P,U7,3,EN2*%
%TO.N,+BATT*%
X84300000Y-62050000D03*
%TO.P,U7,4,EN1*%
X81700000Y-62050000D03*
%TO.P,U7,5,VIN*%
X81700000Y-63000000D03*
%TO.P,U7,6,VOUT1*%
%TO.N,1.8V*%
X81700000Y-63950000D03*
%TD*%
D14*
%TO.P,R5,1,1*%
%TO.N,GND*%
X77597000Y-82589000D03*
%TO.P,R5,2,2*%
%TO.N,Net-(D1-Pad-)*%
X77597000Y-84289000D03*
%TD*%
D18*
%TO.P,D2,+,+*%
%TO.N,/IO28*%
X77597000Y-74930000D03*
%TO.P,D2,-,-*%
%TO.N,Net-(D2-Pad-)*%
X77597000Y-76454000D03*
%TD*%
D17*
%TO.P,U9,1,IN*%
%TO.N,+BATT*%
X96600200Y-62900000D03*
%TO.P,U9,2,GND*%
%TO.N,GND*%
X96600200Y-61950000D03*
%TO.P,U9,3,EN*%
%TO.N,+BATT*%
X96600200Y-61000000D03*
%TO.P,U9,4,P4*%
%TO.N,unconnected-(U9-P4-Pad4)*%
X94000000Y-61000000D03*
%TO.P,U9,5,OUT*%
%TO.N,3.3V*%
X94000000Y-62900000D03*
%TD*%
D16*
%TO.P,C9,1,1*%
%TO.N,3.3V*%
X79000000Y-63130000D03*
%TO.P,C9,2,2*%
%TO.N,GND*%
X77100000Y-63130000D03*
%TD*%
D11*
%TO.P,C11,1,1*%
%TO.N,1.8V*%
X78850000Y-68570000D03*
%TO.P,C11,2,2*%
%TO.N,GND*%
X77150000Y-68570000D03*
%TD*%
%TO.P,R1,1,1*%
%TO.N,/PWR_KEY*%
X93850000Y-97000000D03*
%TO.P,R1,2,2*%
%TO.N,/VIO*%
X92150000Y-97000000D03*
%TD*%
%TO.P,C14,1,1*%
%TO.N,3.3V*%
X99402000Y-65425392D03*
%TO.P,C14,2,2*%
%TO.N,GND*%
X101102000Y-65425392D03*
%TD*%
D16*
%TO.P,C10,1,1*%
%TO.N,1.8V*%
X79000000Y-65630000D03*
%TO.P,C10,2,2*%
%TO.N,GND*%
X77100000Y-65630000D03*
%TD*%
D19*
%TO.P,C3,A,+*%
%TO.N,/VIN_BAT*%
X92650000Y-92000000D03*
%TO.P,C3,C,-*%
%TO.N,GND*%
X89350000Y-92000000D03*
%TD*%
D16*
%TO.P,C2,1,1*%
%TO.N,GND*%
X97900000Y-93000000D03*
%TO.P,C2,2,2*%
%TO.N,/VIN_BAT*%
X96000000Y-93000000D03*
%TD*%
D11*
%TO.P,R2,1,1*%
%TO.N,/IO29*%
X92150000Y-99000000D03*
%TO.P,R2,2,2*%
%TO.N,/PWR_KEY*%
X93850000Y-99000000D03*
%TD*%
D16*
%TO.P,C8,1,1*%
%TO.N,+BATT*%
X79000000Y-60630000D03*
%TO.P,C8,2,2*%
%TO.N,GND*%
X77100000Y-60630000D03*
%TD*%
D18*
%TO.P,L2,1,1*%
%TO.N,/GPS_RF*%
X97536000Y-58039000D03*
%TO.P,L2,2,2*%
%TO.N,+BATT*%
X97536000Y-59563000D03*
%TD*%
D16*
%TO.P,C13,1,1*%
%TO.N,3.3V*%
X99192000Y-63485392D03*
%TO.P,C13,2,2*%
%TO.N,GND*%
X101092000Y-63485392D03*
%TD*%
D20*
%TO.P,U5,1,VDDIO*%
%TO.N,3.3V*%
X92584585Y-54575172D03*
%TO.P,U5,2,SCK*%
%TO.N,/I2C2_SCL*%
X92084585Y-54575172D03*
D21*
%TO.P,U5,3,VSS*%
%TO.N,GND*%
X91572585Y-54837173D03*
%TO.P,U5,4,SDI*%
%TO.N,/I2C2_SDA*%
X91572585Y-55337172D03*
%TO.P,U5,5,SDO*%
%TO.N,unconnected-(U5-SDO-Pad5)*%
X91572585Y-55837171D03*
D20*
%TO.P,U5,6,CSB*%
%TO.N,Net-(U5-CSB)*%
X92084585Y-56099172D03*
%TO.P,U5,7,INT*%
%TO.N,unconnected-(U5-INT-Pad7)*%
X92584585Y-56099172D03*
D21*
%TO.P,U5,8,VSS*%
%TO.N,GND*%
X93096585Y-55837171D03*
%TO.P,U5,9,VSS*%
X93096585Y-55337172D03*
%TO.P,U5,10,VDD*%
%TO.N,3.3V*%
X93096585Y-54837173D03*
%TD*%
D22*
%TO.P,GSM_ANTENNA,D,D*%
%TO.N,/GSM_RF*%
X80524000Y-56141642D03*
D23*
%TO.P,GSM_ANTENNA,GND1,GND1*%
%TO.N,GND*%
X79000000Y-57538642D03*
%TO.P,GSM_ANTENNA,GND2,GND2*%
X79000000Y-54744642D03*
D22*
%TO.P,GSM_ANTENNA,GND3,GND3*%
X77476000Y-56141642D03*
%TD*%
D24*
%TO.P,U1,1,I2C2_SCL*%
%TO.N,/I2C2_SCL*%
X81400000Y-69700000D03*
%TO.P,U1,2,I2C2_SDA*%
%TO.N,/I2C2_SDA*%
X81400000Y-70900000D03*
%TO.P,U1,3,SD_D3*%
%TO.N,/SD_D3*%
X81400000Y-72100000D03*
%TO.P,U1,4,SD_D2*%
%TO.N,/SD_D2*%
X81400000Y-73300000D03*
%TO.P,U1,5,SD_D1*%
%TO.N,/SD_D1*%
X81400000Y-74500000D03*
%TO.P,U1,6,SD_D0*%
%TO.N,/SD_D0*%
X81400000Y-75700000D03*
%TO.P,U1,7,SD_CMD*%
%TO.N,/SD_CMD*%
X81400000Y-76900000D03*
%TO.P,U1,8,SD_CLK*%
%TO.N,/SD_CLK*%
X81400000Y-78100000D03*
%TO.P,U1,9,PWRKEY*%
%TO.N,/PWR_KEY*%
X81400000Y-79300000D03*
%TO.P,U1,10,GND*%
%TO.N,GND*%
X81400000Y-80500000D03*
%TO.P,U1,11,VBAT*%
%TO.N,+BATT*%
X81400000Y-81700000D03*
%TO.P,U1,12,VBAT@1*%
X81400000Y-82900000D03*
%TO.P,U1,13,SPK_P*%
%TO.N,unconnected-(U1-SPK_P-Pad13)*%
X81400000Y-84100000D03*
%TO.P,U1,14,SPK_N*%
%TO.N,unconnected-(U1-SPK_N-Pad14)*%
X81400000Y-85300000D03*
D25*
%TO.P,U1,15,ADC0*%
%TO.N,unconnected-(U1-ADC0-Pad15)*%
X83600000Y-87000000D03*
%TO.P,U1,16,ADC1*%
%TO.N,unconnected-(U1-ADC1-Pad16)*%
X84800000Y-87000000D03*
%TO.P,U1,17,VUSB*%
%TO.N,+5V*%
X86000000Y-87000000D03*
%TO.P,U1,18,RESET*%
%TO.N,/RESET*%
X87200000Y-87000000D03*
%TO.P,U1,19,LCD_CS*%
%TO.N,unconnected-(U1-LCD_CS-Pad19)*%
X88400000Y-87000000D03*
%TO.P,U1,20,LCD_RST*%
%TO.N,unconnected-(U1-LCD_RST-Pad20)*%
X89600000Y-87000000D03*
%TO.P,U1,21,LCD_DIO*%
%TO.N,unconnected-(U1-LCD_DIO-Pad21)*%
X90800000Y-87000000D03*
%TO.P,U1,22,LCD_SDC*%
%TO.N,unconnected-(U1-LCD_SDC-Pad22)*%
X92000000Y-87000000D03*
%TO.P,U1,23,LCD_SCK*%
%TO.N,unconnected-(U1-LCD_SCK-Pad23)*%
X93200000Y-87000000D03*
%TO.P,U1,24,IO29*%
%TO.N,/IO29*%
X94400000Y-87000000D03*
%TO.P,U1,25,IO26*%
%TO.N,unconnected-(U1-IO26-Pad25)*%
X95600000Y-87000000D03*
%TO.P,U1,26,IO27*%
%TO.N,/IO27*%
X96800000Y-87000000D03*
%TO.P,U1,27,GND@1*%
%TO.N,GND*%
X98000000Y-87000000D03*
D24*
%TO.P,U1,28,GPS_RF*%
%TO.N,/GPS_RF*%
X100200000Y-85300000D03*
%TO.P,U1,29,GND@2*%
%TO.N,GND*%
X100200000Y-84100000D03*
%TO.P,U1,30,IO28*%
%TO.N,/IO28*%
X100200000Y-82900000D03*
%TO.P,U1,31,IO30*%
%TO.N,unconnected-(U1-IO30-Pad31)*%
X100200000Y-81700000D03*
%TO.P,U1,32,IO25*%
%TO.N,unconnected-(U1-IO25-Pad32)*%
X100200000Y-80500000D03*
%TO.P,U1,33,MIC_N*%
%TO.N,unconnected-(U1-MIC_N-Pad33)*%
X100200000Y-79300000D03*
%TO.P,U1,34,MIC_P*%
%TO.N,unconnected-(U1-MIC_P-Pad34)*%
X100200000Y-78100000D03*
%TO.P,U1,35,USB_N*%
%TO.N,unconnected-(U1-USB_N-Pad35)*%
X100200000Y-76900000D03*
%TO.P,U1,36,USB_P*%
%TO.N,unconnected-(U1-USB_P-Pad36)*%
X100200000Y-75700000D03*
%TO.P,U1,37,HST_TXD*%
%TO.N,unconnected-(U1-HST_TXD-Pad37)*%
X100200000Y-74500000D03*
%TO.P,U1,38,HST_RXD*%
%TO.N,unconnected-(U1-HST_RXD-Pad38)*%
X100200000Y-73300000D03*
%TO.P,U1,39,SM0_DIO*%
%TO.N,/SIM_DATA*%
X100200000Y-72100000D03*
%TO.P,U1,40,VSM0*%
%TO.N,/SIM_VDD*%
X100200000Y-70900000D03*
%TO.P,U1,41,SM0_CLK*%
%TO.N,/SIM_CLK*%
X100200000Y-69700000D03*
D25*
%TO.P,U1,42,SM0_RST*%
%TO.N,/SIM_RST*%
X98000000Y-68000000D03*
%TO.P,U1,43,VIO*%
%TO.N,/VIO*%
X96800000Y-68000000D03*
%TO.P,U1,44,GND@3*%
%TO.N,GND*%
X95600000Y-68000000D03*
%TO.P,U1,45,GPRS_RF*%
%TO.N,/GSM_RF*%
X94400000Y-68000000D03*
%TO.P,U1,46,GND@4*%
%TO.N,GND*%
X93200000Y-68000000D03*
%TO.P,U1,47,UART2_RTS*%
%TO.N,unconnected-(U1-UART2_RTS-Pad47)*%
X92000000Y-68000000D03*
%TO.P,U1,48,UART2_CTS*%
%TO.N,unconnected-(U1-UART2_CTS-Pad48)*%
X90800000Y-68000000D03*
%TO.P,U1,49,UART2_RXD*%
%TO.N,unconnected-(U1-UART2_RXD-Pad49)*%
X89600000Y-68000000D03*
%TO.P,U1,50,UART2_TXD*%
%TO.N,unconnected-(U1-UART2_TXD-Pad50)*%
X88400000Y-68000000D03*
%TO.P,U1,51,UART1_RTS*%
%TO.N,unconnected-(U1-UART1_RTS-Pad51)*%
X87200000Y-68000000D03*
%TO.P,U1,52,UART1_CTS*%
%TO.N,unconnected-(U1-UART1_CTS-Pad52)*%
X86000000Y-68000000D03*
%TO.P,U1,53,UART1_RXD*%
%TO.N,/UART_RX*%
X84800000Y-68000000D03*
%TO.P,U1,54,UART1_TXD*%
%TO.N,/UART_TX*%
X83600000Y-68000000D03*
D26*
%TO.P,U1,55,GND@5*%
%TO.N,GND*%
X86600000Y-72800000D03*
D27*
%TO.P,U1,56,GND@6*%
X88900000Y-79400000D03*
%TD*%
D16*
%TO.P,C1,1,1*%
%TO.N,GND*%
X97900000Y-91000000D03*
%TO.P,C1,2,2*%
%TO.N,/VIN_BAT*%
X96000000Y-91000000D03*
%TD*%
D15*
%TO.P,SW_POW1,1,1*%
%TO.N,/PWR_KEY*%
X101669479Y-98000000D03*
%TO.P,SW_POW1,2,2*%
%TO.N,GND*%
X97469479Y-98000000D03*
%TD*%
D28*
%TO.P,D1,+,+*%
%TO.N,/IO27*%
X77597000Y-87884000D03*
%TO.P,D1,-,-*%
%TO.N,Net-(D1-Pad-)*%
X77597000Y-86360000D03*
%TD*%
D29*
%TO.P,CHG,+,+*%
%TO.N,+5V*%
X86995000Y-96393000D03*
%TO.P,CHG,-,-*%
%TO.N,Net-(CHG1-Pad-)*%
X86995000Y-97917000D03*
%TD*%
D30*
%TO.N,GND*%
X76497500Y-80518000D03*
X94361000Y-55753000D03*
X98552000Y-89154000D03*
X96139000Y-98044000D03*
X95250000Y-54356000D03*
X78867000Y-94742000D03*
X91567000Y-75946000D03*
X79121000Y-53213000D03*
X93472000Y-84328000D03*
X85725000Y-54133500D03*
X97790000Y-77470000D03*
X90170000Y-54102000D03*
%TO.N,/SD_D3*%
X79756000Y-72136000D03*
%TO.N,/SD_D2*%
X79756000Y-73279002D03*
%TO.N,/SD_CMD*%
X79756000Y-76835000D03*
%TO.N,3.3V*%
X84328000Y-65150500D03*
X80391000Y-64643000D03*
%TO.N,/SD_CLK*%
X79756000Y-78105000D03*
%TO.N,/SD_D0*%
X79756000Y-75692000D03*
%TO.N,/SD_D1*%
X79756000Y-74549000D03*
%TO.N,/GPS_RF*%
X98933000Y-58928000D03*
X102362000Y-65405000D03*
%TO.N,/UART_TX*%
X83600000Y-66802000D03*
%TO.N,/UART_RX*%
X94234000Y-74422000D03*
X91567000Y-74422000D03*
X84800000Y-66802000D03*
%TO.N,/I2C2_SDA*%
X89281000Y-56261000D03*
X82677000Y-70993000D03*
%TO.N,/I2C2_SCL*%
X82692945Y-69967011D03*
X83566000Y-56260500D03*
%TO.N,+BATT*%
X89281000Y-66421000D03*
X89281000Y-64934500D03*
X96647000Y-66167000D03*
X96647000Y-64516000D03*
X82931000Y-82931000D03*
%TO.N,/SIM_DATA*%
X101600000Y-72136000D03*
%TO.N,/SIM_VDD*%
X101600000Y-70993000D03*
%TO.N,/SIM_CLK*%
X101600000Y-69723000D03*
%TO.N,/SIM_RST*%
X99274878Y-67056000D03*
%TO.N,/GSM_RF*%
X79337500Y-59055000D03*
X87249000Y-65659000D03*
%TO.N,1.8V*%
X86233000Y-58928000D03*
X82423000Y-64426500D03*
%TO.N,/PWR_KEY*%
X89789000Y-83439000D03*
X83058000Y-79375000D03*
X99822000Y-87757000D03*
X96647000Y-84582000D03*
%TO.N,/IO27*%
X96774000Y-85852000D03*
X76581000Y-89281000D03*
%TO.N,/IO28*%
X88773000Y-73533000D03*
X88773000Y-71882000D03*
%TO.N,+5V*%
X82296000Y-92583000D03*
X80391000Y-92583000D03*
X89916000Y-95123000D03*
%TO.N,Net-(CHG1-Pad-)*%
X86995000Y-99314000D03*
%TO.N,/VIO*%
X100673500Y-95250000D03*
X96774000Y-73533000D03*
%TO.N,/SIM_VPP_UNCONN*%
X101600000Y-68453000D03*
%TD*%
D31*
%TO.N,/PWR_KEY*%
X101669479Y-89604479D02*
X101669479Y-98000000D01*
X99822000Y-87757000D02*
X101669479Y-89604479D01*
%TO.N,GND*%
X82430642Y-54744642D02*
X82841000Y-55155000D01*
X86600000Y-77100000D02*
X88900000Y-79400000D01*
X98552000Y-89154000D02*
X98508000Y-89154000D01*
X88900000Y-79400000D02*
X91059000Y-79400000D01*
X98000000Y-88602000D02*
X98000000Y-88519000D01*
X100000000Y-54603000D02*
X100127000Y-54603000D01*
X88265000Y-99695000D02*
X87884000Y-100076000D01*
X93472000Y-80137000D02*
X97987000Y-84652000D01*
X81379000Y-80479000D02*
X81400000Y-80500000D01*
X98508000Y-89154000D02*
X98000000Y-89662000D01*
X77597000Y-80479000D02*
X81379000Y-80479000D01*
X85691000Y-55304000D02*
X85691000Y-54167500D01*
X78873000Y-57538642D02*
X77476000Y-56141642D01*
X91600000Y-72800000D02*
X89200000Y-72800000D01*
X100127000Y-54603000D02*
X101524000Y-56000000D01*
X92837000Y-79502000D02*
X92735000Y-79400000D01*
X76497500Y-80518000D02*
X77558000Y-80518000D01*
X85691000Y-55304000D02*
X85691000Y-56354000D01*
X76900000Y-99252000D02*
X76900000Y-98000000D01*
X93281500Y-79819500D02*
X93154500Y-79819500D01*
X101092000Y-58821244D02*
X101258122Y-58655122D01*
X97790000Y-77470000D02*
X95631000Y-77470000D01*
X93472000Y-84328000D02*
X93472000Y-80137000D01*
X89350000Y-94176000D02*
X89994305Y-94176000D01*
X91567000Y-78892000D02*
X91059000Y-79400000D01*
X95600000Y-68800000D02*
X91600000Y-72800000D01*
X89994305Y-94176000D02*
X90641000Y-94822695D01*
X88265000Y-97536000D02*
X88265000Y-99695000D01*
X95250000Y-54356000D02*
X95250000Y-54483000D01*
X87884000Y-100076000D02*
X77724000Y-100076000D01*
X95250000Y-54483000D02*
X96393000Y-55626000D01*
X97416000Y-54603000D02*
X100000000Y-54603000D01*
X77100000Y-56644642D02*
X77603000Y-56141642D01*
X77100000Y-65630000D02*
X77100000Y-68520000D01*
X77100000Y-63130000D02*
X77100000Y-65630000D01*
X96139000Y-98044000D02*
X97425479Y-98044000D01*
X79121000Y-54623642D02*
X79000000Y-54744642D01*
X77558000Y-80518000D02*
X77597000Y-80479000D01*
X87800000Y-80500000D02*
X88900000Y-79400000D01*
X89408000Y-97106000D02*
X88695000Y-97106000D01*
X97900000Y-91000000D02*
X97900000Y-93000000D01*
X90641000Y-94822695D02*
X90641000Y-95873000D01*
X77100000Y-68520000D02*
X77150000Y-68570000D01*
X79121000Y-53213000D02*
X79121000Y-54623642D01*
X98000000Y-89662000D02*
X98000000Y-90900000D01*
X78061000Y-98000000D02*
X76900000Y-98000000D01*
X86600000Y-72800000D02*
X86600000Y-77100000D01*
X96000200Y-61950000D02*
X95504000Y-61453800D01*
X98000000Y-87000000D02*
X98000000Y-88519000D01*
X95504000Y-60452000D02*
X96393000Y-59563000D01*
X77100000Y-56517642D02*
X77476000Y-56141642D01*
X92837000Y-79502000D02*
X92710000Y-79375000D01*
X85209000Y-63000000D02*
X84300000Y-63000000D01*
X79000000Y-54617642D02*
X79000000Y-54744642D01*
X76900000Y-93250000D02*
X77150000Y-93000000D01*
X101092000Y-65415392D02*
X101102000Y-65425392D01*
X77597000Y-82589000D02*
X77597000Y-80479000D01*
X85344000Y-62865000D02*
X85209000Y-63000000D01*
X79000000Y-54744642D02*
X82430642Y-54744642D01*
X89200000Y-72800000D02*
X86600000Y-72800000D01*
X94276829Y-55837171D02*
X94361000Y-55753000D01*
X79000000Y-54744642D02*
X77603000Y-56141642D01*
X97469479Y-99253521D02*
X96647000Y-100076000D01*
X97987000Y-84652000D02*
X98000000Y-84652000D01*
X79000000Y-57538642D02*
X78873000Y-57538642D01*
X88646000Y-100076000D02*
X88265000Y-99695000D01*
X98000000Y-84652000D02*
X98552000Y-84100000D01*
X100200000Y-84100000D02*
X98552000Y-84100000D01*
X97425479Y-98044000D02*
X97469479Y-98000000D01*
X101524000Y-58389244D02*
X101258122Y-58655122D01*
X93200000Y-68800000D02*
X89200000Y-72800000D01*
X78867000Y-97282000D02*
X78105000Y-98044000D01*
X96647000Y-100076000D02*
X88646000Y-100076000D01*
X101092000Y-60985392D02*
X101092000Y-63485392D01*
X81400000Y-80500000D02*
X87800000Y-80500000D01*
X96393000Y-59563000D02*
X96393000Y-55626000D01*
X93096585Y-55337172D02*
X93096585Y-55837171D01*
X90837412Y-54102000D02*
X91572585Y-54837173D01*
X98000000Y-87000000D02*
X98000000Y-84652000D01*
X82841000Y-55155000D02*
X82841000Y-56838620D01*
X77100000Y-60630000D02*
X77100000Y-56517642D01*
X88695000Y-97106000D02*
X88265000Y-97536000D01*
X97469479Y-98000000D02*
X97469479Y-99253521D01*
X95504000Y-61453800D02*
X95504000Y-60452000D01*
X101524000Y-56000000D02*
X101524000Y-58389244D01*
X85344000Y-59341620D02*
X85344000Y-62865000D01*
X93096585Y-55837171D02*
X94276829Y-55837171D01*
X93200000Y-68000000D02*
X93200000Y-68800000D01*
X91567000Y-75946000D02*
X91567000Y-78892000D01*
X89350000Y-92000000D02*
X89350000Y-94176000D01*
X98552000Y-89154000D02*
X98000000Y-88602000D01*
X98000000Y-90900000D02*
X97900000Y-91000000D01*
X76900000Y-98000000D02*
X76900000Y-93250000D01*
X101092000Y-63485392D02*
X101092000Y-65415392D01*
X95631000Y-77470000D02*
X93281500Y-79819500D01*
X93154500Y-79819500D02*
X92837000Y-79502000D01*
X77724000Y-100076000D02*
X76900000Y-99252000D01*
X92735000Y-79400000D02*
X91059000Y-79400000D01*
X101258122Y-58655122D02*
X100000000Y-57397000D01*
X90170000Y-54102000D02*
X90837412Y-54102000D01*
X77100000Y-60630000D02*
X77100000Y-63130000D01*
X90641000Y-95873000D02*
X89408000Y-97106000D01*
X82841000Y-56838620D02*
X85344000Y-59341620D01*
X95600000Y-68000000D02*
X95600000Y-68800000D01*
X85691000Y-54167500D02*
X85725000Y-54133500D01*
X101092000Y-60985392D02*
X101092000Y-58821244D01*
X96393000Y-55626000D02*
X97416000Y-54603000D01*
X93472000Y-80137000D02*
X93154500Y-79819500D01*
X78867000Y-94742000D02*
X78867000Y-97282000D01*
X96600200Y-61950000D02*
X96000200Y-61950000D01*
%TO.N,/VIN_BAT*%
X93650000Y-91000000D02*
X92650000Y-92000000D01*
X96000000Y-91000000D02*
X93650000Y-91000000D01*
X96000000Y-91000000D02*
X96000000Y-93000000D01*
%TO.N,/IO29*%
X91091000Y-96059396D02*
X91091000Y-94636299D01*
X91059000Y-97909000D02*
X92150000Y-99000000D01*
X94400000Y-87000000D02*
X94400000Y-88607000D01*
X91059000Y-96091396D02*
X91059000Y-97909000D01*
X89408000Y-98806000D02*
X91956000Y-98806000D01*
X91059000Y-90678000D02*
X91059000Y-94604299D01*
X94400000Y-88607000D02*
X93345000Y-89662000D01*
X93345000Y-89662000D02*
X92075000Y-89662000D01*
X91059000Y-96091396D02*
X91091000Y-96059396D01*
X91091000Y-94636299D02*
X91059000Y-94604299D01*
X92075000Y-89662000D02*
X91059000Y-90678000D01*
X91956000Y-98806000D02*
X92150000Y-99000000D01*
%TO.N,/SD_D3*%
X79792000Y-72100000D02*
X79756000Y-72136000D01*
X81364000Y-72136000D02*
X81400000Y-72100000D01*
X79756000Y-72136000D02*
X81364000Y-72136000D01*
%TO.N,/SD_D2*%
X79776998Y-73300000D02*
X79756000Y-73279002D01*
X81400000Y-73300000D02*
X79776998Y-73300000D01*
%TO.N,/SD_CMD*%
X81400000Y-76900000D02*
X79821000Y-76900000D01*
X79821000Y-76900000D02*
X79756000Y-76835000D01*
%TO.N,3.3V*%
X92834584Y-54575172D02*
X93096585Y-54837173D01*
X87000000Y-64000000D02*
X90850000Y-64000000D01*
X90850000Y-64000000D02*
X91000000Y-63850000D01*
X85852000Y-61722000D02*
X86995000Y-60579000D01*
X94000000Y-62900000D02*
X94000000Y-62885000D01*
X91000000Y-63850000D02*
X91979000Y-63850000D01*
X86950000Y-63950000D02*
X87000000Y-64000000D01*
X91979000Y-63850000D02*
X92929000Y-62900000D01*
X85852000Y-63119000D02*
X85852000Y-61722000D01*
X94000000Y-64536000D02*
X94889392Y-65425392D01*
X94925000Y-59634000D02*
X95059500Y-59499500D01*
X99192000Y-63485392D02*
X98923392Y-63754000D01*
X85021000Y-63950000D02*
X85852000Y-63119000D01*
X84300000Y-63950000D02*
X85021000Y-63950000D01*
X94000000Y-62900000D02*
X94000000Y-64536000D01*
X94834000Y-62900000D02*
X94925000Y-62809000D01*
X95504000Y-59055000D02*
X95059500Y-59499500D01*
X94925000Y-62809000D02*
X94925000Y-59634000D01*
X84300000Y-63950000D02*
X86950000Y-63950000D01*
X94889392Y-65425392D02*
X99568122Y-65425392D01*
X95504000Y-55753000D02*
X95504000Y-59055000D01*
X79000000Y-63252000D02*
X80391000Y-64643000D01*
X94588173Y-54837173D02*
X95504000Y-55753000D01*
X93096585Y-54837173D02*
X94588173Y-54837173D01*
X86995000Y-60579000D02*
X86995000Y-57658000D01*
X86995000Y-57658000D02*
X86741000Y-57404000D01*
X94000000Y-62885000D02*
X93980000Y-62865000D01*
X94000000Y-62900000D02*
X94834000Y-62900000D01*
X84328000Y-65150500D02*
X84328000Y-63978000D01*
X92584585Y-54575172D02*
X92834584Y-54575172D01*
X99402000Y-63695392D02*
X99192000Y-63485392D01*
X92929000Y-62900000D02*
X94000000Y-62900000D01*
X84328000Y-63978000D02*
X84300000Y-63950000D01*
X79000000Y-63130000D02*
X79000000Y-63252000D01*
X99402000Y-65425392D02*
X99402000Y-63695392D01*
%TO.N,/SD_CLK*%
X81400000Y-78100000D02*
X79761000Y-78100000D01*
X79761000Y-78100000D02*
X79756000Y-78105000D01*
%TO.N,/SD_D0*%
X81400000Y-75700000D02*
X79764000Y-75700000D01*
X79764000Y-75700000D02*
X79756000Y-75692000D01*
%TO.N,/SD_D1*%
X81400000Y-74500000D02*
X79805000Y-74500000D01*
X79805000Y-74500000D02*
X79756000Y-74549000D01*
%TO.N,/GPS_RF*%
X102362000Y-65405000D02*
X102362000Y-84582000D01*
X98476000Y-56000000D02*
X98305000Y-56000000D01*
X102362000Y-84582000D02*
X102235000Y-84709000D01*
X98305000Y-56000000D02*
X97536000Y-56769000D01*
X101644000Y-85300000D02*
X100200000Y-85300000D01*
X97536000Y-58039000D02*
X98044000Y-58039000D01*
X97536000Y-56769000D02*
X97536000Y-58039000D01*
X102235000Y-84709000D02*
X101644000Y-85300000D01*
X98044000Y-58039000D02*
X98933000Y-58928000D01*
%TO.N,/UART_TX*%
X83600000Y-66802000D02*
X83600000Y-68000000D01*
%TO.N,/UART_RX*%
X91567000Y-74422000D02*
X94234000Y-74422000D01*
X84800000Y-66802000D02*
X84800000Y-68000000D01*
%TO.N,/RESET*%
X87200000Y-89965000D02*
X87200000Y-87000000D01*
X86106000Y-91059000D02*
X87200000Y-89965000D01*
X81100000Y-98000000D02*
X81153000Y-97947000D01*
X82550000Y-91059000D02*
X86106000Y-91059000D01*
X81153000Y-97947000D02*
X81153000Y-92456000D01*
X81153000Y-92456000D02*
X82550000Y-91059000D01*
%TO.N,/I2C2_SDA*%
X82677000Y-70993000D02*
X81493000Y-70993000D01*
X81493000Y-70993000D02*
X81400000Y-70900000D01*
X89188828Y-56168828D02*
X89281000Y-56261000D01*
X84641000Y-54112000D02*
X85344000Y-53409000D01*
X85344000Y-53409000D02*
X88265000Y-53409000D01*
X88900000Y-54044000D02*
X88900000Y-55048344D01*
X88265000Y-53409000D02*
X88900000Y-54044000D01*
X89188828Y-55337172D02*
X89188828Y-56168828D01*
X89188828Y-55337172D02*
X91572585Y-55337172D01*
X88900000Y-55048344D02*
X89188828Y-55337172D01*
X84641000Y-55304000D02*
X84641000Y-54112000D01*
%TO.N,/I2C2_SCL*%
X83566000Y-53975000D02*
X84582000Y-52959000D01*
X81667011Y-69967011D02*
X81400000Y-69700000D01*
X91694000Y-52959000D02*
X92084585Y-53349585D01*
X84582000Y-52959000D02*
X91694000Y-52959000D01*
X82692945Y-69967011D02*
X81667011Y-69967011D01*
X83566000Y-56007000D02*
X83566000Y-53975000D01*
X83566000Y-56260500D02*
X83566000Y-56007000D01*
X84641000Y-56354000D02*
X83913000Y-56354000D01*
X83913000Y-56354000D02*
X83566000Y-56007000D01*
X92084585Y-53349585D02*
X92084585Y-54575172D01*
%TO.N,+BATT*%
X81700000Y-62050000D02*
X81700000Y-63000000D01*
X77851000Y-89535000D02*
X77150000Y-90236000D01*
X86985695Y-66421000D02*
X89281000Y-66421000D01*
X83185000Y-63885000D02*
X83185000Y-65032805D01*
X84192195Y-66040000D02*
X86604695Y-66040000D01*
X82931000Y-82931000D02*
X81431000Y-82931000D01*
X80280000Y-60630000D02*
X81700000Y-62050000D01*
X79000000Y-60630000D02*
X80280000Y-60630000D01*
X78994000Y-89535000D02*
X77851000Y-89535000D01*
X93762104Y-64934500D02*
X94994604Y-66167000D01*
X77150000Y-90236000D02*
X77150000Y-91000000D01*
X80940380Y-82900000D02*
X79756000Y-84084380D01*
X83185000Y-65032805D02*
X84192195Y-66040000D01*
X96600200Y-60498800D02*
X97536000Y-59563000D01*
X81400000Y-81700000D02*
X81400000Y-82900000D01*
X96647000Y-64516000D02*
X96647000Y-62946800D01*
X96600200Y-62900000D02*
X97443514Y-62900000D01*
X99177392Y-61000000D02*
X99192000Y-60985392D01*
X79756000Y-88773000D02*
X78994000Y-89535000D01*
X96597618Y-60997418D02*
X96600200Y-61000000D01*
X81431000Y-82931000D02*
X81400000Y-82900000D01*
X89281000Y-64934500D02*
X93762104Y-64934500D01*
X82300000Y-63000000D02*
X83185000Y-63885000D01*
X94994604Y-66167000D02*
X96647000Y-66167000D01*
X79756000Y-84084380D02*
X79756000Y-88773000D01*
X81700000Y-63000000D02*
X82300000Y-63000000D01*
X96647000Y-62946800D02*
X96600200Y-62900000D01*
X86604695Y-66040000D02*
X86985695Y-66421000D01*
X81400000Y-82900000D02*
X80940380Y-82900000D01*
X96614808Y-60985392D02*
X96600200Y-61000000D01*
X96600200Y-61000000D02*
X96600200Y-60498800D01*
X99192000Y-61151514D02*
X97443514Y-62900000D01*
X99192000Y-60985392D02*
X99192000Y-61151514D01*
X81700000Y-62050000D02*
X84300000Y-62050000D01*
X99192000Y-60985392D02*
X96614808Y-60985392D01*
%TO.N,/SIM_DATA*%
X101564000Y-72100000D02*
X100200000Y-72100000D01*
X101600000Y-72136000D02*
X101564000Y-72100000D01*
%TO.N,/SIM_VDD*%
X101507000Y-70900000D02*
X100200000Y-70900000D01*
X101600000Y-70993000D02*
X101507000Y-70900000D01*
%TO.N,/SIM_CLK*%
X101577000Y-69700000D02*
X100200000Y-69700000D01*
X101600000Y-69723000D02*
X101577000Y-69700000D01*
%TO.N,/SIM_RST*%
X98000000Y-68000000D02*
X98000000Y-67354000D01*
X98000000Y-67354000D02*
X98298000Y-67056000D01*
X98298000Y-67056000D02*
X99441000Y-67056000D01*
%TO.N,/GSM_RF*%
X93726000Y-65659000D02*
X88900000Y-65659000D01*
X81153000Y-56770642D02*
X80524000Y-56141642D01*
X87249000Y-65659000D02*
X88900000Y-65659000D01*
X88900000Y-65659000D02*
X88773000Y-65659000D01*
X94400000Y-68000000D02*
X94400000Y-66333000D01*
X94400000Y-66333000D02*
X93726000Y-65659000D01*
X81153000Y-58293000D02*
X81153000Y-56770642D01*
X80391000Y-59055000D02*
X81153000Y-58293000D01*
X79337500Y-59055000D02*
X80391000Y-59055000D01*
%TO.N,1.8V*%
X85691000Y-57751000D02*
X86233000Y-58293000D01*
X85691000Y-57404000D02*
X85691000Y-57751000D01*
X79000000Y-65630000D02*
X81309000Y-65630000D01*
X82176500Y-64426500D02*
X81700000Y-63950000D01*
X81700000Y-65239000D02*
X81700000Y-63950000D01*
X78850000Y-65780000D02*
X79000000Y-65630000D01*
X81309000Y-65630000D02*
X81700000Y-65239000D01*
X78850000Y-68570000D02*
X78850000Y-65780000D01*
X86233000Y-58293000D02*
X86233000Y-58928000D01*
X82423000Y-64426500D02*
X82176500Y-64426500D01*
%TO.N,/PWR_KEY*%
X95786000Y-97000000D02*
X96393000Y-96393000D01*
X96139000Y-85090000D02*
X96647000Y-84582000D01*
X89789000Y-83439000D02*
X91440000Y-85090000D01*
X83058000Y-79375000D02*
X81475000Y-79375000D01*
X96393000Y-96393000D02*
X99314000Y-96393000D01*
X91440000Y-85090000D02*
X96139000Y-85090000D01*
X100921000Y-98000000D02*
X101669479Y-98000000D01*
X93850000Y-97000000D02*
X93850000Y-99000000D01*
X99314000Y-96393000D02*
X100921000Y-98000000D01*
X81475000Y-79375000D02*
X81400000Y-79300000D01*
X93850000Y-97000000D02*
X95786000Y-97000000D01*
%TO.N,/IO27*%
X77597000Y-87884000D02*
X77597000Y-88265000D01*
X96774000Y-85852000D02*
X96800000Y-85878000D01*
X96800000Y-85878000D02*
X96800000Y-87000000D01*
X77597000Y-88265000D02*
X76581000Y-89281000D01*
%TO.N,/IO28*%
X88773000Y-71513380D02*
X86601620Y-69342000D01*
X77597000Y-73269695D02*
X77597000Y-74930000D01*
X98679000Y-82179000D02*
X99400000Y-82900000D01*
X94878305Y-73533000D02*
X98679000Y-77333695D01*
X83185000Y-69342000D02*
X82677000Y-68834000D01*
X82677000Y-68834000D02*
X80391000Y-68834000D01*
X98679000Y-77333695D02*
X98679000Y-82179000D01*
X80391000Y-68834000D02*
X80137000Y-69088000D01*
X88773000Y-73533000D02*
X94878305Y-73533000D01*
X88773000Y-71882000D02*
X88773000Y-71513380D01*
X86601620Y-69342000D02*
X83185000Y-69342000D01*
X99400000Y-82900000D02*
X100200000Y-82900000D01*
X80137000Y-69088000D02*
X80137000Y-70729695D01*
X80137000Y-70729695D02*
X77597000Y-73269695D01*
%TO.N,Net-(D1-Pad-)*%
X77597000Y-86360000D02*
X77597000Y-84289000D01*
%TO.N,Net-(D2-Pad-)*%
X77597000Y-78779000D02*
X77597000Y-76454000D01*
%TO.N,+5V*%
X86995000Y-95885000D02*
X87757000Y-95123000D01*
X85471000Y-90424000D02*
X86000000Y-89895000D01*
X87757000Y-95123000D02*
X89916000Y-95123000D01*
X84836000Y-95123000D02*
X86233000Y-95123000D01*
X86000000Y-89895000D02*
X86000000Y-87000000D01*
X86995000Y-96393000D02*
X86995000Y-95885000D01*
X80391000Y-92583000D02*
X82550000Y-90424000D01*
X82296000Y-92583000D02*
X84836000Y-95123000D01*
X82550000Y-90424000D02*
X85471000Y-90424000D01*
X86233000Y-95123000D02*
X86995000Y-95885000D01*
%TO.N,Net-(CHG1-Pad-)*%
X86995000Y-99314000D02*
X86995000Y-97917000D01*
%TO.N,/VIO*%
X96774000Y-73533000D02*
X96800000Y-73507000D01*
X96800000Y-73507000D02*
X96800000Y-68000000D01*
X92779000Y-95943000D02*
X92150000Y-96572000D01*
X92150000Y-96572000D02*
X92150000Y-97000000D01*
X99980500Y-95943000D02*
X92779000Y-95943000D01*
X100673500Y-95250000D02*
X99980500Y-95943000D01*
%TO.N,Net-(U5-CSB)*%
X92084585Y-61077415D02*
X92084585Y-56099172D01*
X91000000Y-62150000D02*
X92063000Y-61087000D01*
X92075000Y-61087000D02*
X92084585Y-61077415D01*
X92063000Y-61087000D02*
X92075000Y-61087000D01*
%TO.N,Net-(X1-~{CS})*%
X86741000Y-55304000D02*
X87816000Y-55304000D01*
X88392000Y-61595000D02*
X87687000Y-62300000D01*
X87816000Y-55304000D02*
X88392000Y-55880000D01*
X87687000Y-62300000D02*
X87000000Y-62300000D01*
X88392000Y-55880000D02*
X88392000Y-61595000D01*
%TD*%
M02*
