%TF.GenerationSoftware,KiCad,Pcbnew,7.0.8*%
%TF.CreationDate,2023-10-19T11:53:00-06:00*%
%TF.ProjectId,air_station_1v5,6169725f-7374-4617-9469-6f6e5f317635,rev?*%
%TF.SameCoordinates,Original*%
%TF.FileFunction,Drillmap*%
%TF.FilePolarity,Positive*%
%FSLAX45Y45*%
G04 Gerber Fmt 4.5, Leading zero omitted, Abs format (unit mm)*
G04 Created by KiCad (PCBNEW 7.0.8) date 2023-10-19 11:53:00*
%MOMM*%
%LPD*%
G01*
G04 APERTURE LIST*
%ADD10C,0.100000*%
%ADD11C,0.200000*%
%ADD12C,0.040000*%
G04 APERTURE END LIST*
D10*
X7589500Y-5266328D02*
X10272500Y-5266328D01*
X10272500Y-10060000D01*
X7589500Y-10060000D01*
X7589500Y-5266328D01*
D11*
D12*
X7629750Y-8031800D02*
X7669750Y-8071800D01*
X7669750Y-8031800D02*
X7629750Y-8071800D01*
X7638100Y-8908100D02*
X7678100Y-8948100D01*
X7678100Y-8908100D02*
X7638100Y-8948100D01*
X7866700Y-9454200D02*
X7906700Y-9494200D01*
X7906700Y-9454200D02*
X7866700Y-9494200D01*
X7892100Y-5301300D02*
X7932100Y-5341300D01*
X7932100Y-5301300D02*
X7892100Y-5341300D01*
X7913750Y-5885500D02*
X7953750Y-5925500D01*
X7953750Y-5885500D02*
X7913750Y-5925500D01*
X7955600Y-7193600D02*
X7995600Y-7233600D01*
X7995600Y-7193600D02*
X7955600Y-7233600D01*
X7955600Y-7307900D02*
X7995600Y-7347900D01*
X7995600Y-7307900D02*
X7955600Y-7347900D01*
X7955600Y-7434900D02*
X7995600Y-7474900D01*
X7995600Y-7434900D02*
X7955600Y-7474900D01*
X7955600Y-7549200D02*
X7995600Y-7589200D01*
X7995600Y-7549200D02*
X7955600Y-7589200D01*
X7955600Y-7663500D02*
X7995600Y-7703500D01*
X7995600Y-7663500D02*
X7955600Y-7703500D01*
X7955600Y-7790500D02*
X7995600Y-7830500D01*
X7995600Y-7790500D02*
X7955600Y-7830500D01*
X8019100Y-6444300D02*
X8059100Y-6484300D01*
X8059100Y-6444300D02*
X8019100Y-6484300D01*
X8019100Y-9238300D02*
X8059100Y-9278300D01*
X8059100Y-9238300D02*
X8019100Y-9278300D01*
X8209600Y-9238300D02*
X8249600Y-9278300D01*
X8249600Y-9238300D02*
X8209600Y-9278300D01*
X8222300Y-6422650D02*
X8262300Y-6462650D01*
X8262300Y-6422650D02*
X8222300Y-6462650D01*
X8247700Y-7079300D02*
X8287700Y-7119300D01*
X8287700Y-7079300D02*
X8247700Y-7119300D01*
X8249294Y-6976701D02*
X8289294Y-7016701D01*
X8289294Y-6976701D02*
X8249294Y-7016701D01*
X8273100Y-8273100D02*
X8313100Y-8313100D01*
X8313100Y-8273100D02*
X8273100Y-8313100D01*
X8285800Y-7917500D02*
X8325800Y-7957500D01*
X8325800Y-7917500D02*
X8285800Y-7957500D01*
X8336600Y-5606050D02*
X8376600Y-5646050D01*
X8376600Y-5606050D02*
X8336600Y-5646050D01*
X8340000Y-6660200D02*
X8380000Y-6700200D01*
X8380000Y-6660200D02*
X8340000Y-6700200D01*
X8412800Y-6495050D02*
X8452800Y-6535050D01*
X8452800Y-6495050D02*
X8412800Y-6535050D01*
X8460000Y-6660200D02*
X8500000Y-6700200D01*
X8500000Y-6660200D02*
X8460000Y-6700200D01*
X8552500Y-5393350D02*
X8592500Y-5433350D01*
X8592500Y-5393350D02*
X8552500Y-5433350D01*
X8603300Y-5872800D02*
X8643300Y-5912800D01*
X8643300Y-5872800D02*
X8603300Y-5912800D01*
X8679500Y-9911400D02*
X8719500Y-9951400D01*
X8719500Y-9911400D02*
X8679500Y-9951400D01*
X8704900Y-6545900D02*
X8744900Y-6585900D01*
X8744900Y-6545900D02*
X8704900Y-6585900D01*
X8857300Y-7168200D02*
X8897300Y-7208200D01*
X8897300Y-7168200D02*
X8857300Y-7208200D01*
X8857300Y-7333300D02*
X8897300Y-7373300D01*
X8897300Y-7333300D02*
X8857300Y-7373300D01*
X8908100Y-5606100D02*
X8948100Y-5646100D01*
X8948100Y-5606100D02*
X8908100Y-5646100D01*
X8908100Y-6473450D02*
X8948100Y-6513450D01*
X8948100Y-6473450D02*
X8908100Y-6513450D01*
X8908100Y-6622100D02*
X8948100Y-6662100D01*
X8948100Y-6622100D02*
X8908100Y-6662100D01*
X8958900Y-8323900D02*
X8998900Y-8363900D01*
X8998900Y-8323900D02*
X8958900Y-8363900D01*
X8971600Y-9492300D02*
X9011600Y-9532300D01*
X9011600Y-9492300D02*
X8971600Y-9532300D01*
X8997000Y-5390200D02*
X9037000Y-5430200D01*
X9037000Y-5390200D02*
X8997000Y-5430200D01*
X9136700Y-7422200D02*
X9176700Y-7462200D01*
X9176700Y-7422200D02*
X9136700Y-7462200D01*
X9136700Y-7574600D02*
X9176700Y-7614600D01*
X9176700Y-7574600D02*
X9136700Y-7614600D01*
X9327200Y-8412800D02*
X9367200Y-8452800D01*
X9367200Y-8412800D02*
X9327200Y-8452800D01*
X9403400Y-7422200D02*
X9443400Y-7462200D01*
X9443400Y-7422200D02*
X9403400Y-7462200D01*
X9416100Y-5555300D02*
X9456100Y-5595300D01*
X9456100Y-5555300D02*
X9416100Y-5595300D01*
X9505000Y-5415600D02*
X9545000Y-5455600D01*
X9545000Y-5415600D02*
X9505000Y-5455600D01*
X9593900Y-9784400D02*
X9633900Y-9824400D01*
X9633900Y-9784400D02*
X9593900Y-9824400D01*
X9644700Y-6431600D02*
X9684700Y-6471600D01*
X9684700Y-6431600D02*
X9644700Y-6471600D01*
X9644700Y-6596700D02*
X9684700Y-6636700D01*
X9684700Y-6596700D02*
X9644700Y-6636700D01*
X9644700Y-8438200D02*
X9684700Y-8478200D01*
X9684700Y-8438200D02*
X9644700Y-8478200D01*
X9657400Y-7333300D02*
X9697400Y-7373300D01*
X9697400Y-7333300D02*
X9657400Y-7373300D01*
X9657400Y-8565200D02*
X9697400Y-8605200D01*
X9697400Y-8565200D02*
X9657400Y-8605200D01*
X9759000Y-7727000D02*
X9799000Y-7767000D01*
X9799000Y-7727000D02*
X9759000Y-7767000D01*
X9835200Y-8895400D02*
X9875200Y-8935400D01*
X9875200Y-8895400D02*
X9835200Y-8935400D01*
X9873300Y-5872800D02*
X9913300Y-5912800D01*
X9913300Y-5872800D02*
X9873300Y-5912800D01*
X9907488Y-6685600D02*
X9947488Y-6725600D01*
X9947488Y-6685600D02*
X9907488Y-6725600D01*
X9962200Y-8755700D02*
X10002200Y-8795700D01*
X10002200Y-8755700D02*
X9962200Y-8795700D01*
X10047350Y-9505000D02*
X10087350Y-9545000D01*
X10087350Y-9505000D02*
X10047350Y-9545000D01*
X10140000Y-6825300D02*
X10180000Y-6865300D01*
X10180000Y-6825300D02*
X10140000Y-6865300D01*
X10140000Y-6952300D02*
X10180000Y-6992300D01*
X10180000Y-6952300D02*
X10140000Y-6992300D01*
X10140000Y-7079300D02*
X10180000Y-7119300D01*
X10180000Y-7079300D02*
X10140000Y-7119300D01*
X10140000Y-7193600D02*
X10180000Y-7233600D01*
X10180000Y-7193600D02*
X10140000Y-7233600D01*
X10216200Y-6520500D02*
X10256200Y-6560500D01*
X10256200Y-6520500D02*
X10216200Y-6560500D01*
D11*
X7845277Y-10376484D02*
X7845277Y-10176484D01*
X7845277Y-10176484D02*
X7892896Y-10176484D01*
X7892896Y-10176484D02*
X7921467Y-10186008D01*
X7921467Y-10186008D02*
X7940515Y-10205055D01*
X7940515Y-10205055D02*
X7950039Y-10224103D01*
X7950039Y-10224103D02*
X7959562Y-10262198D01*
X7959562Y-10262198D02*
X7959562Y-10290770D01*
X7959562Y-10290770D02*
X7950039Y-10328865D01*
X7950039Y-10328865D02*
X7940515Y-10347912D01*
X7940515Y-10347912D02*
X7921467Y-10366960D01*
X7921467Y-10366960D02*
X7892896Y-10376484D01*
X7892896Y-10376484D02*
X7845277Y-10376484D01*
X8045277Y-10376484D02*
X8045277Y-10243150D01*
X8045277Y-10281246D02*
X8054801Y-10262198D01*
X8054801Y-10262198D02*
X8064324Y-10252674D01*
X8064324Y-10252674D02*
X8083372Y-10243150D01*
X8083372Y-10243150D02*
X8102420Y-10243150D01*
X8169086Y-10376484D02*
X8169086Y-10243150D01*
X8169086Y-10176484D02*
X8159562Y-10186008D01*
X8159562Y-10186008D02*
X8169086Y-10195531D01*
X8169086Y-10195531D02*
X8178610Y-10186008D01*
X8178610Y-10186008D02*
X8169086Y-10176484D01*
X8169086Y-10176484D02*
X8169086Y-10195531D01*
X8292896Y-10376484D02*
X8273848Y-10366960D01*
X8273848Y-10366960D02*
X8264324Y-10347912D01*
X8264324Y-10347912D02*
X8264324Y-10176484D01*
X8397658Y-10376484D02*
X8378610Y-10366960D01*
X8378610Y-10366960D02*
X8369086Y-10347912D01*
X8369086Y-10347912D02*
X8369086Y-10176484D01*
X8626229Y-10376484D02*
X8626229Y-10176484D01*
X8626229Y-10176484D02*
X8692896Y-10319341D01*
X8692896Y-10319341D02*
X8759563Y-10176484D01*
X8759563Y-10176484D02*
X8759563Y-10376484D01*
X8940515Y-10376484D02*
X8940515Y-10271722D01*
X8940515Y-10271722D02*
X8930991Y-10252674D01*
X8930991Y-10252674D02*
X8911944Y-10243150D01*
X8911944Y-10243150D02*
X8873848Y-10243150D01*
X8873848Y-10243150D02*
X8854801Y-10252674D01*
X8940515Y-10366960D02*
X8921467Y-10376484D01*
X8921467Y-10376484D02*
X8873848Y-10376484D01*
X8873848Y-10376484D02*
X8854801Y-10366960D01*
X8854801Y-10366960D02*
X8845277Y-10347912D01*
X8845277Y-10347912D02*
X8845277Y-10328865D01*
X8845277Y-10328865D02*
X8854801Y-10309817D01*
X8854801Y-10309817D02*
X8873848Y-10300293D01*
X8873848Y-10300293D02*
X8921467Y-10300293D01*
X8921467Y-10300293D02*
X8940515Y-10290770D01*
X9035753Y-10243150D02*
X9035753Y-10443150D01*
X9035753Y-10252674D02*
X9054801Y-10243150D01*
X9054801Y-10243150D02*
X9092896Y-10243150D01*
X9092896Y-10243150D02*
X9111944Y-10252674D01*
X9111944Y-10252674D02*
X9121467Y-10262198D01*
X9121467Y-10262198D02*
X9130991Y-10281246D01*
X9130991Y-10281246D02*
X9130991Y-10338389D01*
X9130991Y-10338389D02*
X9121467Y-10357436D01*
X9121467Y-10357436D02*
X9111944Y-10366960D01*
X9111944Y-10366960D02*
X9092896Y-10376484D01*
X9092896Y-10376484D02*
X9054801Y-10376484D01*
X9054801Y-10376484D02*
X9035753Y-10366960D01*
X9216705Y-10357436D02*
X9226229Y-10366960D01*
X9226229Y-10366960D02*
X9216705Y-10376484D01*
X9216705Y-10376484D02*
X9207182Y-10366960D01*
X9207182Y-10366960D02*
X9216705Y-10357436D01*
X9216705Y-10357436D02*
X9216705Y-10376484D01*
X9216705Y-10252674D02*
X9226229Y-10262198D01*
X9226229Y-10262198D02*
X9216705Y-10271722D01*
X9216705Y-10271722D02*
X9207182Y-10262198D01*
X9207182Y-10262198D02*
X9216705Y-10252674D01*
X9216705Y-10252674D02*
X9216705Y-10271722D01*
D12*
X7544500Y-10685000D02*
X7584500Y-10725000D01*
X7584500Y-10685000D02*
X7544500Y-10725000D01*
D11*
X7883372Y-10596484D02*
X7902420Y-10596484D01*
X7902420Y-10596484D02*
X7921467Y-10606008D01*
X7921467Y-10606008D02*
X7930991Y-10615531D01*
X7930991Y-10615531D02*
X7940515Y-10634579D01*
X7940515Y-10634579D02*
X7950039Y-10672674D01*
X7950039Y-10672674D02*
X7950039Y-10720293D01*
X7950039Y-10720293D02*
X7940515Y-10758389D01*
X7940515Y-10758389D02*
X7930991Y-10777436D01*
X7930991Y-10777436D02*
X7921467Y-10786960D01*
X7921467Y-10786960D02*
X7902420Y-10796484D01*
X7902420Y-10796484D02*
X7883372Y-10796484D01*
X7883372Y-10796484D02*
X7864324Y-10786960D01*
X7864324Y-10786960D02*
X7854801Y-10777436D01*
X7854801Y-10777436D02*
X7845277Y-10758389D01*
X7845277Y-10758389D02*
X7835753Y-10720293D01*
X7835753Y-10720293D02*
X7835753Y-10672674D01*
X7835753Y-10672674D02*
X7845277Y-10634579D01*
X7845277Y-10634579D02*
X7854801Y-10615531D01*
X7854801Y-10615531D02*
X7864324Y-10606008D01*
X7864324Y-10606008D02*
X7883372Y-10596484D01*
X8035753Y-10777436D02*
X8045277Y-10786960D01*
X8045277Y-10786960D02*
X8035753Y-10796484D01*
X8035753Y-10796484D02*
X8026229Y-10786960D01*
X8026229Y-10786960D02*
X8035753Y-10777436D01*
X8035753Y-10777436D02*
X8035753Y-10796484D01*
X8216705Y-10663150D02*
X8216705Y-10796484D01*
X8169086Y-10586960D02*
X8121467Y-10729817D01*
X8121467Y-10729817D02*
X8245277Y-10729817D01*
X8359562Y-10596484D02*
X8378610Y-10596484D01*
X8378610Y-10596484D02*
X8397658Y-10606008D01*
X8397658Y-10606008D02*
X8407182Y-10615531D01*
X8407182Y-10615531D02*
X8416705Y-10634579D01*
X8416705Y-10634579D02*
X8426229Y-10672674D01*
X8426229Y-10672674D02*
X8426229Y-10720293D01*
X8426229Y-10720293D02*
X8416705Y-10758389D01*
X8416705Y-10758389D02*
X8407182Y-10777436D01*
X8407182Y-10777436D02*
X8397658Y-10786960D01*
X8397658Y-10786960D02*
X8378610Y-10796484D01*
X8378610Y-10796484D02*
X8359562Y-10796484D01*
X8359562Y-10796484D02*
X8340515Y-10786960D01*
X8340515Y-10786960D02*
X8330991Y-10777436D01*
X8330991Y-10777436D02*
X8321467Y-10758389D01*
X8321467Y-10758389D02*
X8311943Y-10720293D01*
X8311943Y-10720293D02*
X8311943Y-10672674D01*
X8311943Y-10672674D02*
X8321467Y-10634579D01*
X8321467Y-10634579D02*
X8330991Y-10615531D01*
X8330991Y-10615531D02*
X8340515Y-10606008D01*
X8340515Y-10606008D02*
X8359562Y-10596484D01*
X8550039Y-10596484D02*
X8569086Y-10596484D01*
X8569086Y-10596484D02*
X8588134Y-10606008D01*
X8588134Y-10606008D02*
X8597658Y-10615531D01*
X8597658Y-10615531D02*
X8607182Y-10634579D01*
X8607182Y-10634579D02*
X8616705Y-10672674D01*
X8616705Y-10672674D02*
X8616705Y-10720293D01*
X8616705Y-10720293D02*
X8607182Y-10758389D01*
X8607182Y-10758389D02*
X8597658Y-10777436D01*
X8597658Y-10777436D02*
X8588134Y-10786960D01*
X8588134Y-10786960D02*
X8569086Y-10796484D01*
X8569086Y-10796484D02*
X8550039Y-10796484D01*
X8550039Y-10796484D02*
X8530991Y-10786960D01*
X8530991Y-10786960D02*
X8521467Y-10777436D01*
X8521467Y-10777436D02*
X8511944Y-10758389D01*
X8511944Y-10758389D02*
X8502420Y-10720293D01*
X8502420Y-10720293D02*
X8502420Y-10672674D01*
X8502420Y-10672674D02*
X8511944Y-10634579D01*
X8511944Y-10634579D02*
X8521467Y-10615531D01*
X8521467Y-10615531D02*
X8530991Y-10606008D01*
X8530991Y-10606008D02*
X8550039Y-10596484D01*
X8702420Y-10796484D02*
X8702420Y-10663150D01*
X8702420Y-10682198D02*
X8711944Y-10672674D01*
X8711944Y-10672674D02*
X8730991Y-10663150D01*
X8730991Y-10663150D02*
X8759563Y-10663150D01*
X8759563Y-10663150D02*
X8778610Y-10672674D01*
X8778610Y-10672674D02*
X8788134Y-10691722D01*
X8788134Y-10691722D02*
X8788134Y-10796484D01*
X8788134Y-10691722D02*
X8797658Y-10672674D01*
X8797658Y-10672674D02*
X8816705Y-10663150D01*
X8816705Y-10663150D02*
X8845277Y-10663150D01*
X8845277Y-10663150D02*
X8864325Y-10672674D01*
X8864325Y-10672674D02*
X8873848Y-10691722D01*
X8873848Y-10691722D02*
X8873848Y-10796484D01*
X8969086Y-10796484D02*
X8969086Y-10663150D01*
X8969086Y-10682198D02*
X8978610Y-10672674D01*
X8978610Y-10672674D02*
X8997658Y-10663150D01*
X8997658Y-10663150D02*
X9026229Y-10663150D01*
X9026229Y-10663150D02*
X9045277Y-10672674D01*
X9045277Y-10672674D02*
X9054801Y-10691722D01*
X9054801Y-10691722D02*
X9054801Y-10796484D01*
X9054801Y-10691722D02*
X9064325Y-10672674D01*
X9064325Y-10672674D02*
X9083372Y-10663150D01*
X9083372Y-10663150D02*
X9111944Y-10663150D01*
X9111944Y-10663150D02*
X9130991Y-10672674D01*
X9130991Y-10672674D02*
X9140515Y-10691722D01*
X9140515Y-10691722D02*
X9140515Y-10796484D01*
X9530991Y-10586960D02*
X9359563Y-10844103D01*
X9788134Y-10596484D02*
X9807182Y-10596484D01*
X9807182Y-10596484D02*
X9826229Y-10606008D01*
X9826229Y-10606008D02*
X9835753Y-10615531D01*
X9835753Y-10615531D02*
X9845277Y-10634579D01*
X9845277Y-10634579D02*
X9854801Y-10672674D01*
X9854801Y-10672674D02*
X9854801Y-10720293D01*
X9854801Y-10720293D02*
X9845277Y-10758389D01*
X9845277Y-10758389D02*
X9835753Y-10777436D01*
X9835753Y-10777436D02*
X9826229Y-10786960D01*
X9826229Y-10786960D02*
X9807182Y-10796484D01*
X9807182Y-10796484D02*
X9788134Y-10796484D01*
X9788134Y-10796484D02*
X9769087Y-10786960D01*
X9769087Y-10786960D02*
X9759563Y-10777436D01*
X9759563Y-10777436D02*
X9750039Y-10758389D01*
X9750039Y-10758389D02*
X9740515Y-10720293D01*
X9740515Y-10720293D02*
X9740515Y-10672674D01*
X9740515Y-10672674D02*
X9750039Y-10634579D01*
X9750039Y-10634579D02*
X9759563Y-10615531D01*
X9759563Y-10615531D02*
X9769087Y-10606008D01*
X9769087Y-10606008D02*
X9788134Y-10596484D01*
X9940515Y-10777436D02*
X9950039Y-10786960D01*
X9950039Y-10786960D02*
X9940515Y-10796484D01*
X9940515Y-10796484D02*
X9930991Y-10786960D01*
X9930991Y-10786960D02*
X9940515Y-10777436D01*
X9940515Y-10777436D02*
X9940515Y-10796484D01*
X10073848Y-10596484D02*
X10092896Y-10596484D01*
X10092896Y-10596484D02*
X10111944Y-10606008D01*
X10111944Y-10606008D02*
X10121468Y-10615531D01*
X10121468Y-10615531D02*
X10130991Y-10634579D01*
X10130991Y-10634579D02*
X10140515Y-10672674D01*
X10140515Y-10672674D02*
X10140515Y-10720293D01*
X10140515Y-10720293D02*
X10130991Y-10758389D01*
X10130991Y-10758389D02*
X10121468Y-10777436D01*
X10121468Y-10777436D02*
X10111944Y-10786960D01*
X10111944Y-10786960D02*
X10092896Y-10796484D01*
X10092896Y-10796484D02*
X10073848Y-10796484D01*
X10073848Y-10796484D02*
X10054801Y-10786960D01*
X10054801Y-10786960D02*
X10045277Y-10777436D01*
X10045277Y-10777436D02*
X10035753Y-10758389D01*
X10035753Y-10758389D02*
X10026229Y-10720293D01*
X10026229Y-10720293D02*
X10026229Y-10672674D01*
X10026229Y-10672674D02*
X10035753Y-10634579D01*
X10035753Y-10634579D02*
X10045277Y-10615531D01*
X10045277Y-10615531D02*
X10054801Y-10606008D01*
X10054801Y-10606008D02*
X10073848Y-10596484D01*
X10330991Y-10796484D02*
X10216706Y-10796484D01*
X10273848Y-10796484D02*
X10273848Y-10596484D01*
X10273848Y-10596484D02*
X10254801Y-10625055D01*
X10254801Y-10625055D02*
X10235753Y-10644103D01*
X10235753Y-10644103D02*
X10216706Y-10653627D01*
X10511944Y-10596484D02*
X10416706Y-10596484D01*
X10416706Y-10596484D02*
X10407182Y-10691722D01*
X10407182Y-10691722D02*
X10416706Y-10682198D01*
X10416706Y-10682198D02*
X10435753Y-10672674D01*
X10435753Y-10672674D02*
X10483372Y-10672674D01*
X10483372Y-10672674D02*
X10502420Y-10682198D01*
X10502420Y-10682198D02*
X10511944Y-10691722D01*
X10511944Y-10691722D02*
X10521468Y-10710770D01*
X10521468Y-10710770D02*
X10521468Y-10758389D01*
X10521468Y-10758389D02*
X10511944Y-10777436D01*
X10511944Y-10777436D02*
X10502420Y-10786960D01*
X10502420Y-10786960D02*
X10483372Y-10796484D01*
X10483372Y-10796484D02*
X10435753Y-10796484D01*
X10435753Y-10796484D02*
X10416706Y-10786960D01*
X10416706Y-10786960D02*
X10407182Y-10777436D01*
X10588134Y-10596484D02*
X10721468Y-10596484D01*
X10721468Y-10596484D02*
X10635753Y-10796484D01*
X10788134Y-10596484D02*
X10788134Y-10634579D01*
X10864325Y-10596484D02*
X10864325Y-10634579D01*
X11159563Y-10872674D02*
X11150039Y-10863150D01*
X11150039Y-10863150D02*
X11130991Y-10834579D01*
X11130991Y-10834579D02*
X11121468Y-10815531D01*
X11121468Y-10815531D02*
X11111944Y-10786960D01*
X11111944Y-10786960D02*
X11102420Y-10739341D01*
X11102420Y-10739341D02*
X11102420Y-10701246D01*
X11102420Y-10701246D02*
X11111944Y-10653627D01*
X11111944Y-10653627D02*
X11121468Y-10625055D01*
X11121468Y-10625055D02*
X11130991Y-10606008D01*
X11130991Y-10606008D02*
X11150039Y-10577436D01*
X11150039Y-10577436D02*
X11159563Y-10567912D01*
X11330991Y-10596484D02*
X11235753Y-10596484D01*
X11235753Y-10596484D02*
X11226229Y-10691722D01*
X11226229Y-10691722D02*
X11235753Y-10682198D01*
X11235753Y-10682198D02*
X11254801Y-10672674D01*
X11254801Y-10672674D02*
X11302420Y-10672674D01*
X11302420Y-10672674D02*
X11321468Y-10682198D01*
X11321468Y-10682198D02*
X11330991Y-10691722D01*
X11330991Y-10691722D02*
X11340515Y-10710770D01*
X11340515Y-10710770D02*
X11340515Y-10758389D01*
X11340515Y-10758389D02*
X11330991Y-10777436D01*
X11330991Y-10777436D02*
X11321468Y-10786960D01*
X11321468Y-10786960D02*
X11302420Y-10796484D01*
X11302420Y-10796484D02*
X11254801Y-10796484D01*
X11254801Y-10796484D02*
X11235753Y-10786960D01*
X11235753Y-10786960D02*
X11226229Y-10777436D01*
X11454801Y-10682198D02*
X11435753Y-10672674D01*
X11435753Y-10672674D02*
X11426229Y-10663150D01*
X11426229Y-10663150D02*
X11416706Y-10644103D01*
X11416706Y-10644103D02*
X11416706Y-10634579D01*
X11416706Y-10634579D02*
X11426229Y-10615531D01*
X11426229Y-10615531D02*
X11435753Y-10606008D01*
X11435753Y-10606008D02*
X11454801Y-10596484D01*
X11454801Y-10596484D02*
X11492896Y-10596484D01*
X11492896Y-10596484D02*
X11511944Y-10606008D01*
X11511944Y-10606008D02*
X11521468Y-10615531D01*
X11521468Y-10615531D02*
X11530991Y-10634579D01*
X11530991Y-10634579D02*
X11530991Y-10644103D01*
X11530991Y-10644103D02*
X11521468Y-10663150D01*
X11521468Y-10663150D02*
X11511944Y-10672674D01*
X11511944Y-10672674D02*
X11492896Y-10682198D01*
X11492896Y-10682198D02*
X11454801Y-10682198D01*
X11454801Y-10682198D02*
X11435753Y-10691722D01*
X11435753Y-10691722D02*
X11426229Y-10701246D01*
X11426229Y-10701246D02*
X11416706Y-10720293D01*
X11416706Y-10720293D02*
X11416706Y-10758389D01*
X11416706Y-10758389D02*
X11426229Y-10777436D01*
X11426229Y-10777436D02*
X11435753Y-10786960D01*
X11435753Y-10786960D02*
X11454801Y-10796484D01*
X11454801Y-10796484D02*
X11492896Y-10796484D01*
X11492896Y-10796484D02*
X11511944Y-10786960D01*
X11511944Y-10786960D02*
X11521468Y-10777436D01*
X11521468Y-10777436D02*
X11530991Y-10758389D01*
X11530991Y-10758389D02*
X11530991Y-10720293D01*
X11530991Y-10720293D02*
X11521468Y-10701246D01*
X11521468Y-10701246D02*
X11511944Y-10691722D01*
X11511944Y-10691722D02*
X11492896Y-10682198D01*
X11769087Y-10796484D02*
X11769087Y-10596484D01*
X11854801Y-10796484D02*
X11854801Y-10691722D01*
X11854801Y-10691722D02*
X11845277Y-10672674D01*
X11845277Y-10672674D02*
X11826230Y-10663150D01*
X11826230Y-10663150D02*
X11797658Y-10663150D01*
X11797658Y-10663150D02*
X11778610Y-10672674D01*
X11778610Y-10672674D02*
X11769087Y-10682198D01*
X11978610Y-10796484D02*
X11959563Y-10786960D01*
X11959563Y-10786960D02*
X11950039Y-10777436D01*
X11950039Y-10777436D02*
X11940515Y-10758389D01*
X11940515Y-10758389D02*
X11940515Y-10701246D01*
X11940515Y-10701246D02*
X11950039Y-10682198D01*
X11950039Y-10682198D02*
X11959563Y-10672674D01*
X11959563Y-10672674D02*
X11978610Y-10663150D01*
X11978610Y-10663150D02*
X12007182Y-10663150D01*
X12007182Y-10663150D02*
X12026230Y-10672674D01*
X12026230Y-10672674D02*
X12035753Y-10682198D01*
X12035753Y-10682198D02*
X12045277Y-10701246D01*
X12045277Y-10701246D02*
X12045277Y-10758389D01*
X12045277Y-10758389D02*
X12035753Y-10777436D01*
X12035753Y-10777436D02*
X12026230Y-10786960D01*
X12026230Y-10786960D02*
X12007182Y-10796484D01*
X12007182Y-10796484D02*
X11978610Y-10796484D01*
X12159563Y-10796484D02*
X12140515Y-10786960D01*
X12140515Y-10786960D02*
X12130991Y-10767912D01*
X12130991Y-10767912D02*
X12130991Y-10596484D01*
X12311944Y-10786960D02*
X12292896Y-10796484D01*
X12292896Y-10796484D02*
X12254801Y-10796484D01*
X12254801Y-10796484D02*
X12235753Y-10786960D01*
X12235753Y-10786960D02*
X12226230Y-10767912D01*
X12226230Y-10767912D02*
X12226230Y-10691722D01*
X12226230Y-10691722D02*
X12235753Y-10672674D01*
X12235753Y-10672674D02*
X12254801Y-10663150D01*
X12254801Y-10663150D02*
X12292896Y-10663150D01*
X12292896Y-10663150D02*
X12311944Y-10672674D01*
X12311944Y-10672674D02*
X12321468Y-10691722D01*
X12321468Y-10691722D02*
X12321468Y-10710770D01*
X12321468Y-10710770D02*
X12226230Y-10729817D01*
X12397658Y-10786960D02*
X12416706Y-10796484D01*
X12416706Y-10796484D02*
X12454801Y-10796484D01*
X12454801Y-10796484D02*
X12473849Y-10786960D01*
X12473849Y-10786960D02*
X12483372Y-10767912D01*
X12483372Y-10767912D02*
X12483372Y-10758389D01*
X12483372Y-10758389D02*
X12473849Y-10739341D01*
X12473849Y-10739341D02*
X12454801Y-10729817D01*
X12454801Y-10729817D02*
X12426230Y-10729817D01*
X12426230Y-10729817D02*
X12407182Y-10720293D01*
X12407182Y-10720293D02*
X12397658Y-10701246D01*
X12397658Y-10701246D02*
X12397658Y-10691722D01*
X12397658Y-10691722D02*
X12407182Y-10672674D01*
X12407182Y-10672674D02*
X12426230Y-10663150D01*
X12426230Y-10663150D02*
X12454801Y-10663150D01*
X12454801Y-10663150D02*
X12473849Y-10672674D01*
X12550039Y-10872674D02*
X12559563Y-10863150D01*
X12559563Y-10863150D02*
X12578611Y-10834579D01*
X12578611Y-10834579D02*
X12588134Y-10815531D01*
X12588134Y-10815531D02*
X12597658Y-10786960D01*
X12597658Y-10786960D02*
X12607182Y-10739341D01*
X12607182Y-10739341D02*
X12607182Y-10701246D01*
X12607182Y-10701246D02*
X12597658Y-10653627D01*
X12597658Y-10653627D02*
X12588134Y-10625055D01*
X12588134Y-10625055D02*
X12578611Y-10606008D01*
X12578611Y-10606008D02*
X12559563Y-10577436D01*
X12559563Y-10577436D02*
X12550039Y-10567912D01*
M02*
