%TF.GenerationSoftware,KiCad,Pcbnew,7.0.8*%
%TF.CreationDate,2023-10-19T11:53:08-06:00*%
%TF.ProjectId,air_station_1v5,6169725f-7374-4617-9469-6f6e5f317635,rev?*%
%TF.SameCoordinates,Original*%
%TF.FileFunction,AssemblyDrawing,Top*%
%FSLAX46Y46*%
G04 Gerber Fmt 4.6, Leading zero omitted, Abs format (unit mm)*
G04 Created by KiCad (PCBNEW 7.0.8) date 2023-10-19 11:53:08*
%MOMM*%
%LPD*%
G01*
G04 APERTURE LIST*
%ADD10C,0.081280*%
%ADD11C,0.150000*%
%ADD12C,0.082500*%
%ADD13C,0.063500*%
%ADD14C,0.152400*%
%ADD15C,0.101600*%
%ADD16C,0.100000*%
%ADD17C,0.203200*%
%ADD18C,0.025400*%
G04 APERTURE END LIST*
D10*
X94299810Y-58752243D02*
X94648153Y-58752243D01*
X94230141Y-58961249D02*
X94473981Y-58229729D01*
X94473981Y-58229729D02*
X94717821Y-58961249D01*
X94961661Y-58961249D02*
X94961661Y-58229729D01*
X94961661Y-58229729D02*
X95379672Y-58961249D01*
X95379672Y-58961249D02*
X95379672Y-58229729D01*
X95623512Y-58229729D02*
X96041524Y-58229729D01*
X95832518Y-58961249D02*
X95832518Y-58229729D01*
X96285364Y-58578072D02*
X96529204Y-58578072D01*
X96633707Y-58961249D02*
X96285364Y-58961249D01*
X96285364Y-58961249D02*
X96285364Y-58229729D01*
X96285364Y-58229729D02*
X96633707Y-58229729D01*
X96947215Y-58961249D02*
X96947215Y-58229729D01*
X96947215Y-58229729D02*
X97365226Y-58961249D01*
X97365226Y-58961249D02*
X97365226Y-58229729D01*
X97713569Y-58961249D02*
X97713569Y-58229729D01*
X97713569Y-58229729D02*
X98131580Y-58961249D01*
X98131580Y-58961249D02*
X98131580Y-58229729D01*
X98445089Y-58752243D02*
X98793432Y-58752243D01*
X98375420Y-58961249D02*
X98619260Y-58229729D01*
X98619260Y-58229729D02*
X98863100Y-58961249D01*
X99106940Y-58682575D02*
X99664289Y-58682575D01*
X100012631Y-58229729D02*
X100012631Y-58821912D01*
X100012631Y-58821912D02*
X100047465Y-58891580D01*
X100047465Y-58891580D02*
X100082300Y-58926415D01*
X100082300Y-58926415D02*
X100151968Y-58961249D01*
X100151968Y-58961249D02*
X100291305Y-58961249D01*
X100291305Y-58961249D02*
X100360974Y-58926415D01*
X100360974Y-58926415D02*
X100395808Y-58891580D01*
X100395808Y-58891580D02*
X100430642Y-58821912D01*
X100430642Y-58821912D02*
X100430642Y-58229729D01*
X100778985Y-58682575D02*
X101336334Y-58682575D01*
X101928516Y-58578072D02*
X101684676Y-58578072D01*
X101684676Y-58961249D02*
X101684676Y-58229729D01*
X101684676Y-58229729D02*
X102033019Y-58229729D01*
X102660036Y-58961249D02*
X102311693Y-58961249D01*
X102311693Y-58961249D02*
X102311693Y-58229729D01*
D11*
X76557571Y-99848200D02*
X76700428Y-99895819D01*
X76700428Y-99895819D02*
X76938523Y-99895819D01*
X76938523Y-99895819D02*
X77033761Y-99848200D01*
X77033761Y-99848200D02*
X77081380Y-99800580D01*
X77081380Y-99800580D02*
X77128999Y-99705342D01*
X77128999Y-99705342D02*
X77128999Y-99610104D01*
X77128999Y-99610104D02*
X77081380Y-99514866D01*
X77081380Y-99514866D02*
X77033761Y-99467247D01*
X77033761Y-99467247D02*
X76938523Y-99419628D01*
X76938523Y-99419628D02*
X76748047Y-99372009D01*
X76748047Y-99372009D02*
X76652809Y-99324390D01*
X76652809Y-99324390D02*
X76605190Y-99276771D01*
X76605190Y-99276771D02*
X76557571Y-99181533D01*
X76557571Y-99181533D02*
X76557571Y-99086295D01*
X76557571Y-99086295D02*
X76605190Y-98991057D01*
X76605190Y-98991057D02*
X76652809Y-98943438D01*
X76652809Y-98943438D02*
X76748047Y-98895819D01*
X76748047Y-98895819D02*
X76986142Y-98895819D01*
X76986142Y-98895819D02*
X77128999Y-98943438D01*
X77462333Y-98895819D02*
X77700428Y-99895819D01*
X77700428Y-99895819D02*
X77890904Y-99181533D01*
X77890904Y-99181533D02*
X78081380Y-99895819D01*
X78081380Y-99895819D02*
X78319476Y-98895819D01*
X78462333Y-99991057D02*
X79224237Y-99991057D01*
X80033761Y-99895819D02*
X79700428Y-99419628D01*
X79462333Y-99895819D02*
X79462333Y-98895819D01*
X79462333Y-98895819D02*
X79843285Y-98895819D01*
X79843285Y-98895819D02*
X79938523Y-98943438D01*
X79938523Y-98943438D02*
X79986142Y-98991057D01*
X79986142Y-98991057D02*
X80033761Y-99086295D01*
X80033761Y-99086295D02*
X80033761Y-99229152D01*
X80033761Y-99229152D02*
X79986142Y-99324390D01*
X79986142Y-99324390D02*
X79938523Y-99372009D01*
X79938523Y-99372009D02*
X79843285Y-99419628D01*
X79843285Y-99419628D02*
X79462333Y-99419628D01*
X80414714Y-99848200D02*
X80557571Y-99895819D01*
X80557571Y-99895819D02*
X80795666Y-99895819D01*
X80795666Y-99895819D02*
X80890904Y-99848200D01*
X80890904Y-99848200D02*
X80938523Y-99800580D01*
X80938523Y-99800580D02*
X80986142Y-99705342D01*
X80986142Y-99705342D02*
X80986142Y-99610104D01*
X80986142Y-99610104D02*
X80938523Y-99514866D01*
X80938523Y-99514866D02*
X80890904Y-99467247D01*
X80890904Y-99467247D02*
X80795666Y-99419628D01*
X80795666Y-99419628D02*
X80605190Y-99372009D01*
X80605190Y-99372009D02*
X80509952Y-99324390D01*
X80509952Y-99324390D02*
X80462333Y-99276771D01*
X80462333Y-99276771D02*
X80414714Y-99181533D01*
X80414714Y-99181533D02*
X80414714Y-99086295D01*
X80414714Y-99086295D02*
X80462333Y-98991057D01*
X80462333Y-98991057D02*
X80509952Y-98943438D01*
X80509952Y-98943438D02*
X80605190Y-98895819D01*
X80605190Y-98895819D02*
X80843285Y-98895819D01*
X80843285Y-98895819D02*
X80986142Y-98943438D01*
X81271857Y-98895819D02*
X81843285Y-98895819D01*
X81557571Y-99895819D02*
X81557571Y-98895819D01*
X82700428Y-99895819D02*
X82129000Y-99895819D01*
X82414714Y-99895819D02*
X82414714Y-98895819D01*
X82414714Y-98895819D02*
X82319476Y-99038676D01*
X82319476Y-99038676D02*
X82224238Y-99133914D01*
X82224238Y-99133914D02*
X82129000Y-99181533D01*
D12*
X86381571Y-93925374D02*
X86318713Y-93925374D01*
X86318713Y-93925374D02*
X86287285Y-93941088D01*
X86287285Y-93941088D02*
X86271571Y-93956802D01*
X86271571Y-93956802D02*
X86240142Y-94003945D01*
X86240142Y-94003945D02*
X86224428Y-94066802D01*
X86224428Y-94066802D02*
X86224428Y-94192517D01*
X86224428Y-94192517D02*
X86240142Y-94223945D01*
X86240142Y-94223945D02*
X86255856Y-94239660D01*
X86255856Y-94239660D02*
X86287285Y-94255374D01*
X86287285Y-94255374D02*
X86350142Y-94255374D01*
X86350142Y-94255374D02*
X86381571Y-94239660D01*
X86381571Y-94239660D02*
X86397285Y-94223945D01*
X86397285Y-94223945D02*
X86412999Y-94192517D01*
X86412999Y-94192517D02*
X86412999Y-94113945D01*
X86412999Y-94113945D02*
X86397285Y-94082517D01*
X86397285Y-94082517D02*
X86381571Y-94066802D01*
X86381571Y-94066802D02*
X86350142Y-94051088D01*
X86350142Y-94051088D02*
X86287285Y-94051088D01*
X86287285Y-94051088D02*
X86255856Y-94066802D01*
X86255856Y-94066802D02*
X86240142Y-94082517D01*
X86240142Y-94082517D02*
X86224428Y-94113945D01*
X86601571Y-94066802D02*
X86570142Y-94051088D01*
X86570142Y-94051088D02*
X86554428Y-94035374D01*
X86554428Y-94035374D02*
X86538714Y-94003945D01*
X86538714Y-94003945D02*
X86538714Y-93988231D01*
X86538714Y-93988231D02*
X86554428Y-93956802D01*
X86554428Y-93956802D02*
X86570142Y-93941088D01*
X86570142Y-93941088D02*
X86601571Y-93925374D01*
X86601571Y-93925374D02*
X86664428Y-93925374D01*
X86664428Y-93925374D02*
X86695857Y-93941088D01*
X86695857Y-93941088D02*
X86711571Y-93956802D01*
X86711571Y-93956802D02*
X86727285Y-93988231D01*
X86727285Y-93988231D02*
X86727285Y-94003945D01*
X86727285Y-94003945D02*
X86711571Y-94035374D01*
X86711571Y-94035374D02*
X86695857Y-94051088D01*
X86695857Y-94051088D02*
X86664428Y-94066802D01*
X86664428Y-94066802D02*
X86601571Y-94066802D01*
X86601571Y-94066802D02*
X86570142Y-94082517D01*
X86570142Y-94082517D02*
X86554428Y-94098231D01*
X86554428Y-94098231D02*
X86538714Y-94129660D01*
X86538714Y-94129660D02*
X86538714Y-94192517D01*
X86538714Y-94192517D02*
X86554428Y-94223945D01*
X86554428Y-94223945D02*
X86570142Y-94239660D01*
X86570142Y-94239660D02*
X86601571Y-94255374D01*
X86601571Y-94255374D02*
X86664428Y-94255374D01*
X86664428Y-94255374D02*
X86695857Y-94239660D01*
X86695857Y-94239660D02*
X86711571Y-94223945D01*
X86711571Y-94223945D02*
X86727285Y-94192517D01*
X86727285Y-94192517D02*
X86727285Y-94129660D01*
X86727285Y-94129660D02*
X86711571Y-94098231D01*
X86711571Y-94098231D02*
X86695857Y-94082517D01*
X86695857Y-94082517D02*
X86664428Y-94066802D01*
X87010143Y-94035374D02*
X87010143Y-94255374D01*
X86868714Y-94035374D02*
X86868714Y-94208231D01*
X86868714Y-94208231D02*
X86884428Y-94239660D01*
X86884428Y-94239660D02*
X86915857Y-94255374D01*
X86915857Y-94255374D02*
X86963000Y-94255374D01*
X86963000Y-94255374D02*
X86994428Y-94239660D01*
X86994428Y-94239660D02*
X87010143Y-94223945D01*
X87277285Y-94082517D02*
X87167285Y-94082517D01*
X87167285Y-94255374D02*
X87167285Y-93925374D01*
X87167285Y-93925374D02*
X87324428Y-93925374D01*
X87450142Y-94129660D02*
X87701571Y-94129660D01*
X88031570Y-94255374D02*
X87842999Y-94255374D01*
X87937284Y-94255374D02*
X87937284Y-93925374D01*
X87937284Y-93925374D02*
X87905856Y-93972517D01*
X87905856Y-93972517D02*
X87874427Y-94003945D01*
X87874427Y-94003945D02*
X87842999Y-94019660D01*
X88235856Y-93925374D02*
X88267285Y-93925374D01*
X88267285Y-93925374D02*
X88298713Y-93941088D01*
X88298713Y-93941088D02*
X88314428Y-93956802D01*
X88314428Y-93956802D02*
X88330142Y-93988231D01*
X88330142Y-93988231D02*
X88345856Y-94051088D01*
X88345856Y-94051088D02*
X88345856Y-94129660D01*
X88345856Y-94129660D02*
X88330142Y-94192517D01*
X88330142Y-94192517D02*
X88314428Y-94223945D01*
X88314428Y-94223945D02*
X88298713Y-94239660D01*
X88298713Y-94239660D02*
X88267285Y-94255374D01*
X88267285Y-94255374D02*
X88235856Y-94255374D01*
X88235856Y-94255374D02*
X88204428Y-94239660D01*
X88204428Y-94239660D02*
X88188713Y-94223945D01*
X88188713Y-94223945D02*
X88172999Y-94192517D01*
X88172999Y-94192517D02*
X88157285Y-94129660D01*
X88157285Y-94129660D02*
X88157285Y-94051088D01*
X88157285Y-94051088D02*
X88172999Y-93988231D01*
X88172999Y-93988231D02*
X88188713Y-93956802D01*
X88188713Y-93956802D02*
X88204428Y-93941088D01*
X88204428Y-93941088D02*
X88235856Y-93925374D01*
X88440142Y-93925374D02*
X88550142Y-94255374D01*
X88550142Y-94255374D02*
X88660142Y-93925374D01*
X88770142Y-94129660D02*
X89021571Y-94129660D01*
X89351570Y-94255374D02*
X89162999Y-94255374D01*
X89257284Y-94255374D02*
X89257284Y-93925374D01*
X89257284Y-93925374D02*
X89225856Y-93972517D01*
X89225856Y-93972517D02*
X89194427Y-94003945D01*
X89194427Y-94003945D02*
X89162999Y-94019660D01*
X89555856Y-93925374D02*
X89587285Y-93925374D01*
X89587285Y-93925374D02*
X89618713Y-93941088D01*
X89618713Y-93941088D02*
X89634428Y-93956802D01*
X89634428Y-93956802D02*
X89650142Y-93988231D01*
X89650142Y-93988231D02*
X89665856Y-94051088D01*
X89665856Y-94051088D02*
X89665856Y-94129660D01*
X89665856Y-94129660D02*
X89650142Y-94192517D01*
X89650142Y-94192517D02*
X89634428Y-94223945D01*
X89634428Y-94223945D02*
X89618713Y-94239660D01*
X89618713Y-94239660D02*
X89587285Y-94255374D01*
X89587285Y-94255374D02*
X89555856Y-94255374D01*
X89555856Y-94255374D02*
X89524428Y-94239660D01*
X89524428Y-94239660D02*
X89508713Y-94223945D01*
X89508713Y-94223945D02*
X89492999Y-94192517D01*
X89492999Y-94192517D02*
X89477285Y-94129660D01*
X89477285Y-94129660D02*
X89477285Y-94051088D01*
X89477285Y-94051088D02*
X89492999Y-93988231D01*
X89492999Y-93988231D02*
X89508713Y-93956802D01*
X89508713Y-93956802D02*
X89524428Y-93941088D01*
X89524428Y-93941088D02*
X89555856Y-93925374D01*
X89791571Y-94255374D02*
X90042999Y-93925374D01*
X89838714Y-93925374D02*
X89870142Y-93941088D01*
X89870142Y-93941088D02*
X89885856Y-93972517D01*
X89885856Y-93972517D02*
X89870142Y-94003945D01*
X89870142Y-94003945D02*
X89838714Y-94019660D01*
X89838714Y-94019660D02*
X89807285Y-94003945D01*
X89807285Y-94003945D02*
X89791571Y-93972517D01*
X89791571Y-93972517D02*
X89807285Y-93941088D01*
X89807285Y-93941088D02*
X89838714Y-93925374D01*
X90027285Y-94239660D02*
X90042999Y-94208231D01*
X90042999Y-94208231D02*
X90027285Y-94176802D01*
X90027285Y-94176802D02*
X89995856Y-94161088D01*
X89995856Y-94161088D02*
X89964428Y-94176802D01*
X89964428Y-94176802D02*
X89948714Y-94208231D01*
X89948714Y-94208231D02*
X89964428Y-94239660D01*
X89964428Y-94239660D02*
X89995856Y-94255374D01*
X89995856Y-94255374D02*
X90027285Y-94239660D01*
X90278714Y-94381088D02*
X90262999Y-94365374D01*
X90262999Y-94365374D02*
X90231571Y-94318231D01*
X90231571Y-94318231D02*
X90215857Y-94286802D01*
X90215857Y-94286802D02*
X90200142Y-94239660D01*
X90200142Y-94239660D02*
X90184428Y-94161088D01*
X90184428Y-94161088D02*
X90184428Y-94098231D01*
X90184428Y-94098231D02*
X90200142Y-94019660D01*
X90200142Y-94019660D02*
X90215857Y-93972517D01*
X90215857Y-93972517D02*
X90231571Y-93941088D01*
X90231571Y-93941088D02*
X90262999Y-93893945D01*
X90262999Y-93893945D02*
X90278714Y-93878231D01*
X90357285Y-93925374D02*
X90545857Y-93925374D01*
X90451571Y-94255374D02*
X90451571Y-93925374D01*
X90640143Y-94161088D02*
X90797286Y-94161088D01*
X90608714Y-94255374D02*
X90718714Y-93925374D01*
X90718714Y-93925374D02*
X90828714Y-94255374D01*
X90938714Y-94255374D02*
X90938714Y-93925374D01*
X90938714Y-93925374D02*
X91127285Y-94255374D01*
X91127285Y-94255374D02*
X91127285Y-93925374D01*
X91237285Y-93925374D02*
X91425857Y-93925374D01*
X91331571Y-94255374D02*
X91331571Y-93925374D01*
X91504428Y-94381088D02*
X91520143Y-94365374D01*
X91520143Y-94365374D02*
X91551571Y-94318231D01*
X91551571Y-94318231D02*
X91567286Y-94286802D01*
X91567286Y-94286802D02*
X91583000Y-94239660D01*
X91583000Y-94239660D02*
X91598714Y-94161088D01*
X91598714Y-94161088D02*
X91598714Y-94098231D01*
X91598714Y-94098231D02*
X91583000Y-94019660D01*
X91583000Y-94019660D02*
X91567286Y-93972517D01*
X91567286Y-93972517D02*
X91551571Y-93941088D01*
X91551571Y-93941088D02*
X91520143Y-93893945D01*
X91520143Y-93893945D02*
X91504428Y-93878231D01*
X92007286Y-94082517D02*
X92117286Y-94082517D01*
X92164429Y-94255374D02*
X92007286Y-94255374D01*
X92007286Y-94255374D02*
X92007286Y-93925374D01*
X92007286Y-93925374D02*
X92164429Y-93925374D01*
X92305857Y-94255374D02*
X92305857Y-93925374D01*
X92447286Y-94161088D02*
X92604429Y-94161088D01*
X92415857Y-94255374D02*
X92525857Y-93925374D01*
X92525857Y-93925374D02*
X92635857Y-94255374D01*
X92714428Y-93925374D02*
X92918714Y-93925374D01*
X92918714Y-93925374D02*
X92808714Y-94051088D01*
X92808714Y-94051088D02*
X92855857Y-94051088D01*
X92855857Y-94051088D02*
X92887286Y-94066802D01*
X92887286Y-94066802D02*
X92903000Y-94082517D01*
X92903000Y-94082517D02*
X92918714Y-94113945D01*
X92918714Y-94113945D02*
X92918714Y-94192517D01*
X92918714Y-94192517D02*
X92903000Y-94223945D01*
X92903000Y-94223945D02*
X92887286Y-94239660D01*
X92887286Y-94239660D02*
X92855857Y-94255374D01*
X92855857Y-94255374D02*
X92761571Y-94255374D01*
X92761571Y-94255374D02*
X92730143Y-94239660D01*
X92730143Y-94239660D02*
X92714428Y-94223945D01*
X93217286Y-93925374D02*
X93060143Y-93925374D01*
X93060143Y-93925374D02*
X93044429Y-94082517D01*
X93044429Y-94082517D02*
X93060143Y-94066802D01*
X93060143Y-94066802D02*
X93091572Y-94051088D01*
X93091572Y-94051088D02*
X93170143Y-94051088D01*
X93170143Y-94051088D02*
X93201572Y-94066802D01*
X93201572Y-94066802D02*
X93217286Y-94082517D01*
X93217286Y-94082517D02*
X93233000Y-94113945D01*
X93233000Y-94113945D02*
X93233000Y-94192517D01*
X93233000Y-94192517D02*
X93217286Y-94223945D01*
X93217286Y-94223945D02*
X93201572Y-94239660D01*
X93201572Y-94239660D02*
X93170143Y-94255374D01*
X93170143Y-94255374D02*
X93091572Y-94255374D01*
X93091572Y-94255374D02*
X93060143Y-94239660D01*
X93060143Y-94239660D02*
X93044429Y-94223945D01*
X93358715Y-93956802D02*
X93374429Y-93941088D01*
X93374429Y-93941088D02*
X93405858Y-93925374D01*
X93405858Y-93925374D02*
X93484429Y-93925374D01*
X93484429Y-93925374D02*
X93515858Y-93941088D01*
X93515858Y-93941088D02*
X93531572Y-93956802D01*
X93531572Y-93956802D02*
X93547286Y-93988231D01*
X93547286Y-93988231D02*
X93547286Y-94019660D01*
X93547286Y-94019660D02*
X93531572Y-94066802D01*
X93531572Y-94066802D02*
X93343000Y-94255374D01*
X93343000Y-94255374D02*
X93547286Y-94255374D01*
X93735858Y-94066802D02*
X93704429Y-94051088D01*
X93704429Y-94051088D02*
X93688715Y-94035374D01*
X93688715Y-94035374D02*
X93673001Y-94003945D01*
X93673001Y-94003945D02*
X93673001Y-93988231D01*
X93673001Y-93988231D02*
X93688715Y-93956802D01*
X93688715Y-93956802D02*
X93704429Y-93941088D01*
X93704429Y-93941088D02*
X93735858Y-93925374D01*
X93735858Y-93925374D02*
X93798715Y-93925374D01*
X93798715Y-93925374D02*
X93830144Y-93941088D01*
X93830144Y-93941088D02*
X93845858Y-93956802D01*
X93845858Y-93956802D02*
X93861572Y-93988231D01*
X93861572Y-93988231D02*
X93861572Y-94003945D01*
X93861572Y-94003945D02*
X93845858Y-94035374D01*
X93845858Y-94035374D02*
X93830144Y-94051088D01*
X93830144Y-94051088D02*
X93798715Y-94066802D01*
X93798715Y-94066802D02*
X93735858Y-94066802D01*
X93735858Y-94066802D02*
X93704429Y-94082517D01*
X93704429Y-94082517D02*
X93688715Y-94098231D01*
X93688715Y-94098231D02*
X93673001Y-94129660D01*
X93673001Y-94129660D02*
X93673001Y-94192517D01*
X93673001Y-94192517D02*
X93688715Y-94223945D01*
X93688715Y-94223945D02*
X93704429Y-94239660D01*
X93704429Y-94239660D02*
X93735858Y-94255374D01*
X93735858Y-94255374D02*
X93798715Y-94255374D01*
X93798715Y-94255374D02*
X93830144Y-94239660D01*
X93830144Y-94239660D02*
X93845858Y-94223945D01*
X93845858Y-94223945D02*
X93861572Y-94192517D01*
X93861572Y-94192517D02*
X93861572Y-94129660D01*
X93861572Y-94129660D02*
X93845858Y-94098231D01*
X93845858Y-94098231D02*
X93830144Y-94082517D01*
X93830144Y-94082517D02*
X93798715Y-94066802D01*
D11*
X91572680Y-54791991D02*
X91572680Y-55601514D01*
X91572680Y-55601514D02*
X91620299Y-55696752D01*
X91620299Y-55696752D02*
X91667918Y-55744372D01*
X91667918Y-55744372D02*
X91763156Y-55791991D01*
X91763156Y-55791991D02*
X91953632Y-55791991D01*
X91953632Y-55791991D02*
X92048870Y-55744372D01*
X92048870Y-55744372D02*
X92096489Y-55696752D01*
X92096489Y-55696752D02*
X92144108Y-55601514D01*
X92144108Y-55601514D02*
X92144108Y-54791991D01*
X93096489Y-54791991D02*
X92620299Y-54791991D01*
X92620299Y-54791991D02*
X92572680Y-55268181D01*
X92572680Y-55268181D02*
X92620299Y-55220562D01*
X92620299Y-55220562D02*
X92715537Y-55172943D01*
X92715537Y-55172943D02*
X92953632Y-55172943D01*
X92953632Y-55172943D02*
X93048870Y-55220562D01*
X93048870Y-55220562D02*
X93096489Y-55268181D01*
X93096489Y-55268181D02*
X93144108Y-55363419D01*
X93144108Y-55363419D02*
X93144108Y-55601514D01*
X93144108Y-55601514D02*
X93096489Y-55696752D01*
X93096489Y-55696752D02*
X93048870Y-55744372D01*
X93048870Y-55744372D02*
X92953632Y-55791991D01*
X92953632Y-55791991D02*
X92715537Y-55791991D01*
X92715537Y-55791991D02*
X92620299Y-55744372D01*
X92620299Y-55744372D02*
X92572680Y-55696752D01*
X91712285Y-54041991D02*
X91712285Y-54280086D01*
X91474190Y-54184848D02*
X91712285Y-54280086D01*
X91712285Y-54280086D02*
X91950380Y-54184848D01*
X91569428Y-54470562D02*
X91712285Y-54280086D01*
X91712285Y-54280086D02*
X91855142Y-54470562D01*
X91712285Y-54041991D02*
X91712285Y-54280086D01*
X91474190Y-54184848D02*
X91712285Y-54280086D01*
X91712285Y-54280086D02*
X91950380Y-54184848D01*
X91569428Y-54470562D02*
X91712285Y-54280086D01*
X91712285Y-54280086D02*
X91855142Y-54470562D01*
D10*
X76225632Y-58879243D02*
X76573975Y-58879243D01*
X76155963Y-59088249D02*
X76399803Y-58356729D01*
X76399803Y-58356729D02*
X76643643Y-59088249D01*
X76887483Y-59088249D02*
X76887483Y-58356729D01*
X76887483Y-58356729D02*
X77305494Y-59088249D01*
X77305494Y-59088249D02*
X77305494Y-58356729D01*
X77549334Y-58356729D02*
X77967346Y-58356729D01*
X77758340Y-59088249D02*
X77758340Y-58356729D01*
X78211186Y-58705072D02*
X78455026Y-58705072D01*
X78559529Y-59088249D02*
X78211186Y-59088249D01*
X78211186Y-59088249D02*
X78211186Y-58356729D01*
X78211186Y-58356729D02*
X78559529Y-58356729D01*
X78873037Y-59088249D02*
X78873037Y-58356729D01*
X78873037Y-58356729D02*
X79291048Y-59088249D01*
X79291048Y-59088249D02*
X79291048Y-58356729D01*
X79639391Y-59088249D02*
X79639391Y-58356729D01*
X79639391Y-58356729D02*
X80057402Y-59088249D01*
X80057402Y-59088249D02*
X80057402Y-58356729D01*
X80370911Y-58879243D02*
X80719254Y-58879243D01*
X80301242Y-59088249D02*
X80545082Y-58356729D01*
X80545082Y-58356729D02*
X80788922Y-59088249D01*
X81032762Y-58809575D02*
X81590111Y-58809575D01*
X81938453Y-58356729D02*
X81938453Y-58948912D01*
X81938453Y-58948912D02*
X81973287Y-59018580D01*
X81973287Y-59018580D02*
X82008122Y-59053415D01*
X82008122Y-59053415D02*
X82077790Y-59088249D01*
X82077790Y-59088249D02*
X82217127Y-59088249D01*
X82217127Y-59088249D02*
X82286796Y-59053415D01*
X82286796Y-59053415D02*
X82321630Y-59018580D01*
X82321630Y-59018580D02*
X82356464Y-58948912D01*
X82356464Y-58948912D02*
X82356464Y-58356729D01*
X82704807Y-58809575D02*
X83262156Y-58809575D01*
X83854338Y-58705072D02*
X83610498Y-58705072D01*
X83610498Y-59088249D02*
X83610498Y-58356729D01*
X83610498Y-58356729D02*
X83958841Y-58356729D01*
X84585858Y-59088249D02*
X84237515Y-59088249D01*
X84237515Y-59088249D02*
X84237515Y-58356729D01*
D11*
X95623476Y-99857200D02*
X95766333Y-99904819D01*
X95766333Y-99904819D02*
X96004428Y-99904819D01*
X96004428Y-99904819D02*
X96099666Y-99857200D01*
X96099666Y-99857200D02*
X96147285Y-99809580D01*
X96147285Y-99809580D02*
X96194904Y-99714342D01*
X96194904Y-99714342D02*
X96194904Y-99619104D01*
X96194904Y-99619104D02*
X96147285Y-99523866D01*
X96147285Y-99523866D02*
X96099666Y-99476247D01*
X96099666Y-99476247D02*
X96004428Y-99428628D01*
X96004428Y-99428628D02*
X95813952Y-99381009D01*
X95813952Y-99381009D02*
X95718714Y-99333390D01*
X95718714Y-99333390D02*
X95671095Y-99285771D01*
X95671095Y-99285771D02*
X95623476Y-99190533D01*
X95623476Y-99190533D02*
X95623476Y-99095295D01*
X95623476Y-99095295D02*
X95671095Y-99000057D01*
X95671095Y-99000057D02*
X95718714Y-98952438D01*
X95718714Y-98952438D02*
X95813952Y-98904819D01*
X95813952Y-98904819D02*
X96052047Y-98904819D01*
X96052047Y-98904819D02*
X96194904Y-98952438D01*
X96528238Y-98904819D02*
X96766333Y-99904819D01*
X96766333Y-99904819D02*
X96956809Y-99190533D01*
X96956809Y-99190533D02*
X97147285Y-99904819D01*
X97147285Y-99904819D02*
X97385381Y-98904819D01*
X97528238Y-100000057D02*
X98290142Y-100000057D01*
X98528238Y-99904819D02*
X98528238Y-98904819D01*
X98528238Y-98904819D02*
X98909190Y-98904819D01*
X98909190Y-98904819D02*
X99004428Y-98952438D01*
X99004428Y-98952438D02*
X99052047Y-99000057D01*
X99052047Y-99000057D02*
X99099666Y-99095295D01*
X99099666Y-99095295D02*
X99099666Y-99238152D01*
X99099666Y-99238152D02*
X99052047Y-99333390D01*
X99052047Y-99333390D02*
X99004428Y-99381009D01*
X99004428Y-99381009D02*
X98909190Y-99428628D01*
X98909190Y-99428628D02*
X98528238Y-99428628D01*
X99718714Y-98904819D02*
X99909190Y-98904819D01*
X99909190Y-98904819D02*
X100004428Y-98952438D01*
X100004428Y-98952438D02*
X100099666Y-99047676D01*
X100099666Y-99047676D02*
X100147285Y-99238152D01*
X100147285Y-99238152D02*
X100147285Y-99571485D01*
X100147285Y-99571485D02*
X100099666Y-99761961D01*
X100099666Y-99761961D02*
X100004428Y-99857200D01*
X100004428Y-99857200D02*
X99909190Y-99904819D01*
X99909190Y-99904819D02*
X99718714Y-99904819D01*
X99718714Y-99904819D02*
X99623476Y-99857200D01*
X99623476Y-99857200D02*
X99528238Y-99761961D01*
X99528238Y-99761961D02*
X99480619Y-99571485D01*
X99480619Y-99571485D02*
X99480619Y-99238152D01*
X99480619Y-99238152D02*
X99528238Y-99047676D01*
X99528238Y-99047676D02*
X99623476Y-98952438D01*
X99623476Y-98952438D02*
X99718714Y-98904819D01*
X100480619Y-98904819D02*
X100718714Y-99904819D01*
X100718714Y-99904819D02*
X100909190Y-99190533D01*
X100909190Y-99190533D02*
X101099666Y-99904819D01*
X101099666Y-99904819D02*
X101337762Y-98904819D01*
X102242523Y-99904819D02*
X101671095Y-99904819D01*
X101956809Y-99904819D02*
X101956809Y-98904819D01*
X101956809Y-98904819D02*
X101861571Y-99047676D01*
X101861571Y-99047676D02*
X101766333Y-99142914D01*
X101766333Y-99142914D02*
X101671095Y-99190533D01*
D13*
X89150418Y-99567328D02*
X89123204Y-99594543D01*
X89123204Y-99594543D02*
X89041561Y-99621757D01*
X89041561Y-99621757D02*
X88987133Y-99621757D01*
X88987133Y-99621757D02*
X88905490Y-99594543D01*
X88905490Y-99594543D02*
X88851061Y-99540114D01*
X88851061Y-99540114D02*
X88823847Y-99485685D01*
X88823847Y-99485685D02*
X88796633Y-99376828D01*
X88796633Y-99376828D02*
X88796633Y-99295185D01*
X88796633Y-99295185D02*
X88823847Y-99186328D01*
X88823847Y-99186328D02*
X88851061Y-99131900D01*
X88851061Y-99131900D02*
X88905490Y-99077471D01*
X88905490Y-99077471D02*
X88987133Y-99050257D01*
X88987133Y-99050257D02*
X89041561Y-99050257D01*
X89041561Y-99050257D02*
X89123204Y-99077471D01*
X89123204Y-99077471D02*
X89150418Y-99104685D01*
X89395347Y-99621757D02*
X89395347Y-99050257D01*
X89395347Y-99322400D02*
X89721918Y-99322400D01*
X89721918Y-99621757D02*
X89721918Y-99050257D01*
X90293418Y-99077471D02*
X90238990Y-99050257D01*
X90238990Y-99050257D02*
X90157347Y-99050257D01*
X90157347Y-99050257D02*
X90075704Y-99077471D01*
X90075704Y-99077471D02*
X90021275Y-99131900D01*
X90021275Y-99131900D02*
X89994061Y-99186328D01*
X89994061Y-99186328D02*
X89966847Y-99295185D01*
X89966847Y-99295185D02*
X89966847Y-99376828D01*
X89966847Y-99376828D02*
X89994061Y-99485685D01*
X89994061Y-99485685D02*
X90021275Y-99540114D01*
X90021275Y-99540114D02*
X90075704Y-99594543D01*
X90075704Y-99594543D02*
X90157347Y-99621757D01*
X90157347Y-99621757D02*
X90211775Y-99621757D01*
X90211775Y-99621757D02*
X90293418Y-99594543D01*
X90293418Y-99594543D02*
X90320632Y-99567328D01*
X90320632Y-99567328D02*
X90320632Y-99376828D01*
X90320632Y-99376828D02*
X90211775Y-99376828D01*
D14*
%TO.C,X1*%
X84191000Y-54854000D02*
X84191000Y-57854000D01*
X84191000Y-57854000D02*
X87191000Y-57854000D01*
X87191000Y-54854000D02*
X84191000Y-54854000D01*
X87191000Y-57854000D02*
X87191000Y-54854000D01*
X85251553Y-55654000D02*
G75*
G03*
X85251553Y-55654000I-360553J0D01*
G01*
D15*
%TO.C,R4*%
X78356000Y-93432000D02*
X77644000Y-93432000D01*
X78356000Y-92581000D02*
X77644000Y-92581000D01*
G36*
X78838200Y-93480100D02*
G01*
X78338100Y-93480100D01*
X78338100Y-92530100D01*
X78838200Y-92530100D01*
X78838200Y-93480100D01*
G37*
G36*
X77669800Y-93480100D02*
G01*
X77169700Y-93480100D01*
X77169700Y-92530100D01*
X77669800Y-92530100D01*
X77669800Y-93480100D01*
G37*
D16*
%TO.C,GPS_ANTENNA*%
X98603000Y-53968000D02*
X101397000Y-53968000D01*
X101397000Y-53968000D02*
X101397000Y-58032000D01*
X101397000Y-58032000D02*
X98603000Y-58032000D01*
X98603000Y-58032000D02*
X98603000Y-53968000D01*
D15*
%TO.C,R6*%
X77165000Y-79985000D02*
X77165000Y-79273000D01*
X78016000Y-79985000D02*
X78016000Y-79273000D01*
G36*
X78066900Y-80467200D02*
G01*
X77116900Y-80467200D01*
X77116900Y-79967100D01*
X78066900Y-79967100D01*
X78066900Y-80467200D01*
G37*
G36*
X78066900Y-79298800D02*
G01*
X77116900Y-79298800D01*
X77116900Y-78798700D01*
X78066900Y-78798700D01*
X78066900Y-79298800D01*
G37*
%TO.C,R10*%
X87432000Y-62794000D02*
X87432000Y-63506000D01*
X86581000Y-62794000D02*
X86581000Y-63506000D01*
G36*
X87480100Y-62811900D02*
G01*
X86530100Y-62811900D01*
X86530100Y-62311800D01*
X87480100Y-62311800D01*
X87480100Y-62811900D01*
G37*
G36*
X87480100Y-63980300D02*
G01*
X86530100Y-63980300D01*
X86530100Y-63480200D01*
X87480100Y-63480200D01*
X87480100Y-63980300D01*
G37*
%TO.C,C5*%
X88976000Y-98312000D02*
X88976000Y-97600000D01*
X89827000Y-98312000D02*
X89827000Y-97600000D01*
G36*
X89877900Y-98794200D02*
G01*
X88927900Y-98794200D01*
X88927900Y-98294100D01*
X89877900Y-98294100D01*
X89877900Y-98794200D01*
G37*
G36*
X89877900Y-97625800D02*
G01*
X88927900Y-97625800D01*
X88927900Y-97125700D01*
X89877900Y-97125700D01*
X89877900Y-97625800D01*
G37*
D16*
%TO.C,SW_RST1*%
X80950000Y-99450000D02*
X77050000Y-99450000D01*
X80950000Y-96550000D02*
X80950000Y-99450000D01*
X77050000Y-99450000D02*
X77050000Y-96550000D01*
X77050000Y-96550000D02*
X80950000Y-96550000D01*
X80000000Y-98000000D02*
G75*
G03*
X80000000Y-98000000I-1000000J0D01*
G01*
D15*
%TO.C,C12*%
X99761000Y-60325392D02*
X100523000Y-60325392D01*
X99786000Y-61645392D02*
X100523000Y-61645392D01*
G36*
X99799900Y-61709292D02*
G01*
X99049800Y-61709292D01*
X99049800Y-60259192D01*
X99799900Y-60259192D01*
X99799900Y-61709292D01*
G37*
G36*
X101247700Y-61709292D02*
G01*
X100497600Y-61709292D01*
X100497600Y-60259192D01*
X101247700Y-60259192D01*
X101247700Y-61709292D01*
G37*
%TO.C,R3*%
X77644000Y-90568000D02*
X78356000Y-90568000D01*
X77644000Y-91419000D02*
X78356000Y-91419000D01*
G36*
X77661900Y-91469900D02*
G01*
X77161800Y-91469900D01*
X77161800Y-90519900D01*
X77661900Y-90519900D01*
X77661900Y-91469900D01*
G37*
G36*
X78830300Y-91469900D02*
G01*
X78330200Y-91469900D01*
X78330200Y-90519900D01*
X78830300Y-90519900D01*
X78830300Y-91469900D01*
G37*
%TO.C,R9*%
X91432000Y-62644000D02*
X91432000Y-63356000D01*
X90581000Y-62644000D02*
X90581000Y-63356000D01*
G36*
X91480100Y-62661900D02*
G01*
X90530100Y-62661900D01*
X90530100Y-62161800D01*
X91480100Y-62161800D01*
X91480100Y-62661900D01*
G37*
G36*
X91480100Y-63830300D02*
G01*
X90530100Y-63830300D01*
X90530100Y-63330200D01*
X91480100Y-63330200D01*
X91480100Y-63830300D01*
G37*
D17*
%TO.C,U7*%
X82190000Y-64422000D02*
X82190000Y-61578000D01*
X83810000Y-64422000D02*
X82190000Y-64422000D01*
X82190000Y-61578000D02*
X83810000Y-61578000D01*
X83810000Y-61578000D02*
X83810000Y-64422000D01*
X83450000Y-63950000D02*
G75*
G03*
X83450000Y-63950000I-100000J0D01*
G01*
G36*
X82150000Y-64200000D02*
G01*
X81500000Y-64200000D01*
X81500000Y-63700000D01*
X82150000Y-63700000D01*
X82150000Y-64200000D01*
G37*
G36*
X84500000Y-64200000D02*
G01*
X83850000Y-64200000D01*
X83850000Y-63700000D01*
X84500000Y-63700000D01*
X84500000Y-64200000D01*
G37*
G36*
X82150000Y-63250000D02*
G01*
X81500000Y-63250000D01*
X81500000Y-62750000D01*
X82150000Y-62750000D01*
X82150000Y-63250000D01*
G37*
G36*
X84500000Y-63250000D02*
G01*
X83850000Y-63250000D01*
X83850000Y-62750000D01*
X84500000Y-62750000D01*
X84500000Y-63250000D01*
G37*
G36*
X82150000Y-62300000D02*
G01*
X81500000Y-62300000D01*
X81500000Y-61800000D01*
X82150000Y-61800000D01*
X82150000Y-62300000D01*
G37*
G36*
X84500000Y-62300000D02*
G01*
X83850000Y-62300000D01*
X83850000Y-61800000D01*
X84500000Y-61800000D01*
X84500000Y-62300000D01*
G37*
D15*
%TO.C,R5*%
X78029000Y-83083000D02*
X78029000Y-83795000D01*
X77178000Y-83083000D02*
X77178000Y-83795000D01*
G36*
X78077100Y-83100900D02*
G01*
X77127100Y-83100900D01*
X77127100Y-82600800D01*
X78077100Y-82600800D01*
X78077100Y-83100900D01*
G37*
G36*
X78077100Y-84269300D02*
G01*
X77127100Y-84269300D01*
X77127100Y-83769200D01*
X78077100Y-83769200D01*
X78077100Y-84269300D01*
G37*
D16*
%TO.C,D2*%
X78238507Y-74374310D02*
X76970049Y-74374310D01*
X76970049Y-74374310D02*
X76970049Y-77038711D01*
X76970049Y-77038711D02*
X78238507Y-77038711D01*
X78238507Y-77038711D02*
X78238507Y-74374310D01*
D17*
%TO.C,U9*%
X94489700Y-63372400D02*
X94489700Y-60527600D01*
X96110500Y-63372400D02*
X94489700Y-63372400D01*
X94489700Y-60527600D02*
X96110500Y-60527600D01*
X96110500Y-60527600D02*
X96110500Y-63372400D01*
G36*
X94450100Y-63150000D02*
G01*
X93800100Y-63150000D01*
X93800100Y-62650000D01*
X94450100Y-62650000D01*
X94450100Y-63150000D01*
G37*
G36*
X96800100Y-63150000D02*
G01*
X96150100Y-63150000D01*
X96150100Y-62650000D01*
X96800100Y-62650000D01*
X96800100Y-63150000D01*
G37*
G36*
X96800100Y-62200000D02*
G01*
X96150100Y-62200000D01*
X96150100Y-61700000D01*
X96800100Y-61700000D01*
X96800100Y-62200000D01*
G37*
G36*
X94450100Y-61250000D02*
G01*
X93800100Y-61250000D01*
X93800100Y-60750000D01*
X94450100Y-60750000D01*
X94450100Y-61250000D01*
G37*
G36*
X96800100Y-61250000D02*
G01*
X96150100Y-61250000D01*
X96150100Y-60750000D01*
X96800100Y-60750000D01*
X96800100Y-61250000D01*
G37*
D15*
%TO.C,C9*%
X78431000Y-63790000D02*
X77669000Y-63790000D01*
X78406000Y-62470000D02*
X77669000Y-62470000D01*
G36*
X79142200Y-63856200D02*
G01*
X78392100Y-63856200D01*
X78392100Y-62406100D01*
X79142200Y-62406100D01*
X79142200Y-63856200D01*
G37*
G36*
X77694400Y-63856200D02*
G01*
X76944300Y-63856200D01*
X76944300Y-62406100D01*
X77694400Y-62406100D01*
X77694400Y-63856200D01*
G37*
%TO.C,C11*%
X78356000Y-69002000D02*
X77644000Y-69002000D01*
X78356000Y-68151000D02*
X77644000Y-68151000D01*
G36*
X78838200Y-69050100D02*
G01*
X78338100Y-69050100D01*
X78338100Y-68100100D01*
X78838200Y-68100100D01*
X78838200Y-69050100D01*
G37*
G36*
X77669800Y-69050100D02*
G01*
X77169700Y-69050100D01*
X77169700Y-68100100D01*
X77669800Y-68100100D01*
X77669800Y-69050100D01*
G37*
%TO.C,R1*%
X93356000Y-97432000D02*
X92644000Y-97432000D01*
X93356000Y-96581000D02*
X92644000Y-96581000D01*
G36*
X93838200Y-97480100D02*
G01*
X93338100Y-97480100D01*
X93338100Y-96530100D01*
X93838200Y-96530100D01*
X93838200Y-97480100D01*
G37*
G36*
X92669800Y-97480100D02*
G01*
X92169700Y-97480100D01*
X92169700Y-96530100D01*
X92669800Y-96530100D01*
X92669800Y-97480100D01*
G37*
%TO.C,C14*%
X99896000Y-64993392D02*
X100608000Y-64993392D01*
X99896000Y-65844392D02*
X100608000Y-65844392D01*
G36*
X99913900Y-65895292D02*
G01*
X99413800Y-65895292D01*
X99413800Y-64945292D01*
X99913900Y-64945292D01*
X99913900Y-65895292D01*
G37*
G36*
X101082300Y-65895292D02*
G01*
X100582200Y-65895292D01*
X100582200Y-64945292D01*
X101082300Y-64945292D01*
X101082300Y-65895292D01*
G37*
%TO.C,C10*%
X78431000Y-66290000D02*
X77669000Y-66290000D01*
X78406000Y-64970000D02*
X77669000Y-64970000D01*
G36*
X79142200Y-66356200D02*
G01*
X78392100Y-66356200D01*
X78392100Y-64906100D01*
X79142200Y-64906100D01*
X79142200Y-66356200D01*
G37*
G36*
X77694400Y-66356200D02*
G01*
X76944300Y-66356200D01*
X76944300Y-64906100D01*
X77694400Y-64906100D01*
X77694400Y-66356200D01*
G37*
D17*
%TO.C,C3*%
X88400000Y-90450000D02*
X90100000Y-90450000D01*
X88400000Y-93600000D02*
X88400000Y-90450000D01*
X90100000Y-93600000D02*
X88400000Y-93600000D01*
X92000000Y-93550000D02*
X93200000Y-93550000D01*
X93200000Y-90450000D02*
X92000000Y-90450000D01*
X93200000Y-93550000D02*
X93600000Y-93200000D01*
X93600000Y-90750000D02*
X93200000Y-90450000D01*
X93600000Y-93200000D02*
X93600000Y-90750000D01*
D15*
%TO.C,C2*%
X97331000Y-93660000D02*
X96569000Y-93660000D01*
X97306000Y-92340000D02*
X96569000Y-92340000D01*
G36*
X98042200Y-93726200D02*
G01*
X97292100Y-93726200D01*
X97292100Y-92276100D01*
X98042200Y-92276100D01*
X98042200Y-93726200D01*
G37*
G36*
X96594400Y-93726200D02*
G01*
X95844300Y-93726200D01*
X95844300Y-92276100D01*
X96594400Y-92276100D01*
X96594400Y-93726200D01*
G37*
%TO.C,R2*%
X92644000Y-98568000D02*
X93356000Y-98568000D01*
X92644000Y-99419000D02*
X93356000Y-99419000D01*
G36*
X92661900Y-99469900D02*
G01*
X92161800Y-99469900D01*
X92161800Y-98519900D01*
X92661900Y-98519900D01*
X92661900Y-99469900D01*
G37*
G36*
X93830300Y-99469900D02*
G01*
X93330200Y-99469900D01*
X93330200Y-98519900D01*
X93830300Y-98519900D01*
X93830300Y-99469900D01*
G37*
%TO.C,C8*%
X78431000Y-61290000D02*
X77669000Y-61290000D01*
X78406000Y-59970000D02*
X77669000Y-59970000D01*
G36*
X79142200Y-61356200D02*
G01*
X78392100Y-61356200D01*
X78392100Y-59906100D01*
X79142200Y-59906100D01*
X79142200Y-61356200D01*
G37*
G36*
X77694400Y-61356200D02*
G01*
X76944300Y-61356200D01*
X76944300Y-59906100D01*
X77694400Y-59906100D01*
X77694400Y-61356200D01*
G37*
D16*
%TO.C,L2*%
X98171000Y-57404000D02*
X96901000Y-57404000D01*
X96901000Y-57404000D02*
X96901000Y-60198000D01*
X96901000Y-60198000D02*
X98171000Y-60198000D01*
X98171000Y-60198000D02*
X98171000Y-57404000D01*
D15*
%TO.C,C13*%
X99761000Y-62825392D02*
X100523000Y-62825392D01*
X99786000Y-64145392D02*
X100523000Y-64145392D01*
G36*
X99799900Y-64209292D02*
G01*
X99049800Y-64209292D01*
X99049800Y-62759192D01*
X99799900Y-62759192D01*
X99799900Y-64209292D01*
G37*
G36*
X101247700Y-64209292D02*
G01*
X100497600Y-64209292D01*
X100497600Y-62759192D01*
X101247700Y-62759192D01*
X101247700Y-64209292D01*
G37*
D18*
%TO.C,U5*%
X91305885Y-54308472D02*
X91305885Y-54308472D01*
X91305885Y-54308472D02*
X91305885Y-56365872D01*
X91305885Y-54710172D02*
X91432885Y-54710172D01*
X91305885Y-54964172D02*
X91305885Y-54710172D01*
X91305885Y-55210172D02*
X91432885Y-55210172D01*
X91305885Y-55464172D02*
X91305885Y-55210172D01*
X91305885Y-55578472D02*
X92575885Y-54308472D01*
X91305885Y-55710172D02*
X91432885Y-55710172D01*
X91305885Y-55964172D02*
X91305885Y-55710172D01*
X91305885Y-56365872D02*
X91305885Y-56365872D01*
X91305885Y-56365872D02*
X93363285Y-56365872D01*
X91432885Y-54710172D02*
X91432885Y-54964172D01*
X91432885Y-54964172D02*
X91305885Y-54964172D01*
X91432885Y-55210172D02*
X91432885Y-55464172D01*
X91432885Y-55464172D02*
X91305885Y-55464172D01*
X91432885Y-55710172D02*
X91432885Y-55964172D01*
X91432885Y-55964172D02*
X91305885Y-55964172D01*
X91957585Y-54308472D02*
X92211585Y-54308472D01*
X91957585Y-54435472D02*
X91957585Y-54308472D01*
X91957585Y-56238872D02*
X92211585Y-56238872D01*
X91957585Y-56365872D02*
X91957585Y-56238872D01*
X92211585Y-54308472D02*
X92211585Y-54435472D01*
X92211585Y-54435472D02*
X91957585Y-54435472D01*
X92211585Y-56238872D02*
X92211585Y-56365872D01*
X92211585Y-56365872D02*
X91957585Y-56365872D01*
X92457585Y-54308472D02*
X92711585Y-54308472D01*
X92457585Y-54435472D02*
X92457585Y-54308472D01*
X92457585Y-56238872D02*
X92711585Y-56238872D01*
X92457585Y-56365872D02*
X92457585Y-56238872D01*
X92711585Y-54308472D02*
X92711585Y-54435472D01*
X92711585Y-54435472D02*
X92457585Y-54435472D01*
X92711585Y-56238872D02*
X92711585Y-56365872D01*
X92711585Y-56365872D02*
X92457585Y-56365872D01*
X93236285Y-54710172D02*
X93363285Y-54710172D01*
X93236285Y-54964172D02*
X93236285Y-54710172D01*
X93236285Y-55210172D02*
X93363285Y-55210172D01*
X93236285Y-55464172D02*
X93236285Y-55210172D01*
X93236285Y-55710172D02*
X93363285Y-55710172D01*
X93236285Y-55964172D02*
X93236285Y-55710172D01*
X93363285Y-54308472D02*
X91305885Y-54308472D01*
X93363285Y-54308472D02*
X93363285Y-54308472D01*
X93363285Y-54710172D02*
X93363285Y-54964172D01*
X93363285Y-54964172D02*
X93236285Y-54964172D01*
X93363285Y-55210172D02*
X93363285Y-55464172D01*
X93363285Y-55464172D02*
X93236285Y-55464172D01*
X93363285Y-55710172D02*
X93363285Y-55964172D01*
X93363285Y-55964172D02*
X93236285Y-55964172D01*
X93363285Y-56365872D02*
X93363285Y-54308472D01*
X93363285Y-56365872D02*
X93363285Y-56365872D01*
D16*
%TO.C,GSM_ANTENNA*%
X80397000Y-58173642D02*
X77603000Y-58173642D01*
X77603000Y-58173642D02*
X77603000Y-54109642D01*
X77603000Y-54109642D02*
X80397000Y-54109642D01*
X80397000Y-54109642D02*
X80397000Y-58173642D01*
%TO.C,U1*%
X81402000Y-67848000D02*
X100198000Y-67848000D01*
X100198000Y-67848000D02*
X100198000Y-87152000D01*
X100198000Y-87152000D02*
X81402000Y-87152000D01*
X81402000Y-87152000D02*
X81402000Y-67848000D01*
D15*
%TO.C,C1*%
X97331000Y-91660000D02*
X96569000Y-91660000D01*
X97306000Y-90340000D02*
X96569000Y-90340000D01*
G36*
X98042200Y-91726200D02*
G01*
X97292100Y-91726200D01*
X97292100Y-90276100D01*
X98042200Y-90276100D01*
X98042200Y-91726200D01*
G37*
G36*
X96594400Y-91726200D02*
G01*
X95844300Y-91726200D01*
X95844300Y-90276100D01*
X96594400Y-90276100D01*
X96594400Y-91726200D01*
G37*
D16*
%TO.C,SW_POW1*%
X101519479Y-99450000D02*
X97619479Y-99450000D01*
X101519479Y-96550000D02*
X101519479Y-99450000D01*
X97619479Y-99450000D02*
X97619479Y-96550000D01*
X97619479Y-96550000D02*
X101519479Y-96550000D01*
X100569479Y-98000000D02*
G75*
G03*
X100569479Y-98000000I-1000000J0D01*
G01*
%TO.C,D1*%
X76962484Y-88447343D02*
X78230942Y-88447343D01*
X78230942Y-88447343D02*
X78230942Y-85782942D01*
X78230942Y-85782942D02*
X76962484Y-85782942D01*
X76962484Y-85782942D02*
X76962484Y-88447343D01*
%TO.C,CHG*%
X87636507Y-95837310D02*
X86368049Y-95837310D01*
X86368049Y-95837310D02*
X86368049Y-98501711D01*
X86368049Y-98501711D02*
X87636507Y-98501711D01*
X87636507Y-98501711D02*
X87636507Y-95837310D01*
%TD*%
M02*
