M48
; DRILL file {KiCad 7.0.8} date Thu Oct 19 11:52:58 2023
; FORMAT={-:-/ absolute / inch / decimal}
; #@! TF.CreationDate,2023-10-19T11:52:58-06:00
; #@! TF.GenerationSoftware,Kicad,Pcbnew,7.0.8
; #@! TF.FileFunction,Plated,1,2,PTH
FMAT,2
INCH
; #@! TA.AperFunction,Plated,PTH,ViaDrill
T1C0.0157
%
G90
G05
T1
X3.0117Y-3.17
X3.015Y-3.515
X3.105Y-3.73
X3.115Y-2.095
X3.1235Y-2.325
X3.14Y-2.84
X3.14Y-2.885
X3.14Y-2.935
X3.14Y-2.98
X3.14Y-3.025
X3.14Y-3.075
X3.165Y-2.545
X3.165Y-3.645
X3.24Y-3.645
X3.245Y-2.5365
X3.255Y-2.795
X3.2556Y-2.7546
X3.265Y-3.265
X3.27Y-3.125
X3.29Y-2.215
X3.2913Y-2.63
X3.32Y-2.565
X3.3386Y-2.63
X3.375Y-2.1312
X3.395Y-2.32
X3.425Y-3.91
X3.435Y-2.585
X3.495Y-2.83
X3.495Y-2.895
X3.515Y-2.215
X3.515Y-2.5565
X3.515Y-2.615
X3.535Y-3.285
X3.54Y-3.745
X3.55Y-2.13
X3.605Y-2.93
X3.605Y-2.99
X3.68Y-3.32
X3.71Y-2.93
X3.715Y-2.195
X3.75Y-2.14
X3.785Y-3.86
X3.805Y-2.54
X3.805Y-2.605
X3.805Y-3.33
X3.81Y-2.895
X3.81Y-3.38
X3.85Y-3.05
X3.88Y-3.51
X3.895Y-2.32
X3.9085Y-2.64
X3.93Y-3.455
X3.9635Y-3.75
X4.0Y-2.695
X4.0Y-2.745
X4.0Y-2.795
X4.0Y-2.84
X4.03Y-2.575
T0
M30
