%TF.GenerationSoftware,KiCad,Pcbnew,7.0.8*%
%TF.CreationDate,2023-10-19T11:53:07-06:00*%
%TF.ProjectId,air_station_1v5,6169725f-7374-4617-9469-6f6e5f317635,rev?*%
%TF.SameCoordinates,Original*%
%TF.FileFunction,Copper,L2,Bot*%
%TF.FilePolarity,Positive*%
%FSLAX46Y46*%
G04 Gerber Fmt 4.6, Leading zero omitted, Abs format (unit mm)*
G04 Created by KiCad (PCBNEW 7.0.8) date 2023-10-19 11:53:07*
%MOMM*%
%LPD*%
G01*
G04 APERTURE LIST*
G04 Aperture macros list*
%AMRoundRect*
0 Rectangle with rounded corners*
0 $1 Rounding radius*
0 $2 $3 $4 $5 $6 $7 $8 $9 X,Y pos of 4 corners*
0 Add a 4 corners polygon primitive as box body*
4,1,4,$2,$3,$4,$5,$6,$7,$8,$9,$2,$3,0*
0 Add four circle primitives for the rounded corners*
1,1,$1+$1,$2,$3*
1,1,$1+$1,$4,$5*
1,1,$1+$1,$6,$7*
1,1,$1+$1,$8,$9*
0 Add four rect primitives between the rounded corners*
20,1,$1+$1,$2,$3,$4,$5,0*
20,1,$1+$1,$4,$5,$6,$7,0*
20,1,$1+$1,$6,$7,$8,$9,0*
20,1,$1+$1,$8,$9,$2,$3,0*%
G04 Aperture macros list end*
%TA.AperFunction,SMDPad,CuDef*%
%ADD10R,1.200000X1.000000*%
%TD*%
%TA.AperFunction,SMDPad,CuDef*%
%ADD11R,1.250000X0.750000*%
%TD*%
%TA.AperFunction,SMDPad,CuDef*%
%ADD12RoundRect,0.200000X0.200000X0.600000X-0.200000X0.600000X-0.200000X-0.600000X0.200000X-0.600000X0*%
%TD*%
%TA.AperFunction,SMDPad,CuDef*%
%ADD13RoundRect,0.250001X0.799999X1.249999X-0.799999X1.249999X-0.799999X-1.249999X0.799999X-1.249999X0*%
%TD*%
%TA.AperFunction,SMDPad,CuDef*%
%ADD14R,1.500000X1.240000*%
%TD*%
%TA.AperFunction,SMDPad,CuDef*%
%ADD15R,1.500000X0.800000*%
%TD*%
%TA.AperFunction,SMDPad,CuDef*%
%ADD16RoundRect,0.362500X-0.637500X0.362500X-0.637500X-0.362500X0.637500X-0.362500X0.637500X0.362500X0*%
%TD*%
%TA.AperFunction,SMDPad,CuDef*%
%ADD17RoundRect,0.150000X0.512500X0.150000X-0.512500X0.150000X-0.512500X-0.150000X0.512500X-0.150000X0*%
%TD*%
%TA.AperFunction,SMDPad,CuDef*%
%ADD18R,1.075000X1.000000*%
%TD*%
%TA.AperFunction,ViaPad*%
%ADD19C,0.800000*%
%TD*%
%TA.AperFunction,Conductor*%
%ADD20C,0.250000*%
%TD*%
G04 APERTURE END LIST*
D10*
%TO.P,J1,1*%
%TO.N,N/C*%
X82012000Y-54573000D03*
%TO.P,J1,2*%
X82012000Y-68873000D03*
D11*
%TO.P,J1,C1,VCC*%
%TO.N,/SIM_VDD*%
X92837000Y-59563000D03*
%TO.P,J1,C2,RST*%
%TO.N,/SIM_RST*%
X92837000Y-62103000D03*
%TO.P,J1,C3,CLK*%
%TO.N,/SIM_CLK*%
X92837000Y-64643000D03*
%TO.P,J1,C5,GND*%
%TO.N,GND*%
X92837000Y-58293000D03*
%TO.P,J1,C6,VPP*%
%TO.N,/SIM_VPP_UNCONN*%
X92837000Y-60833000D03*
%TO.P,J1,C7,I/O*%
%TO.N,/SIM_DATA*%
X92837000Y-63373000D03*
%TD*%
D12*
%TO.P,J5,1,Pin_1*%
%TO.N,GND*%
X98452191Y-95091398D03*
%TO.P,J5,2,Pin_2*%
%TO.N,/UART_TX*%
X97202191Y-95091398D03*
%TO.P,J5,3,Pin_3*%
%TO.N,/UART_RX*%
X95952191Y-95091398D03*
%TO.P,J5,4,Pin_4*%
%TO.N,+5V*%
X94702191Y-95091398D03*
D13*
%TO.P,J5,MP*%
%TO.N,N/C*%
X101002191Y-97991398D03*
X92152191Y-97991398D03*
%TD*%
D12*
%TO.P,J4,1,Pin_1*%
%TO.N,+BATT*%
X81625000Y-95100000D03*
%TO.P,J4,2,Pin_2*%
%TO.N,GND*%
X80375000Y-95100000D03*
D13*
%TO.P,J4,MP*%
%TO.N,N/C*%
X84175000Y-98000000D03*
X77825000Y-98000000D03*
%TD*%
D14*
%TO.P,C4,1,1*%
%TO.N,GND*%
X79850000Y-88979227D03*
%TO.P,C4,2,2*%
%TO.N,+5V*%
X79850000Y-90879227D03*
%TD*%
D15*
%TO.P,J2,1,DAT2*%
%TO.N,/SD_D3*%
X92075000Y-78828000D03*
%TO.P,J2,2,DAT3/CD*%
%TO.N,/SD_D2*%
X92075000Y-79928000D03*
%TO.P,J2,3,CMD*%
%TO.N,/SD_CMD*%
X92075000Y-81028000D03*
%TO.P,J2,4,VDD*%
%TO.N,3.3V*%
X92075000Y-82128000D03*
%TO.P,J2,5,CLK*%
%TO.N,/SD_CLK*%
X92075000Y-83228000D03*
%TO.P,J2,6,VSS*%
%TO.N,GND*%
X92075000Y-84328000D03*
%TO.P,J2,7,DAT0*%
%TO.N,/SD_D0*%
X92075000Y-85428000D03*
%TO.P,J2,8,DAT1*%
%TO.N,/SD_D1*%
X92075000Y-86528000D03*
D16*
%TO.P,J2,9,SHIELD*%
%TO.N,GND*%
X97775000Y-75158000D03*
X89475000Y-75158000D03*
X97775000Y-88908000D03*
X89475000Y-88908000D03*
%TD*%
D17*
%TO.P,U3,1,STAT*%
%TO.N,Net-(U3-STAT)*%
X84557688Y-89028133D03*
%TO.P,U3,2,V_{SS}*%
%TO.N,GND*%
X84557688Y-89978133D03*
%TO.P,U3,3,V_{BAT}*%
%TO.N,+BATT*%
X84557688Y-90928133D03*
%TO.P,U3,4,V_{DD}*%
%TO.N,+5V*%
X82282688Y-90928133D03*
%TO.P,U3,5,PROG*%
%TO.N,Net-(U3-PROG)*%
X82282688Y-89028133D03*
%TD*%
D18*
%TO.P,R8,1,1*%
%TO.N,Net-(U3-PROG)*%
X81254275Y-86978523D03*
%TO.P,R8,2,2*%
%TO.N,GND*%
X79554275Y-86978523D03*
%TD*%
%TO.P,R7,1,1*%
%TO.N,Net-(CHG1-Pad-)*%
X83000000Y-87000000D03*
%TO.P,R7,2,2*%
%TO.N,Net-(U3-STAT)*%
X84700000Y-87000000D03*
%TD*%
D19*
%TO.N,GND*%
X76497500Y-80518000D03*
X94361000Y-55753000D03*
X98552000Y-89154000D03*
X96139000Y-98044000D03*
X95250000Y-54356000D03*
X78867000Y-94742000D03*
X91567000Y-75946000D03*
X79121000Y-53213000D03*
X93472000Y-84328000D03*
X85725000Y-54133500D03*
X97790000Y-77470000D03*
X90170000Y-54102000D03*
%TO.N,/SD_D3*%
X79756000Y-72136000D03*
%TO.N,/SD_D2*%
X79756000Y-73279002D03*
%TO.N,/SD_CMD*%
X79756000Y-76835000D03*
%TO.N,3.3V*%
X84328000Y-65150500D03*
X80391000Y-64643000D03*
%TO.N,/SD_CLK*%
X79756000Y-78105000D03*
%TO.N,/SD_D0*%
X79756000Y-75692000D03*
%TO.N,/SD_D1*%
X79756000Y-74549000D03*
%TO.N,/GPS_RF*%
X98933000Y-58928000D03*
X102362000Y-65405000D03*
%TO.N,/UART_TX*%
X83600000Y-66802000D03*
%TO.N,/UART_RX*%
X94234000Y-74422000D03*
X91567000Y-74422000D03*
X84800000Y-66802000D03*
%TO.N,/I2C2_SDA*%
X89281000Y-56261000D03*
X82677000Y-70993000D03*
%TO.N,/I2C2_SCL*%
X82692945Y-69967011D03*
X83566000Y-56260500D03*
%TO.N,+BATT*%
X89281000Y-66421000D03*
X89281000Y-64934500D03*
X96647000Y-66167000D03*
X96647000Y-64516000D03*
X82931000Y-82931000D03*
%TO.N,/SIM_DATA*%
X101600000Y-72136000D03*
%TO.N,/SIM_VDD*%
X101600000Y-70993000D03*
%TO.N,/SIM_CLK*%
X101600000Y-69723000D03*
%TO.N,/SIM_RST*%
X99274878Y-67056000D03*
%TO.N,/GSM_RF*%
X79337500Y-59055000D03*
X87249000Y-65659000D03*
%TO.N,1.8V*%
X86233000Y-58928000D03*
X82423000Y-64426500D03*
%TO.N,/PWR_KEY*%
X89789000Y-83439000D03*
X83058000Y-79375000D03*
X99822000Y-87757000D03*
X96647000Y-84582000D03*
%TO.N,/IO27*%
X96774000Y-85852000D03*
X76581000Y-89281000D03*
%TO.N,/IO28*%
X88773000Y-73533000D03*
X88773000Y-71882000D03*
%TO.N,+5V*%
X82296000Y-92583000D03*
X80391000Y-92583000D03*
X89916000Y-95123000D03*
%TO.N,Net-(CHG1-Pad-)*%
X86995000Y-99314000D03*
%TO.N,/VIO*%
X100673500Y-95250000D03*
X96774000Y-73533000D03*
%TO.N,/SIM_VPP_UNCONN*%
X101600000Y-68453000D03*
%TD*%
D20*
%TO.N,GND*%
X94234000Y-53340000D02*
X90932000Y-53340000D01*
X98452191Y-96873809D02*
X98452191Y-95091398D01*
X97775000Y-77455000D02*
X97790000Y-77470000D01*
X77851000Y-53340000D02*
X78994000Y-53340000D01*
X98021000Y-89154000D02*
X97775000Y-88908000D01*
X95250000Y-54356000D02*
X94234000Y-53340000D01*
X95250000Y-54356000D02*
X94996000Y-54102000D01*
X99314000Y-92964000D02*
X98452191Y-93825809D01*
X98552000Y-89685000D02*
X99291000Y-90424000D01*
X84557688Y-89978133D02*
X88404867Y-89978133D01*
X79554275Y-88683502D02*
X79850000Y-88979227D01*
X76497500Y-54693500D02*
X77851000Y-53340000D01*
X77978000Y-89662000D02*
X78660773Y-88979227D01*
X97775000Y-75158000D02*
X97775000Y-77455000D01*
X94107000Y-58293000D02*
X92837000Y-58293000D01*
X98452191Y-93825809D02*
X98452191Y-95091398D01*
X79554275Y-86978523D02*
X79554275Y-88683502D01*
X99314000Y-90424000D02*
X99314000Y-92964000D01*
X77978000Y-91694000D02*
X77978000Y-89662000D01*
X95250000Y-54356000D02*
X95250000Y-57150000D01*
X90779000Y-75158000D02*
X91567000Y-75946000D01*
X80375000Y-94091000D02*
X77978000Y-91694000D01*
X97282000Y-98044000D02*
X98452191Y-96873809D01*
X78867000Y-94742000D02*
X79248000Y-94742000D01*
X79652000Y-95100000D02*
X80375000Y-95100000D01*
X79629000Y-95123000D02*
X79652000Y-95100000D01*
X90932000Y-53340000D02*
X90170000Y-54102000D01*
X98552000Y-89154000D02*
X98021000Y-89154000D01*
X95250000Y-57150000D02*
X94107000Y-58293000D01*
X92075000Y-84328000D02*
X93472000Y-84328000D01*
X98552000Y-89154000D02*
X98552000Y-89685000D01*
X99291000Y-90424000D02*
X99314000Y-90424000D01*
X96139000Y-98044000D02*
X97282000Y-98044000D01*
X85725000Y-54133500D02*
X90138500Y-54133500D01*
X88404867Y-89978133D02*
X89475000Y-88908000D01*
X78660773Y-88979227D02*
X79850000Y-88979227D01*
X76497500Y-80518000D02*
X76497500Y-54693500D01*
X80375000Y-95100000D02*
X80375000Y-94091000D01*
X94361000Y-55753000D02*
X94361000Y-55245000D01*
X94361000Y-55245000D02*
X95250000Y-54356000D01*
X84613500Y-54133500D02*
X83693000Y-53213000D01*
X78994000Y-53340000D02*
X79121000Y-53213000D01*
X83693000Y-53213000D02*
X79121000Y-53213000D01*
X89475000Y-75158000D02*
X90779000Y-75158000D01*
X85725000Y-54133500D02*
X84613500Y-54133500D01*
X90138500Y-54133500D02*
X90170000Y-54102000D01*
X84557688Y-89978133D02*
X80848906Y-89978133D01*
X79248000Y-94742000D02*
X79629000Y-95123000D01*
X80848906Y-89978133D02*
X79850000Y-88979227D01*
%TO.N,/SD_D3*%
X89623000Y-78828000D02*
X82931000Y-72136000D01*
X82931000Y-72136000D02*
X79756000Y-72136000D01*
X92075000Y-78828000D02*
X89623000Y-78828000D01*
%TO.N,/SD_D2*%
X79756002Y-73279000D02*
X79756000Y-73279002D01*
X90088000Y-79928000D02*
X83439000Y-73279000D01*
X83439000Y-73279000D02*
X79756002Y-73279000D01*
X92075000Y-79928000D02*
X90088000Y-79928000D01*
%TO.N,/SD_CMD*%
X92075000Y-81028000D02*
X90553000Y-81028000D01*
X90553000Y-81028000D02*
X86360000Y-76835000D01*
X86360000Y-76835000D02*
X79756000Y-76835000D01*
%TO.N,3.3V*%
X92075000Y-82128000D02*
X93259000Y-82128000D01*
X88932720Y-76581000D02*
X83693000Y-71341280D01*
X83693000Y-68072000D02*
X81089500Y-65468500D01*
X84328000Y-65150500D02*
X84010000Y-65468500D01*
X80391000Y-64643000D02*
X80391000Y-64770000D01*
X83693000Y-71341280D02*
X83693000Y-68072000D01*
X92583000Y-76581000D02*
X88932720Y-76581000D01*
X94107000Y-81280000D02*
X94107000Y-78105000D01*
X80391000Y-64770000D02*
X80772000Y-65151000D01*
X81089500Y-65468500D02*
X80772000Y-65151000D01*
X84010000Y-65468500D02*
X81089500Y-65468500D01*
X94107000Y-78105000D02*
X92583000Y-76581000D01*
X93259000Y-82128000D02*
X94107000Y-81280000D01*
%TO.N,/SD_CLK*%
X85471000Y-78105000D02*
X90594000Y-83228000D01*
X90594000Y-83228000D02*
X92075000Y-83228000D01*
X79756000Y-78105000D02*
X85471000Y-78105000D01*
%TO.N,/SD_D0*%
X92075000Y-85428000D02*
X90762000Y-85428000D01*
X78740000Y-78867000D02*
X78740000Y-76073000D01*
X78740000Y-76073000D02*
X79121000Y-75692000D01*
X80010000Y-80137000D02*
X78740000Y-78867000D01*
X85471000Y-80137000D02*
X80010000Y-80137000D01*
X90762000Y-85428000D02*
X85471000Y-80137000D01*
X79121000Y-75692000D02*
X79756000Y-75692000D01*
%TO.N,/SD_D1*%
X78232000Y-79375000D02*
X78232000Y-75311000D01*
X78232000Y-75311000D02*
X78994000Y-74549000D01*
X85344000Y-80899000D02*
X79756000Y-80899000D01*
X92075000Y-86528000D02*
X90973000Y-86528000D01*
X78994000Y-74549000D02*
X79756000Y-74549000D01*
X79756000Y-80899000D02*
X78232000Y-79375000D01*
X90973000Y-86528000D02*
X85344000Y-80899000D01*
%TO.N,/GPS_RF*%
X101600000Y-58928000D02*
X102362000Y-59690000D01*
X102362000Y-59690000D02*
X102362000Y-65405000D01*
X98933000Y-58928000D02*
X101600000Y-58928000D01*
%TO.N,/UART_TX*%
X84328000Y-69469000D02*
X86016000Y-71157000D01*
X97202191Y-91233191D02*
X97202191Y-95091398D01*
X84328000Y-67530000D02*
X84328000Y-69469000D01*
X86016000Y-71157000D02*
X89826000Y-71157000D01*
X83600000Y-66802000D02*
X84328000Y-67530000D01*
X95377000Y-76708000D02*
X95377000Y-89408000D01*
X95377000Y-89408000D02*
X97202191Y-91233191D01*
X89826000Y-71157000D02*
X95377000Y-76708000D01*
%TO.N,/UART_RX*%
X95952191Y-95091398D02*
X95952191Y-91626809D01*
X86106000Y-70485000D02*
X90297000Y-70485000D01*
X91694000Y-74422000D02*
X91567000Y-74422000D01*
X84800000Y-69179000D02*
X86106000Y-70485000D01*
X94742000Y-77470000D02*
X91694000Y-74422000D01*
X90297000Y-70485000D02*
X94234000Y-74422000D01*
X94742000Y-90297000D02*
X94742000Y-77470000D01*
X96012000Y-91567000D02*
X94742000Y-90297000D01*
X84800000Y-66802000D02*
X84800000Y-69179000D01*
X95952191Y-91626809D02*
X96012000Y-91567000D01*
%TO.N,/I2C2_SDA*%
X82677000Y-70993000D02*
X80762695Y-70993000D01*
X88519000Y-55499000D02*
X89281000Y-56261000D01*
X78163000Y-56709604D02*
X79373604Y-55499000D01*
X78163000Y-68393305D02*
X78163000Y-56709604D01*
X80762695Y-70993000D02*
X78163000Y-68393305D01*
X79373604Y-55499000D02*
X88519000Y-55499000D01*
%TO.N,/I2C2_SCL*%
X78613000Y-56896000D02*
X78613000Y-67033620D01*
X78740000Y-56769000D02*
X78613000Y-56896000D01*
X81277380Y-69698000D02*
X82423934Y-69698000D01*
X82423934Y-69698000D02*
X82692945Y-69967011D01*
X78613000Y-67033620D02*
X81277380Y-69698000D01*
X83566000Y-56260500D02*
X83057500Y-56769000D01*
X83057500Y-56769000D02*
X78740000Y-56769000D01*
%TO.N,+BATT*%
X84892604Y-55049000D02*
X89212000Y-55049000D01*
X77724000Y-75184000D02*
X77713000Y-75173000D01*
X83506604Y-53663000D02*
X84892604Y-55049000D01*
X81625000Y-95100000D02*
X84425500Y-92299500D01*
X84557688Y-92167312D02*
X84425500Y-92299500D01*
X91313000Y-89916000D02*
X91313000Y-88011000D01*
X77713000Y-75173000D02*
X77713000Y-56399000D01*
X77724000Y-79756000D02*
X77724000Y-75184000D01*
X84557688Y-90928133D02*
X90300867Y-90928133D01*
X91313000Y-88011000D02*
X86233000Y-82931000D01*
X91821000Y-63371604D02*
X91371000Y-63821604D01*
X90300867Y-90928133D02*
X91313000Y-89916000D01*
X80899000Y-82931000D02*
X77724000Y-79756000D01*
X91371000Y-64458000D02*
X90932000Y-64897000D01*
X91371000Y-63821604D02*
X91371000Y-64458000D01*
X89281000Y-64934500D02*
X89281000Y-66421000D01*
X89318500Y-64897000D02*
X89281000Y-64934500D01*
X80449000Y-53663000D02*
X83506604Y-53663000D01*
X90932000Y-64897000D02*
X89318500Y-64897000D01*
X82931000Y-82931000D02*
X80899000Y-82931000D01*
X86233000Y-82931000D02*
X82931000Y-82931000D01*
X84557688Y-90928133D02*
X84557688Y-92167312D01*
X91821000Y-57658000D02*
X91821000Y-63371604D01*
X77713000Y-56399000D02*
X80449000Y-53663000D01*
X96647000Y-64516000D02*
X96647000Y-66167000D01*
X89212000Y-55049000D02*
X91821000Y-57658000D01*
%TO.N,/SIM_DATA*%
X97536000Y-72136000D02*
X91821000Y-66421000D01*
X91821000Y-64008000D02*
X92456000Y-63373000D01*
X91821000Y-66421000D02*
X91821000Y-64008000D01*
X101600000Y-72136000D02*
X97536000Y-72136000D01*
X92456000Y-63373000D02*
X92837000Y-63373000D01*
%TO.N,/SIM_VDD*%
X101944000Y-70993000D02*
X102325000Y-70612000D01*
X101600000Y-70993000D02*
X101944000Y-70993000D01*
X95377000Y-59563000D02*
X92837000Y-59563000D01*
X102325000Y-66511000D02*
X95377000Y-59563000D01*
X102325000Y-70612000D02*
X102325000Y-66511000D01*
%TO.N,/SIM_CLK*%
X92837000Y-66040000D02*
X92837000Y-64643000D01*
X101600000Y-69723000D02*
X96520000Y-69723000D01*
X96520000Y-69723000D02*
X92837000Y-66040000D01*
%TO.N,/SIM_RST*%
X99441000Y-65532000D02*
X99441000Y-67056000D01*
X92837000Y-62103000D02*
X96012000Y-62103000D01*
X96012000Y-62103000D02*
X99441000Y-65532000D01*
%TO.N,/GSM_RF*%
X86233000Y-60071000D02*
X86233000Y-64643000D01*
X86233000Y-64643000D02*
X87249000Y-65659000D01*
X85217000Y-59055000D02*
X86233000Y-60071000D01*
X79337500Y-59055000D02*
X85217000Y-59055000D01*
%TO.N,1.8V*%
X88265000Y-66929000D02*
X88519000Y-66675000D01*
X86868000Y-59563000D02*
X86233000Y-58928000D01*
X85561000Y-65358695D02*
X85561000Y-66721305D01*
X88519000Y-64770000D02*
X88138000Y-64389000D01*
X85561000Y-66721305D02*
X85768695Y-66929000D01*
X88138000Y-64389000D02*
X87122000Y-64389000D01*
X82423000Y-64426500D02*
X82423500Y-64426000D01*
X82423500Y-64426000D02*
X84628305Y-64426000D01*
X87122000Y-64389000D02*
X86868000Y-64135000D01*
X85768695Y-66929000D02*
X88265000Y-66929000D01*
X84628305Y-64426000D02*
X85561000Y-65358695D01*
X86868000Y-64135000D02*
X86868000Y-59563000D01*
X88519000Y-66675000D02*
X88519000Y-64770000D01*
%TO.N,/PWR_KEY*%
X83058000Y-79375000D02*
X85725000Y-79375000D01*
X85725000Y-79375000D02*
X89789000Y-83439000D01*
X96647000Y-84582000D02*
X99822000Y-87757000D01*
%TO.N,/IO27*%
X98933000Y-100076000D02*
X76835000Y-100076000D01*
X76200000Y-89662000D02*
X76581000Y-89281000D01*
X99949000Y-96181417D02*
X99627191Y-96503226D01*
X96901000Y-85852000D02*
X99097000Y-88048000D01*
X96774000Y-85852000D02*
X96901000Y-85852000D01*
X99097000Y-88057305D02*
X99949000Y-88909305D01*
X76835000Y-100076000D02*
X76200000Y-99441000D01*
X99097000Y-88048000D02*
X99097000Y-88057305D01*
X99627191Y-96503226D02*
X99627191Y-99381809D01*
X76200000Y-99441000D02*
X76200000Y-89662000D01*
X99627191Y-99381809D02*
X98933000Y-100076000D01*
X99949000Y-88909305D02*
X99949000Y-96181417D01*
%TO.N,/IO28*%
X88773000Y-73533000D02*
X88773000Y-71882000D01*
%TO.N,+5V*%
X80391000Y-91420227D02*
X79850000Y-90879227D01*
X82282688Y-90928133D02*
X79898906Y-90928133D01*
X79898906Y-90928133D02*
X79850000Y-90879227D01*
X89916000Y-95123000D02*
X89947602Y-95091398D01*
X82296000Y-90941445D02*
X82282688Y-90928133D01*
X89947602Y-95091398D02*
X94702191Y-95091398D01*
X80391000Y-92583000D02*
X80391000Y-91420227D01*
X82296000Y-92583000D02*
X82296000Y-90941445D01*
X82296000Y-92583000D02*
X80391000Y-92583000D01*
%TO.N,Net-(CHG1-Pad-)*%
X81915000Y-96774000D02*
X83185000Y-95504000D01*
X83000000Y-86302000D02*
X82042000Y-85344000D01*
X83000000Y-87000000D02*
X83000000Y-86302000D01*
X80010000Y-96774000D02*
X81915000Y-96774000D01*
X82042000Y-85344000D02*
X78232000Y-85344000D01*
X78068000Y-95467000D02*
X78703000Y-95467000D01*
X77470000Y-86106000D02*
X77470000Y-94869000D01*
X78232000Y-85344000D02*
X77470000Y-86106000D01*
X78703000Y-95467000D02*
X80010000Y-96774000D01*
X85979000Y-98298000D02*
X86995000Y-99314000D01*
X85979000Y-96393000D02*
X85979000Y-98298000D01*
X85090000Y-95504000D02*
X85979000Y-96393000D01*
X77470000Y-94869000D02*
X78068000Y-95467000D01*
X83185000Y-95504000D02*
X85090000Y-95504000D01*
%TO.N,/VIO*%
X96774000Y-73533000D02*
X96012000Y-74295000D01*
X96012000Y-76717305D02*
X100673500Y-81378805D01*
X96012000Y-74295000D02*
X96012000Y-76717305D01*
X100673500Y-81378805D02*
X100673500Y-95250000D01*
%TO.N,Net-(U3-STAT)*%
X84700000Y-87000000D02*
X84700000Y-88885821D01*
X84700000Y-88885821D02*
X84557688Y-89028133D01*
%TO.N,Net-(U3-PROG)*%
X81254275Y-87999720D02*
X82282688Y-89028133D01*
X81254275Y-86978523D02*
X81254275Y-87999720D01*
%TO.N,/SIM_VPP_UNCONN*%
X101600000Y-67054604D02*
X95378396Y-60833000D01*
X95378396Y-60833000D02*
X92837000Y-60833000D01*
X101600000Y-68453000D02*
X101600000Y-67054604D01*
%TD*%
M02*
