%TF.GenerationSoftware,KiCad,Pcbnew,7.0.8*%
%TF.CreationDate,2023-10-19T11:53:07-06:00*%
%TF.ProjectId,air_station_1v5,6169725f-7374-4617-9469-6f6e5f317635,rev?*%
%TF.SameCoordinates,Original*%
%TF.FileFunction,Paste,Top*%
%TF.FilePolarity,Positive*%
%FSLAX46Y46*%
G04 Gerber Fmt 4.6, Leading zero omitted, Abs format (unit mm)*
G04 Created by KiCad (PCBNEW 7.0.8) date 2023-10-19 11:53:07*
%MOMM*%
%LPD*%
G01*
G04 APERTURE LIST*
G04 Aperture macros list*
%AMRoundRect*
0 Rectangle with rounded corners*
0 $1 Rounding radius*
0 $2 $3 $4 $5 $6 $7 $8 $9 X,Y pos of 4 corners*
0 Add a 4 corners polygon primitive as box body*
4,1,4,$2,$3,$4,$5,$6,$7,$8,$9,$2,$3,0*
0 Add four circle primitives for the rounded corners*
1,1,$1+$1,$2,$3*
1,1,$1+$1,$4,$5*
1,1,$1+$1,$6,$7*
1,1,$1+$1,$8,$9*
0 Add four rect primitives between the rounded corners*
20,1,$1+$1,$2,$3,$4,$5,0*
20,1,$1+$1,$4,$5,$6,$7,0*
20,1,$1+$1,$6,$7,$8,$9,0*
20,1,$1+$1,$8,$9,$2,$3,0*%
G04 Aperture macros list end*
%ADD10R,0.800000X0.750000*%
%ADD11R,1.075000X1.000000*%
%ADD12RoundRect,0.254000X0.254000X0.254000X-0.254000X0.254000X-0.254000X-0.254000X0.254000X-0.254000X0*%
%ADD13RoundRect,0.190500X-0.952500X-0.190500X0.952500X-0.190500X0.952500X0.190500X-0.952500X0.190500X0*%
%ADD14R,1.000000X1.075000*%
%ADD15RoundRect,0.200000X0.200000X0.800000X-0.200000X0.800000X-0.200000X-0.800000X0.200000X-0.800000X0*%
%ADD16R,1.240000X1.500000*%
%ADD17R,1.200000X0.550000*%
%ADD18RoundRect,0.111125X-0.333375X0.333375X-0.333375X-0.333375X0.333375X-0.333375X0.333375X0.333375X0*%
%ADD19R,1.200000X2.500000*%
%ADD20R,0.254000X0.279400*%
%ADD21R,0.279400X0.254000*%
%ADD22RoundRect,0.254000X-0.254000X-0.254000X0.254000X-0.254000X0.254000X0.254000X-0.254000X0.254000X0*%
%ADD23RoundRect,0.190500X0.952500X0.190500X-0.952500X0.190500X-0.952500X-0.190500X0.952500X-0.190500X0*%
%ADD24R,1.600000X0.800000*%
%ADD25R,0.800000X1.600000*%
%ADD26R,3.000000X3.000000*%
%ADD27R,1.500000X1.500000*%
%ADD28RoundRect,0.111125X0.333375X-0.333375X0.333375X0.333375X-0.333375X0.333375X-0.333375X-0.333375X0*%
%ADD29RoundRect,0.095250X-0.349250X0.285750X-0.349250X-0.285750X0.349250X-0.285750X0.349250X0.285750X0*%
G04 APERTURE END LIST*
D10*
%TO.C,X1*%
X84641000Y-55304000D03*
X84641000Y-56354000D03*
X84641000Y-57404000D03*
X85691000Y-57404000D03*
X86741000Y-57404000D03*
X86741000Y-56354000D03*
X86741000Y-55304000D03*
X85691000Y-55304000D03*
X85691000Y-56354000D03*
%TD*%
D11*
%TO.C,R4*%
X78850000Y-93000000D03*
X77150000Y-93000000D03*
%TD*%
D12*
%TO.C,GPS_ANTENNA*%
X98476000Y-56000000D03*
D13*
X100000000Y-54603000D03*
X100000000Y-57397000D03*
D12*
X101524000Y-56000000D03*
%TD*%
D14*
%TO.C,R6*%
X77597000Y-80479000D03*
X77597000Y-78779000D03*
%TD*%
%TO.C,R10*%
X87000000Y-62300000D03*
X87000000Y-64000000D03*
%TD*%
%TO.C,C5*%
X89408000Y-98806000D03*
X89408000Y-97106000D03*
%TD*%
D15*
%TO.C,SW_RST1*%
X81100000Y-98000000D03*
X76900000Y-98000000D03*
%TD*%
D16*
%TO.C,C12*%
X99192000Y-60985392D03*
X101092000Y-60985392D03*
%TD*%
D11*
%TO.C,R3*%
X77150000Y-91000000D03*
X78850000Y-91000000D03*
%TD*%
D14*
%TO.C,R9*%
X91000000Y-62150000D03*
X91000000Y-63850000D03*
%TD*%
D17*
%TO.C,U7*%
X84300000Y-63950000D03*
X84300000Y-63000000D03*
X84300000Y-62050000D03*
X81700000Y-62050000D03*
X81700000Y-63000000D03*
X81700000Y-63950000D03*
%TD*%
D14*
%TO.C,R5*%
X77597000Y-82589000D03*
X77597000Y-84289000D03*
%TD*%
D18*
%TO.C,D2*%
X77597000Y-74930000D03*
X77597000Y-76454000D03*
%TD*%
D17*
%TO.C,U9*%
X96600200Y-62900000D03*
X96600200Y-61950000D03*
X96600200Y-61000000D03*
X94000000Y-61000000D03*
X94000000Y-62900000D03*
%TD*%
D16*
%TO.C,C9*%
X79000000Y-63130000D03*
X77100000Y-63130000D03*
%TD*%
D11*
%TO.C,C11*%
X78850000Y-68570000D03*
X77150000Y-68570000D03*
%TD*%
%TO.C,R1*%
X93850000Y-97000000D03*
X92150000Y-97000000D03*
%TD*%
%TO.C,C14*%
X99402000Y-65425392D03*
X101102000Y-65425392D03*
%TD*%
D16*
%TO.C,C10*%
X79000000Y-65630000D03*
X77100000Y-65630000D03*
%TD*%
D19*
%TO.C,C3*%
X92650000Y-92000000D03*
X89350000Y-92000000D03*
%TD*%
D16*
%TO.C,C2*%
X97900000Y-93000000D03*
X96000000Y-93000000D03*
%TD*%
D11*
%TO.C,R2*%
X92150000Y-99000000D03*
X93850000Y-99000000D03*
%TD*%
D16*
%TO.C,C8*%
X79000000Y-60630000D03*
X77100000Y-60630000D03*
%TD*%
D18*
%TO.C,L2*%
X97536000Y-58039000D03*
X97536000Y-59563000D03*
%TD*%
D16*
%TO.C,C13*%
X99192000Y-63485392D03*
X101092000Y-63485392D03*
%TD*%
D20*
%TO.C,U5*%
X92584585Y-54575172D03*
X92084585Y-54575172D03*
D21*
X91572585Y-54837173D03*
X91572585Y-55337172D03*
X91572585Y-55837171D03*
D20*
X92084585Y-56099172D03*
X92584585Y-56099172D03*
D21*
X93096585Y-55837171D03*
X93096585Y-55337172D03*
X93096585Y-54837173D03*
%TD*%
D22*
%TO.C,GSM_ANTENNA*%
X80524000Y-56141642D03*
D23*
X79000000Y-57538642D03*
X79000000Y-54744642D03*
D22*
X77476000Y-56141642D03*
%TD*%
D24*
%TO.C,U1*%
X81400000Y-69700000D03*
X81400000Y-70900000D03*
X81400000Y-72100000D03*
X81400000Y-73300000D03*
X81400000Y-74500000D03*
X81400000Y-75700000D03*
X81400000Y-76900000D03*
X81400000Y-78100000D03*
X81400000Y-79300000D03*
X81400000Y-80500000D03*
X81400000Y-81700000D03*
X81400000Y-82900000D03*
X81400000Y-84100000D03*
X81400000Y-85300000D03*
D25*
X83600000Y-87000000D03*
X84800000Y-87000000D03*
X86000000Y-87000000D03*
X87200000Y-87000000D03*
X88400000Y-87000000D03*
X89600000Y-87000000D03*
X90800000Y-87000000D03*
X92000000Y-87000000D03*
X93200000Y-87000000D03*
X94400000Y-87000000D03*
X95600000Y-87000000D03*
X96800000Y-87000000D03*
X98000000Y-87000000D03*
D24*
X100200000Y-85300000D03*
X100200000Y-84100000D03*
X100200000Y-82900000D03*
X100200000Y-81700000D03*
X100200000Y-80500000D03*
X100200000Y-79300000D03*
X100200000Y-78100000D03*
X100200000Y-76900000D03*
X100200000Y-75700000D03*
X100200000Y-74500000D03*
X100200000Y-73300000D03*
X100200000Y-72100000D03*
X100200000Y-70900000D03*
X100200000Y-69700000D03*
D25*
X98000000Y-68000000D03*
X96800000Y-68000000D03*
X95600000Y-68000000D03*
X94400000Y-68000000D03*
X93200000Y-68000000D03*
X92000000Y-68000000D03*
X90800000Y-68000000D03*
X89600000Y-68000000D03*
X88400000Y-68000000D03*
X87200000Y-68000000D03*
X86000000Y-68000000D03*
X84800000Y-68000000D03*
X83600000Y-68000000D03*
D26*
X86600000Y-72800000D03*
D27*
X88900000Y-79400000D03*
%TD*%
D16*
%TO.C,C1*%
X97900000Y-91000000D03*
X96000000Y-91000000D03*
%TD*%
D15*
%TO.C,SW_POW1*%
X101669479Y-98000000D03*
X97469479Y-98000000D03*
%TD*%
D28*
%TO.C,D1*%
X77597000Y-87884000D03*
X77597000Y-86360000D03*
%TD*%
D29*
%TO.C,CHG*%
X86995000Y-96393000D03*
X86995000Y-97917000D03*
%TD*%
M02*
